<svg xmlns="http://www.w3.org/2000/svg" xmlns:xlink="http://www.w3.org/1999/xlink" width="454.008" height="351.339" viewBox="0 0 454.008 351.339">
  <defs>
    <linearGradient id="linear-gradient" x1="167.938" y1="-0.541" x2="165.1" y2="5.847" gradientUnits="objectBoundingBox">
      <stop offset="0" stop-color="#141c40"/>
      <stop offset="1" stop-color="#0f2568"/>
    </linearGradient>
    <linearGradient id="linear-gradient-2" x1="667.361" y1="0.37" x2="668.368" y2="0.37" gradientUnits="objectBoundingBox">
      <stop offset="0" stop-color="#ec7b7c"/>
      <stop offset="1" stop-color="#f2a1a3"/>
    </linearGradient>
    <linearGradient id="linear-gradient-3" x1="210.762" y1="0.024" x2="207.746" y2="0.879" xlink:href="#linear-gradient"/>
    <linearGradient id="linear-gradient-4" x1="416.2" y1="-2.268" x2="409.18" y2="5.297" xlink:href="#linear-gradient"/>
    <linearGradient id="linear-gradient-5" x1="777.962" y1="0.427" x2="778.976" y2="0.427" xlink:href="#linear-gradient-2"/>
    <linearGradient id="linear-gradient-6" x1="141.075" y1="-0.043" x2="139.057" y2="0.799" xlink:href="#linear-gradient"/>
    <linearGradient id="linear-gradient-7" x1="128.802" y1="0.468" x2="129.795" y2="0.468" xlink:href="#linear-gradient-2"/>
    <linearGradient id="linear-gradient-8" x1="134.24" y1="1.493" x2="136.22" y2="4.176" xlink:href="#linear-gradient-2"/>
    <linearGradient id="linear-gradient-9" x1="927.078" y1="0.532" x2="929.08" y2="-1.248" xlink:href="#linear-gradient-2"/>
    <linearGradient id="linear-gradient-10" x1="102.631" y1="0.479" x2="103.633" y2="0.479" xlink:href="#linear-gradient-2"/>
    <linearGradient id="linear-gradient-11" x1="0.701" y1="-0.073" x2="0.213" y2="1.634" xlink:href="#linear-gradient-2"/>
    <linearGradient id="linear-gradient-12" x1="-64.876" y1="100.945" x2="-65.817" y2="99.905" xlink:href="#linear-gradient-2"/>
    <linearGradient id="linear-gradient-13" x1="-80.497" y1="40.99" x2="-80.293" y2="42.173" xlink:href="#linear-gradient"/>
    <linearGradient id="linear-gradient-14" x1="-211.632" y1="483.845" x2="-214.694" y2="478.84" xlink:href="#linear-gradient-2"/>
    <linearGradient id="linear-gradient-15" x1="90.185" y1="-0.062" x2="90.698" y2="2.428" xlink:href="#linear-gradient"/>
    <linearGradient id="linear-gradient-16" x1="308.814" y1="0.5" x2="309.814" y2="0.5" xlink:href="#linear-gradient-2"/>
    <linearGradient id="linear-gradient-17" y1="0.5" x2="1" y2="0.5" gradientUnits="objectBoundingBox">
      <stop offset="0" stop-color="#203f8e"/>
      <stop offset="1" stop-color="#284593"/>
    </linearGradient>
    <linearGradient id="linear-gradient-18" x1="0.772" y1="-6.692" x2="0.499" y2="0.843" xlink:href="#linear-gradient"/>
    <linearGradient id="linear-gradient-19" x1="0" y1="0.5" x2="1" y2="0.5" xlink:href="#linear-gradient-2"/>
    <linearGradient id="linear-gradient-20" x1="0" y1="0.5" x2="1" y2="0.5" xlink:href="#linear-gradient-17"/>
    <linearGradient id="linear-gradient-21" x1="0.734" y1="-1.867" x2="0.424" y2="1.1" xlink:href="#linear-gradient"/>
    <linearGradient id="linear-gradient-22" x1="0.795" y1="-0.103" x2="0.321" y2="0.746" xlink:href="#linear-gradient"/>
    <linearGradient id="linear-gradient-24" x1="0.889" y1="-0.425" x2="0.753" y2="-0.104" xlink:href="#linear-gradient"/>
    <linearGradient id="linear-gradient-25" x1="0.962" y1="0.016" x2="-0.059" y2="1.254" xlink:href="#linear-gradient-2"/>
    <linearGradient id="linear-gradient-27" x1="79.364" y1="15.012" x2="80.221" y2="16.754" xlink:href="#linear-gradient-2"/>
    <linearGradient id="linear-gradient-28" x1="68.041" y1="18.074" x2="68.81" y2="18.968" xlink:href="#linear-gradient"/>
    <linearGradient id="linear-gradient-29" x1="324.733" y1="51.078" x2="328.255" y2="57.136" xlink:href="#linear-gradient-2"/>
    <linearGradient id="linear-gradient-30" x1="-59.398" y1="-972.003" x2="-60.627" y2="-957.671" xlink:href="#linear-gradient"/>
    <linearGradient id="linear-gradient-31" x1="-235.69" y1="-81.857" x2="-238.316" y2="-80.558" xlink:href="#linear-gradient"/>
    <linearGradient id="linear-gradient-32" x1="1.145" y1="0.392" x2="-1.278" y2="0.83" xlink:href="#linear-gradient-2"/>
    <linearGradient id="linear-gradient-33" x1="0.532" y1="0.006" x2="0.327" y2="3.202" xlink:href="#linear-gradient"/>
    <linearGradient id="linear-gradient-34" x1="-0.286" y1="-0.515" x2="0.001" y2="-0.114" xlink:href="#linear-gradient-2"/>
    <linearGradient id="linear-gradient-35" x1="0" y1="0.5" x2="1" y2="0.5" xlink:href="#linear-gradient"/>
    <linearGradient id="linear-gradient-36" x1="0.554" y1="-2.158" x2="0.395" y2="6.275" xlink:href="#linear-gradient"/>
    <linearGradient id="linear-gradient-37" x1="0.619" y1="-0.242" x2="0.442" y2="0.664" xlink:href="#linear-gradient"/>
    <linearGradient id="linear-gradient-38" x1="0.051" y1="-0.051" x2="0.914" y2="1.433" xlink:href="#linear-gradient-2"/>
    <linearGradient id="linear-gradient-39" x1="-100.737" y1="143.293" x2="-100.94" y2="142.113" xlink:href="#linear-gradient-2"/>
    <linearGradient id="linear-gradient-40" x1="-65.067" y1="183.63" x2="-65.402" y2="186.61" xlink:href="#linear-gradient"/>
    <linearGradient id="linear-gradient-41" x1="-423.668" y1="464.242" x2="-424.515" y2="460.413" xlink:href="#linear-gradient-2"/>
    <linearGradient id="linear-gradient-42" x1="0.238" y1="-5.153" x2="0.314" y2="-3.473" xlink:href="#linear-gradient-2"/>
    <linearGradient id="linear-gradient-43" x1="-0.068" y1="30.136" x2="-0.807" y2="32.573" xlink:href="#linear-gradient"/>
    <linearGradient id="linear-gradient-44" x1="0.733" y1="0.134" x2="0.333" y2="0.8" xlink:href="#linear-gradient"/>
    <linearGradient id="linear-gradient-45" x1="-371.976" y1="4.474" x2="-371.96" y2="8.118" xlink:href="#linear-gradient"/>
    <linearGradient id="linear-gradient-46" x1="-1172.699" y1="1.164" x2="-1172.962" y2="-0.58" xlink:href="#linear-gradient-2"/>
    <linearGradient id="linear-gradient-47" x1="-671.457" y1="3.704" x2="-671.43" y2="7.136" xlink:href="#linear-gradient"/>
    <linearGradient id="linear-gradient-48" x1="-1316.784" y1="1.13" x2="-1317.069" y2="-0.791" xlink:href="#linear-gradient-2"/>
    <linearGradient id="linear-gradient-49" x1="-149.753" y1="0.5" x2="-148.753" y2="0.5" xlink:href="#linear-gradient"/>
    <linearGradient id="linear-gradient-50" x1="-0.283" y1="0.608" x2="-21.464" y2="3.53" gradientUnits="objectBoundingBox">
      <stop offset="0" stop-color="#101328"/>
      <stop offset="1" stop-color="#131a3b"/>
    </linearGradient>
    <linearGradient id="linear-gradient-51" x1="-328" y1="0.5" x2="-327" y2="0.5" xlink:href="#linear-gradient-2"/>
    <linearGradient id="linear-gradient-52" x1="-174.188" y1="0.5" x2="-173.188" y2="0.5" xlink:href="#linear-gradient-2"/>
    <linearGradient id="linear-gradient-53" x1="-650.284" y1="1.029" x2="-648.995" y2="0.222" xlink:href="#linear-gradient-2"/>
    <linearGradient id="linear-gradient-54" x1="4.673" y1="-0.181" x2="-3.141" y2="1.091" xlink:href="#linear-gradient-2"/>
    <linearGradient id="linear-gradient-55" x1="-281.539" y1="0.579" x2="-280.494" y2="0.579" xlink:href="#linear-gradient"/>
    <linearGradient id="linear-gradient-56" x1="-1089.603" y1="2.214" x2="-1086.899" y2="-0.323" xlink:href="#linear-gradient-2"/>
    <linearGradient id="linear-gradient-57" x1="-119.048" y1="4.299" x2="-119.052" y2="2.583" xlink:href="#linear-gradient-17"/>
  </defs>
  <g id="Grupo_54972" data-name="Grupo 54972" transform="translate(-61.902 -413.095)">
    <path id="Trazado_102911" data-name="Trazado 102911" d="M533.907,541.311c-12.848-19.516-38.929-29.146-40.687-59.144-.667-11.361,6.263-20.81,2.592-31.818-24.626-73.849-126.317-18.129-170.466-.4-18.384,7.385-40.4,15.676-60.455,15.577-23.091-.114-44.975-12.141-67.88-13.588a49.461,49.461,0,0,0-19.676,2.606c-22.77,7.974-42.151,35.069-48.752,64.526-5.351,23.88,3.421,46.848-5.485,70.389-9.494,25.094-29.326,43.093-33.449,71.768-4.95,34.416,19.754,63.1,45.169,62.931,16.177-.106,46.013-4.451,59.311-16.844,16.191-15.09,32.582-16.742,52.084-17.031,37.115-.549,74.548,7.731,111.4,13.187,31.578,4.674,62.811,12.266,94.634,12.031,23.372-.174,43.193-.653,54.738-31.211C520.785,647.773,560.858,582.25,533.907,541.311Z" transform="translate(-27.11 0)" fill="#eef6fe"/>
    <g id="Grupo_54956" data-name="Grupo 54956" transform="translate(89.012 499.236)">
      <g id="Grupo_54935" data-name="Grupo 54935" transform="translate(88.837)">
        <path id="Trazado_102912" data-name="Trazado 102912" d="M229.885,736.485s-.931,5-1.412,9.947a3.413,3.413,0,0,0,3.23,3.73c6.6.338,20.7,1.007,25.77.83a1.11,1.11,0,0,0,.992-1.513h0a2.487,2.487,0,0,0-1.258-1.352L234,737.19Z" transform="translate(-177.034 -497.348)" fill="url(#linear-gradient)"/>
        <path id="Trazado_102913" data-name="Trazado 102913" d="M229.185,733.56l.653,5.993s4.066,1.94,6.875-.174l-1.627-6.688Z" transform="translate(-177.03 -497.371)" fill="url(#linear-gradient-2)"/>
        <path id="Trazado_102914" data-name="Trazado 102914" d="M230.891,621.662c-.322,1.56-2.391,78,5.455,112.341a1.163,1.163,0,0,1-.7,1.346,20.27,20.27,0,0,1-6.669,1.289,2.006,2.006,0,0,1-1.973-1.456c-2.26-7.972-13.074-47.906-14.171-85.967-1.226-42.528.014-1.447.014-1.447l1.207-26.269Z" transform="translate(-177.129 -498.02)" fill="url(#linear-gradient-3)"/>
        <path id="Trazado_102915" data-name="Trazado 102915" d="M203.208,738.827s-1.431,2.514-2.858,9.214a2.083,2.083,0,0,0,1.808,2.512c2.177.234,5.528.542,8.215.549a2.076,2.076,0,0,0,2.078-2.3,17.526,17.526,0,0,0-4-9.645Z" transform="translate(-177.199 -497.335)" fill="url(#linear-gradient-4)"/>
        <path id="Trazado_102916" data-name="Trazado 102916" d="M202.035,731.161l1.573,9.07s1.629,1.236,4.884.382l-.7-9.749Z" transform="translate(-177.189 -497.381)" fill="url(#linear-gradient-5)"/>
        <path id="Trazado_102917" data-name="Trazado 102917" d="M198.619,623.709c-7.068,40.275.5,99.712,3.131,111.356a1.812,1.812,0,0,0,1.45,1.39,12.172,12.172,0,0,0,5.229-.159,1.66,1.66,0,0,0,1.208-1.518c.458-9.389.346-67.059,6.791-89.789a5.17,5.17,0,0,1,2.024-2.836l12.17-8.478,1.059-13.881Z" transform="translate(-177.226 -498.029)" fill="url(#linear-gradient-6)"/>
        <g id="Grupo_54930" data-name="Grupo 54930" transform="translate(19.188 19.168)">
          <path id="Trazado_102918" data-name="Trazado 102918" d="M241.934,548.12c-20.027-.522-42.182,4.857-42.182,4.857-6.3,34.782-1.759,75.012-1.759,75.012,15.468,4.214,33.023-2.172,33.023-2.172,2.717-14.537,15.133-55.4,15.133-55.4a65.984,65.984,0,0,0,24.563-7.538c-5.009-5.918-7.325-13.411-8.319-17.837A67.212,67.212,0,0,1,241.934,548.12Z" transform="translate(-196.409 -517.634)" fill="#098091"/>
          <path id="Trazado_102919" data-name="Trazado 102919" d="M301,519.34a3.831,3.831,0,0,0-4.446-1.294c-3.067,12.422-18.618,22.371-34.543,27.154.995,4.426,3.31,11.918,8.319,17.837C296.821,548.471,301,519.34,301,519.34Z" transform="translate(-196.026 -517.793)" fill="url(#linear-gradient-7)"/>
        </g>
        <g id="Grupo_54931" data-name="Grupo 54931" transform="translate(119.759)">
          <path id="Trazado_102920" data-name="Trazado 102920" d="M300.315,520.051c.2.657-2.195,1.63-3.573-1.06-.037-1.283-.764-6.787.012-7.824,4.136-5.528,12.119-12.43,12.119-12.43a1.884,1.884,0,0,1,.21,2.619l-3.879,3.964a18.534,18.534,0,0,1,2.2,4.454,5.377,5.377,0,0,1-.574,3.955c-.685,1.208-1.62,2.778-2.5,4.005A5.312,5.312,0,0,1,300.315,520.051Z" transform="translate(-296.397 -498.736)" fill="url(#linear-gradient-8)"/>
          <path id="Trazado_102921" data-name="Trazado 102921" d="M303.487,507.845l-3.528,2.933-1.127,2.943,3.087,3.491s1.105-5.85,1.9-7.111S304.209,508.223,303.487,507.845Z" transform="translate(-296.383 -498.683)" fill="url(#linear-gradient-9)"/>
        </g>
        <path id="Trazado_102922" data-name="Trazado 102922" d="M207.359,572.4l-7.5-19.469s-18.83,12.534-22.061,28.622a44.305,44.305,0,0,1,16.223,4.514C195.479,578.47,207.359,572.4,207.359,572.4Z" transform="translate(-177.33 -498.42)" fill="#098091"/>
        <path id="Trazado_102923" data-name="Trazado 102923" d="M223.537,590.64s-21.119,11.672-28.11,1.466a7.964,7.964,0,0,1-1.4-6.205,44.305,44.305,0,0,0-16.223-4.514,22.242,22.242,0,0,0,2.272,15.273c12.2,22.831,46.193-.814,46.193-.814Z" transform="translate(-177.333 -498.254)" fill="url(#linear-gradient-10)"/>
        <path id="Trazado_102924" data-name="Trazado 102924" d="M221.691,531.742l-6.549,18.371a.663.663,0,0,0,.295.8c1.728.978,7.961,3.813,15.549-.9a3.123,3.123,0,0,0,1.461-2.219l2.216-15.933Z" transform="translate(-177.112 -498.543)" fill="url(#linear-gradient-11)"/>
        <g id="Grupo_54932" data-name="Grupo 54932" transform="translate(32.548 6.679)">
          <path id="Trazado_102925" data-name="Trazado 102925" d="M235.7,514.905s6.873,13.241,5.924,18.555-9.618,4.847-17.151.454l-5.157-14.276Z" transform="translate(-209.635 -505.321)" fill="url(#linear-gradient-12)"/>
          <path id="Trazado_102926" data-name="Trazado 102926" d="M224.928,526.986a.543.543,0,0,0,.244-.793,14.194,14.194,0,0,1-1.907-4.153s-1.25-.818,3.22-1.843,11.138-2.618,12.572-6.4c1.4-3.688-2.094-13.032-7.879-5.669a.542.542,0,0,1-.86,0c-.925-1.228-3.364-3.782-6.8-2.28-3.214,1.405-3.6,3.746-3.564,4.928a.54.54,0,0,1-.645.547c-1.614-.324-5.494-.626-7.344,3.338-1.524,3.266-.571,5.133.3,6.049a.541.541,0,0,1-.239.9c-1.067.316-2.448,1.2-2.335,3.7.157,3.445,4.01,3.178,5.108,3.032a.544.544,0,0,1,.481.175c.929,1.049,5.122,5.506,9.7,6.082a.548.548,0,0,0,.581-.718l-1.928-5.785a.547.547,0,0,1,.3-.674Z" transform="translate(-209.691 -505.376)" fill="url(#linear-gradient-13)"/>
          <path id="Trazado_102927" data-name="Trazado 102927" d="M225.656,527.692s-4.951-3.466-5.342-.591,4.448,4.214,6.861,3.163Z" transform="translate(-209.63 -505.256)" fill="url(#linear-gradient-14)"/>
        </g>
        <g id="Grupo_54934" data-name="Grupo 54934" transform="translate(41.842 67.316)">
          <g id="Grupo_54933" data-name="Grupo 54933">
            <path id="Trazado_102928" data-name="Trazado 102928" d="M218.978,609.176,230.483,569a1.172,1.172,0,0,1,.991-.844c2.084-.243,8.124-.926,15.1-1.516,8.4-.71,18.155-1.286,23.984-.8a1.175,1.175,0,0,1,.961,1.692c-3.314,6.706-16.949,33.986-23.777,42.922a1.177,1.177,0,0,1-.95.466l-26.692-.248A1.176,1.176,0,0,1,218.978,609.176Z" transform="translate(-218.932 -565.662)" fill="url(#linear-gradient-15)"/>
            <path id="Trazado_102929" data-name="Trazado 102929" d="M221.748,599.353s-1.6-6.59-.957-8.928,1.9-5.344,6.074-4.676a61.063,61.063,0,0,1,9.1,2.427,2.39,2.39,0,0,1-3.422,2.063l1.968,1.522s-.282,2.438-2.961,1.136l1.83,2.019a2.133,2.133,0,0,1-3.123.718C228.285,594.35,227.34,600.147,221.748,599.353Z" transform="translate(-218.922 -565.545)" fill="url(#linear-gradient-16)"/>
          </g>
          <path id="Trazado_102930" data-name="Trazado 102930" d="M245.649,578.579a3.377,3.377,0,1,0,3.377-3.378A3.377,3.377,0,0,0,245.649,578.579Z" transform="translate(-218.776 -565.606)" fill="#6481c0"/>
          <path id="Trazado_102931" data-name="Trazado 102931" d="M231.585,580.806l-.6-.178,2.343-7.945a3.487,3.487,0,0,1,2.624-2.443c7.411-1.547,27.579-1.873,27.781-1.876l.01.629c-.2,0-20.31.328-27.663,1.863a2.859,2.859,0,0,0-2.149,2.006Z" transform="translate(-218.862 -565.646)" fill="#6481c0"/>
        </g>
      </g>
      <g id="Grupo_54936" data-name="Grupo 54936" transform="translate(0 185.917)">
        <path id="Trazado_102932" data-name="Trazado 102932" d="M96.386,692.556c-1.226,1.814-6.1,42.9-6.863,58.076a1.794,1.794,0,0,0,1.8,1.881h0a1.8,1.8,0,0,0,1.777-1.521l8.915-57.13Z" transform="translate(-89.009 -683.521)" fill="#6481c0"/>
        <path id="Trazado_102933" data-name="Trazado 102933" d="M135.339,692.556c1.227,1.814,6.1,42.9,6.864,58.076a1.794,1.794,0,0,1-1.8,1.881h0a1.8,1.8,0,0,1-1.776-1.521l-8.915-57.13Z" transform="translate(-88.774 -683.521)" fill="#6481c0"/>
        <path id="Trazado_102934" data-name="Trazado 102934" d="M89.016,689.4l0,.448a6.109,6.109,0,0,0,6.224,5.926l41.207.7a6.161,6.161,0,0,0,6.45-5.591l.021-.41a6.085,6.085,0,0,0-6.211-6.162l-41.224-.738A6.138,6.138,0,0,0,89.016,689.4Z" transform="translate(-89.012 -683.574)" fill="#6481c0"/>
      </g>
      <g id="Grupo_54940" data-name="Grupo 54940" transform="translate(12.239 63.795)">
        <g id="Grupo_54937" data-name="Grupo 54937" transform="translate(62.48 180.254)">
          <path id="Trazado_102935" data-name="Trazado 102935" d="M175.386,748.818c-7.324,0-10.566-.629-12.015-1.2a2.779,2.779,0,0,0,2.707,2.152h25.914a1.261,1.261,0,0,0,1.215-1.591C190.253,748.415,183.979,748.818,175.386,748.818Z" transform="translate(-163.297 -741.333)" fill="url(#linear-gradient-17)"/>
          <path id="Trazado_102936" data-name="Trazado 102936" d="M193.208,748.214a1.229,1.229,0,0,0-.212-.441c-1.974-2.521-5.939-6.479-11.334-6.4-7.9.112-10.657.969-16.8.048l-1.449,4.8a2.759,2.759,0,0,0-.043,1.432c1.448.573,4.69,1.2,12.015,1.2C183.979,748.854,190.253,748.451,193.208,748.214Z" transform="translate(-163.297 -741.369)" fill="url(#linear-gradient-18)"/>
        </g>
        <path id="Trazado_102937" data-name="Trazado 102937" d="M166.633,736.274l-1.778,6.047s3.939,1.793,7.4.354l.68-5.239Z" transform="translate(-100.808 -561.145)" fill="url(#linear-gradient-19)"/>
        <g id="Grupo_54938" data-name="Grupo 54938" transform="translate(106.697 171.512)">
          <path id="Trazado_102938" data-name="Trazado 102938" d="M220.08,745.092c-5.71,4.589-8.629,6.131-10.116,6.593a2.776,2.776,0,0,0,3.452-.025l20.2-16.231a1.256,1.256,0,0,0-.045-2C231.417,735.468,226.778,739.709,220.08,745.092Z" transform="translate(-207.241 -732.673)" fill="url(#linear-gradient-20)"/>
          <path id="Trazado_102939" data-name="Trazado 102939" d="M233.588,733.437a1.2,1.2,0,0,0-.441-.209c-3.11-.719-8.668-1.307-12.825,2.131-6.09,5.036-7.7,7.426-13.065,10.558l1.864,4.633a2.718,2.718,0,0,0,.859,1.139c1.487-.463,4.406-2,10.116-6.593C226.793,739.714,231.433,735.472,233.588,733.437Z" transform="translate(-207.257 -732.678)" fill="url(#linear-gradient-21)"/>
        </g>
        <path id="Trazado_102940" data-name="Trazado 102940" d="M128.853,667.77s43.855,3.581,52.853,7.816-7.342,63.593-7.342,63.593-2.45,1.179-7.9-.516c0,0,5.588-43.8,1.43-53.3l-47.485-7.767Z" transform="translate(-101.067 -561.544)" fill="url(#linear-gradient-22)"/>
        <path id="Trazado_102941" data-name="Trazado 102941" d="M202.925,737.567c.407.371,4.357,8.337,4.357,8.337s4.4-.951,5.295-3.734l-3.957-7.191Z" transform="translate(-100.585 -561.152)" fill="url(#linear-gradient-19)"/>
        <path id="Trazado_102942" data-name="Trazado 102942" d="M102.552,667.405a22.21,22.21,0,0,0-1.371,8.009,12.023,12.023,0,0,0,11.474,11.763l51.845,2.364a2.488,2.488,0,0,1,2.3,1.869c1.218,4.712,7.174,19.183,36.283,48.059a2.346,2.346,0,0,0,2.9.317l4.144-2.617a.956.956,0,0,0,.314-1.289l-30.187-51.548a11.686,11.686,0,0,0-7.1-5.265l-44.187-11.294Z" transform="translate(-101.179 -561.547)" fill="url(#linear-gradient-24)"/>
        <path id="Trazado_102943" data-name="Trazado 102943" d="M153.4,587.35s-5.553,9.82-11.216,14.577l11.7,6.531s2.637-10.4,8.663-13.44Z" transform="translate(-100.94 -562.014)" fill="url(#linear-gradient-25)"/>
        <path id="Trazado_102944" data-name="Trazado 102944" d="M101.607,668.164s14,3.411,27.356,0c0,0,18.693-25.13,25.925-31.97,0,0,11.536,18.2,37.213,20.784l1.432-3.2s-20.442-9.423-26.735-23.9-8.82-20.654-14.545-24.431c-3.566-2.353-5.7-3.96-6.8-4.838a1.829,1.829,0,0,0-2.1-.133C137.277,604.177,108.688,623.758,101.607,668.164Z" transform="translate(-101.177 -561.939)" fill="#dc0052"/>
        <path id="Trazado_102945" data-name="Trazado 102945" d="M190.041,651.823l2.89-.771,8.776-2.032a4.068,4.068,0,0,1,3.084.52l7.545,4.747-20.836-.035Z" transform="translate(-100.661 -561.654)" fill="url(#linear-gradient-19)"/>
        <g id="Grupo_54939" data-name="Grupo 54939" transform="translate(38.024)">
          <path id="Trazado_102946" data-name="Trazado 102946" d="M162.2,572.711s5.4,8.972,6.335,13.931,2.439,8.06-3.2,9.826-10.889-.469-14.18-5.1c0,0-5.141-7.124-4.629-10.386S162.2,572.711,162.2,572.711Z" transform="translate(-138.939 -562.099)" fill="url(#linear-gradient-27)"/>
          <path id="Trazado_102947" data-name="Trazado 102947" d="M152.693,587.594l.73-.1s-3.821-5.774-1.321-7.208,12.692-4.948,14.462-8.961a6.969,6.969,0,0,0-3.924-9.152.392.392,0,0,0-.471.247l-.18.487a.4.4,0,0,1-.734.021h0a.394.394,0,0,0-.717-.014c-.545,1.2-2.18,3.256-7.081,4.844-6.953,2.255-11.285,5.76-10.752,10.7a.4.4,0,0,1-.565.4c-.568-.251-1.43-.291-2.43.8-1.741,1.9-.377,6.067,4.375,9.013a.393.393,0,0,1,.064.631c-.711.61-1.712,1.966,1.5,3.176,3.29,1.238,5.085.819,5.748.553a.4.4,0,0,0,.243-.445l-.845-4.33a.4.4,0,0,1,.337-.468Z" transform="translate(-138.983 -562.161)" fill="url(#linear-gradient-28)"/>
          <path id="Trazado_102948" data-name="Trazado 102948" d="M152.943,588.355s-2.382-5.871-4.882-3.807,2.311,6.625,4.533,6.564Z" transform="translate(-138.934 -562.033)" fill="url(#linear-gradient-29)"/>
        </g>
      </g>
      <g id="Grupo_54943" data-name="Grupo 54943" transform="translate(91.676 115.859)">
        <g id="Grupo_54941" data-name="Grupo 54941" transform="translate(0 40.637)">
          <path id="Trazado_102949" data-name="Trazado 102949" d="M182.049,658.343c.034,0,.067,0,.1,0l44.513-.044a1.989,1.989,0,1,0-.005-3.977l-44.513.044a1.989,1.989,0,0,0-.1,3.975Z" transform="translate(-180.156 -654.324)" fill="url(#linear-gradient-30)"/>
        </g>
        <g id="Grupo_54942" data-name="Grupo 54942" transform="translate(44.787)">
          <path id="Trazado_102950" data-name="Trazado 102950" d="M243.643,614.986c-.016.03-.031.061-.045.093L224.869,655.46a1.988,1.988,0,1,0,3.608,1.673l18.73-40.381a1.989,1.989,0,0,0-3.564-1.765Z" transform="translate(-224.683 -613.922)" fill="url(#linear-gradient-31)"/>
        </g>
      </g>
      <g id="Grupo_54949" data-name="Grupo 54949" transform="translate(169.231 58.854)">
        <g id="Grupo_54944" data-name="Grupo 54944" transform="translate(75.351 130.86)">
          <rect id="Rectángulo_5330" data-name="Rectángulo 5330" width="4.698" height="50.808" transform="translate(22.706 11.384)" fill="#6481c0"/>
          <path id="Trazado_102951" data-name="Trazado 102951" d="M377.778,750.172H336.629a3.059,3.059,0,0,1,3.059-3.059H374.72a3.059,3.059,0,0,1,3.058,3.059Z" transform="translate(-332.148 -687)" fill="#6481c0"/>
          <rect id="Rectángulo_5331" data-name="Rectángulo 5331" width="51.737" height="14.673" rx="5.023" fill="#6481c0"/>
        </g>
        <g id="Grupo_54945" data-name="Grupo 54945" transform="translate(5.046 98.825)">
          <path id="Trazado_102952" data-name="Trazado 102952" d="M322.7,664.987a40.9,40.9,0,0,0-14.831,6.329,3.916,3.916,0,0,0-1.727,3.74c.94,7.445,4.8,31.542,17.548,55.077a5.925,5.925,0,0,1,.568,4.066l-2.214,10.3-4.106,3.85h10.575l7.041-19.055-3.01-.952a5.7,5.7,0,0,1-3.978-5.333l-.353-20.441a23.259,23.259,0,0,0-5.584-15.39l16.889-.821Z" transform="translate(-262.021 -655.445)" fill="url(#linear-gradient-32)"/>
          <path id="Trazado_102953" data-name="Trazado 102953" d="M313.763,749.842c-.964,1.26,10.365,2.923,16.089.166,0,0,7.934-13.8,7.934-20.911,0,0-.63-1.449-5.289-1.12,0,0-2.663,16.345-5.477,18.175s-7.871.186-7.871.186S315.185,747.982,313.763,749.842Z" transform="translate(-261.977 -655.077)" fill="url(#linear-gradient-33)"/>
          <path id="Trazado_102954" data-name="Trazado 102954" d="M337.606,687.464c-.09-.155-18.184-2.176-18.184-2.176a41.814,41.814,0,0,1-1.258,13.075c-1.85,7.573-28.416,40.384-28.416,40.384l2.786,8.829a44.8,44.8,0,0,1-25.42,1.53l17.262-10.359s16.156-55.055,26.052-64.878l18.136-6.274Z" transform="translate(-262.249 -655.429)" fill="url(#linear-gradient-34)"/>
          <path id="Trazado_102955" data-name="Trazado 102955" d="M377.931,655.5s10.426,15.5,11.28,22.578-2.856,9.947-13.794,10.42-40.138.467-40.138.467l-24.922-21.3s18.162-6.482,22.884-8.313S377.931,655.5,377.931,655.5Z" transform="translate(-261.996 -655.5)" fill="url(#linear-gradient-35)"/>
          <path id="Trazado_102956" data-name="Trazado 102956" d="M291.51,744.157s3,2.9.974,6.137c0,0-23.756,4.21-30.206,2.3,0,0,1.34-3.057,8.6-6.537l-.535.411a.868.868,0,0,0,.572,1.557C275.7,747.752,285.606,746.876,291.51,744.157Z" transform="translate(-262.277 -654.982)" fill="url(#linear-gradient-36)"/>
        </g>
        <g id="Grupo_54947" data-name="Grupo 54947" transform="translate(56.563)">
          <path id="Trazado_102957" data-name="Trazado 102957" d="M332.689,557.742C354,554.12,364.031,571.5,363.3,575.151a.667.667,0,0,0,.836.765c2.447-.658,7.852-1.489,11.2,2.71,2.957,3.707.747,7.2-1.055,9.124a.672.672,0,0,0,.561,1.137c4.5-.567,14.272-.7,15.871,8.452,1.491,8.538-4.452,10.945-7.976,11.624a.669.669,0,0,0-.223,1.224c1.758,1.115,3.8,3.42,2.972,7.968-1.289,7.13-15.268,6.547-16.9,6.453a.662.662,0,0,1-.291-.086l-22.39-12.77a.673.673,0,0,1-.329-.47l-4.52-26.1a.672.672,0,0,1,.178-.582l-14.6-20.6C321.338,563.22,332.438,557.785,332.689,557.742Z" transform="translate(-313.427 -557.248)" fill="url(#linear-gradient-37)"/>
          <path id="Trazado_102958" data-name="Trazado 102958" d="M349.636,653.786s-12.139-11.56-18.115-19.216a16.243,16.243,0,0,1-2.75-14.62c2.728-9.191,7.576-18.711,8.019-20.192.677-2.271,14.289-2.177,14.289-2.177s26.784,17.383,37.308,46.83l-11.82,3.679s-6.994-11.733-13.9-19.192c0,0,11.956,15.795,12.378,22.261Z" transform="translate(-313.41 -557.013)" fill="#7a2379"/>
          <path id="Trazado_102959" data-name="Trazado 102959" d="M335.1,587.164c.142.472,3.694,12.25,3.973,12.495s7.791.648,11.328-1.769l-8.773-17.159Z" transform="translate(-313.369 -557.111)" fill="url(#linear-gradient-38)"/>
          <g id="Grupo_54946" data-name="Grupo 54946" transform="translate(0 2.123)">
            <path id="Trazado_102960" data-name="Trazado 102960" d="M320.945,572.107s-1.718,6.746,3.033,15.821,10.128,9.065,13.067,6.161,6.565-7.833,5.7-16.607S323.424,563.524,320.945,572.107Z" transform="translate(-313.453 -559.31)" fill="url(#linear-gradient-39)"/>
            <path id="Trazado_102961" data-name="Trazado 102961" d="M336.219,578.007s-7.881-12.048-15.272-2.566l-.134,3.449s-8.655-1.028-7.14-8.964,9-12.9,18.629-9.46,15.154,6.963,15.776,13.867-4.871,5.389-4.871,5.389-1.791-4.861-4.338-5.366-1.886,3.286-1.886,3.286Z" transform="translate(-313.495 -559.359)" fill="url(#linear-gradient-40)"/>
            <path id="Trazado_102962" data-name="Trazado 102962" d="M338.942,579.736s-4.088-6.17.1-7.09,3.539,6.012,3.086,8.576Z" transform="translate(-313.357 -559.282)" fill="url(#linear-gradient-41)"/>
          </g>
          <path id="Trazado_102963" data-name="Trazado 102963" d="M324.924,654.372l8.919-8.6,12.339,5.212s12.281,1.9,19.31,0l7.029-1.9,15.885-4.945,2.494,7.05a4.244,4.244,0,0,1-1.551,4.877,28.088,28.088,0,0,1-4.011,2.5c-2.092.914-51.566-.634-51.566-.634Z" transform="translate(-313.428 -556.741)" fill="url(#linear-gradient-42)"/>
        </g>
        <g id="Grupo_54948" data-name="Grupo 54948" transform="translate(0 54.709)">
          <path id="Trazado_102964" data-name="Trazado 102964" d="M358.794,658.369c-.039,0-.078,0-.119,0l-51.737-.056a2.316,2.316,0,0,1,.005-4.632l51.737.056a2.316,2.316,0,0,1,.114,4.629Z" transform="translate(-256.984 -611.395)" fill="url(#linear-gradient-43)"/>
          <path id="Trazado_102965" data-name="Trazado 102965" d="M260.7,611.64h43.088a8.211,8.211,0,0,1,7.427,4.709l19.92,42.238H277.593a4.991,4.991,0,0,1-4.642-3.157L257.5,616.345A3.441,3.441,0,0,1,260.7,611.64Z" transform="translate(-257.26 -611.64)" fill="url(#linear-gradient-44)"/>
          <path id="Trazado_102966" data-name="Trazado 102966" d="M290.9,633.2c.933,2.9.244,5.718-1.541,6.292s-3.988-1.312-4.922-4.212-.244-5.718,1.541-6.293S289.97,630.3,290.9,633.2Z" transform="translate(-257.104 -611.539)" fill="#6481c0"/>
        </g>
      </g>
      <g id="Grupo_54953" data-name="Grupo 54953" transform="translate(270.451 5.892)">
        <g id="Grupo_54950" data-name="Grupo 54950" transform="translate(31.606 119.713)">
          <path id="Trazado_102967" data-name="Trazado 102967" d="M417.285,743.8a62.876,62.876,0,0,1,.757,6.594,2.84,2.84,0,0,1-2.56,3c-5.3.514-17.35,1.461-25.046.351a1.292,1.292,0,0,1-.71-2.222c3.174-2.957,10.839-8.708,23.454-9.966Z" transform="translate(-389.315 -622.924)" fill="url(#linear-gradient-45)"/>
          <path id="Trazado_102968" data-name="Trazado 102968" d="M419.793,737.046l-2.677,6.563a2.186,2.186,0,0,1-2.246,1.357,11.888,11.888,0,0,1-2.187-.423,2.874,2.874,0,0,1-1.911-3.574l2.021-6.759Z" transform="translate(-389.191 -622.966)" fill="url(#linear-gradient-46)"/>
          <path id="Trazado_102969" data-name="Trazado 102969" d="M465.3,748.984s-5.362,4.486-7.451,10.239a2.446,2.446,0,0,0,2.324,3.25H471.2a2.6,2.6,0,0,0,2.571-3.043C473.07,755.458,471.043,749,465.3,748.984Z" transform="translate(-388.916 -622.88)" fill="url(#linear-gradient-47)"/>
          <path id="Trazado_102970" data-name="Trazado 102970" d="M471.9,743.184s-1.083,4.794-1.916,7.961a1.012,1.012,0,0,1-1.324.691,9.221,9.221,0,0,0-4.016-.728.782.782,0,0,1-.861-.78l-.1-7.962Z" transform="translate(-388.881 -622.919)" fill="url(#linear-gradient-48)"/>
          <path id="Trazado_102971" data-name="Trazado 102971" d="M443.694,636.015l-32.612,99.49s6.255,4.1,9.236,3.926l38.735-79.956s6.778,49.266,3.494,84.635l11.094.847s18.041-90.387,4.376-121.345Z" transform="translate(-389.188 -623.612)" fill="url(#linear-gradient-49)"/>
          <path id="Trazado_102972" data-name="Trazado 102972" d="M458.575,658.474l.039,0a.316.316,0,0,0,.274-.353l-1.265-10.045a.316.316,0,1,0-.627.079l1.265,10.044A.317.317,0,0,0,458.575,658.474Z" transform="translate(-388.92 -623.471)" fill="url(#linear-gradient-50)"/>
        </g>
        <path id="Trazado_102973" data-name="Trazado 102973" d="M437.61,548.906s26.421,2.346,22.684,21.172c0,0,14.606,27.485,21.433,59.862a1.9,1.9,0,0,1-1.544,2.263l-44,7.534A2.368,2.368,0,0,1,433.489,638l-10.513-40.632-4.1,18.892-13.018-3.393,10.959-55.51S418.349,549.254,437.61,548.906Z" transform="translate(-357.613 -504.335)" fill="#334794"/>
        <path id="Trazado_102974" data-name="Trazado 102974" d="M422.677,595.378a.343.343,0,0,0,.07-.007.329.329,0,0,0,.25-.39l-3.668-16.841a.327.327,0,0,0-.64.139l3.667,16.842A.328.328,0,0,0,422.677,595.378Z" transform="translate(-357.538 -504.166)" fill="#6481c0"/>
        <path id="Trazado_102975" data-name="Trazado 102975" d="M425.348,645.269a6.278,6.278,0,0,1,4.543-.591l3.061.761a1.109,1.109,0,0,0,1.371-.952l3.167-28.2c3.962,1.881,9.676,1.657,11.561,1.519l-7.291,33.243H416.244Z" transform="translate(-357.552 -503.942)" fill="url(#linear-gradient-51)"/>
        <path id="Trazado_102976" data-name="Trazado 102976" d="M357.893,584.4l.77-2.563a5.073,5.073,0,0,1,2.964-3.243l13.948-5.609s.211-1.788-2.947-3-2.419-4.753-2.419-4.753,4.314,1.968,10.63,5.09a14.784,14.784,0,0,1,6.713,7.308l31.607,38.533-3.711,2.549a9.907,9.907,0,0,1-14.364-3.524L383.961,582.35A63.8,63.8,0,0,1,357.893,584.4Z" transform="translate(-357.893 -504.24)" fill="url(#linear-gradient-52)"/>
        <g id="Grupo_54952" data-name="Grupo 54952" transform="translate(49.464)">
          <path id="Trazado_102977" data-name="Trazado 102977" d="M428.965,531.036l8.126,22.744s-7.2,5.626-12.447,3.724l-4.095-13.038S423.676,528.532,428.965,531.036Z" transform="translate(-406.991 -504.441)" fill="url(#linear-gradient-53)"/>
          <g id="Grupo_54951" data-name="Grupo 54951">
            <path id="Trazado_102978" data-name="Trazado 102978" d="M416.138,515.236c-.216.308-6.842,24.315-6.842,24.315l13.788,3.492,9.66-21.822S419.771,510.081,416.138,515.236Z" transform="translate(-407.057 -504.54)" fill="url(#linear-gradient-54)"/>
            <path id="Trazado_102979" data-name="Trazado 102979" d="M427.568,524.594l-4.185,11.885a1.754,1.754,0,0,1-.218.425c-.569.81-2.73,3.45-5.3,1.075-2.329-2.156-4.487-4.088-6.479-4.437a1.759,1.759,0,0,0-2,1.264,76.165,76.165,0,0,0-2.309,11.582,1.756,1.756,0,0,0,1.429,1.891,56.733,56.733,0,0,0,13.168,1.084,1.76,1.76,0,0,0,1.483-1.022c1.311-2.872,5.328-11.582,6.824-13.836,1.4-2.116,4.847-2.059,6.292-1.932a1.73,1.73,0,0,0,1.3-.425c1.263-1.108,3.665-3.938.281-7.319a1.762,1.762,0,0,1,.038-2.538c1.451-1.367,3-3.791.581-6.793-2.462-3.052-5.709-2.563-7.7-1.836a1.762,1.762,0,0,1-2.12-.781,1.391,1.391,0,0,0-1.436-.671,1.734,1.734,0,0,1-1.851-1.776,5.258,5.258,0,0,0-4.064-5.482c-6.023-1.869-9.774,3.952-10.143,8.293s6.277,6,10.184,5.7c2.97-.224,5.178,2.718,6.066,4.142A1.741,1.741,0,0,1,427.568,524.594Z" transform="translate(-407.07 -504.594)" fill="url(#linear-gradient-55)"/>
            <path id="Trazado_102980" data-name="Trazado 102980" d="M428.291,538.666s.967-7.537,4.1-7.909,6.188,2.2,3.074,6.435C431.594,542.457,428.291,538.666,428.291,538.666Z" transform="translate(-406.946 -504.441)" fill="url(#linear-gradient-56)"/>
          </g>
        </g>
        <path id="Trazado_102981" data-name="Trazado 102981" d="M446.375,618.484a31.369,31.369,0,0,0,3.23-.153l.234-.026,9.621-44.855a.328.328,0,1,0-.641-.138L449.3,617.7c-1.431.126-9.078.634-13.113-2.226l8.333-38.971-1.739-3.278a.328.328,0,1,0-.579.307l1.628,3.068-8.373,39.15.167.126C438.54,618.068,443.237,618.484,446.375,618.484Z" transform="translate(-357.44 -504.194)" fill="#6481c0"/>
      </g>
      <g id="Grupo_54954" data-name="Grupo 54954" transform="translate(69.285 164.079)">
        <path id="Trazado_102982" data-name="Trazado 102982" d="M159.571,754.726a1.546,1.546,0,0,1-.661-.15,1.9,1.9,0,0,1-.878-2.4l35.156-89.2a1.628,1.628,0,0,1,2.2-.958,1.9,1.9,0,0,1,.877,2.4l-35.156,89.2A1.68,1.68,0,0,1,159.571,754.726Z" transform="translate(-157.895 -661.862)" fill="#6481c0"/>
        <path id="Trazado_102983" data-name="Trazado 102983" d="M199.151,754.726a1.678,1.678,0,0,1-1.541-1.107l-35.157-89.2a1.9,1.9,0,0,1,.878-2.4,1.626,1.626,0,0,1,2.2.958l35.157,89.2a1.9,1.9,0,0,1-.878,2.4A1.546,1.546,0,0,1,199.151,754.726Z" transform="translate(-157.869 -661.862)" fill="#6481c0"/>
        <path id="Trazado_102984" data-name="Trazado 102984" d="M396.783,754.726a1.546,1.546,0,0,1-.661-.15,1.9,1.9,0,0,1-.878-2.4l35.156-89.2a1.628,1.628,0,0,1,2.2-.958,1.9,1.9,0,0,1,.877,2.4l-35.156,89.2A1.68,1.68,0,0,1,396.783,754.726Z" transform="translate(-156.51 -661.862)" fill="#6481c0"/>
        <path id="Trazado_102985" data-name="Trazado 102985" d="M436.362,754.726a1.677,1.677,0,0,1-1.54-1.107l-35.157-89.2a1.9,1.9,0,0,1,.878-2.4,1.626,1.626,0,0,1,2.2.958l35.156,89.2a1.9,1.9,0,0,1-.877,2.4A1.547,1.547,0,0,1,436.362,754.726Z" transform="translate(-156.485 -661.862)" fill="#6481c0"/>
      </g>
      <g id="Grupo_54955" data-name="Grupo 54955" transform="translate(302.904 152.443)">
        <path id="Trazado_102986" data-name="Trazado 102986" d="M391.7,656.73H442.62v-5.256H391.7C392.791,651.475,392.791,656.73,391.7,656.73Z" transform="translate(-390.149 -650.287)" fill="#adc4e7"/>
        <path id="Trazado_102987" data-name="Trazado 102987" d="M442.349,656.737a.282.282,0,0,0,.281-.282v-4.692a.282.282,0,0,0-.281-.282h-51.91a.281.281,0,0,1-.281-.281v-.627a.282.282,0,0,1,.281-.281h55.107a2.2,2.2,0,0,1,2.2,2.2v3.36a2.073,2.073,0,0,1-2.073,2.073H390.439a.282.282,0,0,1-.281-.282v-.626a.281.281,0,0,1,.281-.281Z" transform="translate(-390.158 -650.294)" fill="url(#linear-gradient-57)"/>
      </g>
      <path id="Trazado_102988" data-name="Trazado 102988" d="M451.471,660.235a1.547,1.547,0,0,0-.635-1.654,3.781,3.781,0,0,0-2.328-.728h-305.1a4.126,4.126,0,0,0-2.925,1.062,1.66,1.66,0,0,0-.227,2.208l3.306,4.747a5.157,5.157,0,0,0,4.2,1.782h298.65c1.68,0,3.123-.79,3.442-1.883Z" transform="translate(-88.715 -497.807)" fill="#6481c0"/>
    </g>
    <g id="Grupo_54959" data-name="Grupo 54959" transform="translate(291.972 432.765)">
      <g id="Grupo_54957" data-name="Grupo 54957" transform="translate(31.752 12.341)">
        <path id="Trazado_102989" data-name="Trazado 102989" d="M358.163,516.16a2.425,2.425,0,0,1-2.179-1.364L353.654,510a29.592,29.592,0,0,1-7.217-2.016l-4.48,2.9a2.422,2.422,0,0,1-2.811-.13l-6-4.705a2.422,2.422,0,0,1-.8-2.7l1.741-5.038a29.52,29.52,0,0,1-3.682-6.525l-5.211-1.118a2.426,2.426,0,0,1-1.9-2.077l-.918-7.575a2.423,2.423,0,0,1,1.347-2.471l4.792-2.332A29.559,29.559,0,0,1,330.533,469l-2.9-4.479a2.426,2.426,0,0,1,.129-2.81l4.706-6.006a2.424,2.424,0,0,1,2.7-.8l5.041,1.742a29.541,29.541,0,0,1,6.526-3.682l1.117-5.211a2.428,2.428,0,0,1,2.076-1.9l7.575-.918a2.417,2.417,0,0,1,2.469,1.339l2.335,4.8a29.582,29.582,0,0,1,7.216,2.016L374,450.2a2.428,2.428,0,0,1,2.807.125l6.008,4.71a2.424,2.424,0,0,1,.8,2.695l-1.743,5.045a29.513,29.513,0,0,1,3.681,6.525l5.212,1.118a2.426,2.426,0,0,1,1.9,2.077l.918,7.575a2.422,2.422,0,0,1-1.346,2.471l-4.793,2.332a29.625,29.625,0,0,1-2.015,7.216l2.9,4.479a2.428,2.428,0,0,1-.128,2.81l-4.707,6.006a2.425,2.425,0,0,1-2.7.8l-5.044-1.743a29.608,29.608,0,0,1-6.526,3.682l-1.117,5.211a2.427,2.427,0,0,1-2.076,1.9l-7.577.918A2.387,2.387,0,0,1,358.163,516.16Zm-12.047-12.491.951.442a25.765,25.765,0,0,0,8.054,2.249l1.043.115,2.81,5.777,5.625-.682,1.347-6.28.985-.36a25.82,25.82,0,0,0,7.283-4.109l.817-.657,6.075,2.1,3.5-4.459-3.49-5.4.442-.952A25.755,25.755,0,0,0,383.8,483.4l.116-1.042,5.776-2.81-.682-5.624-6.28-1.348-.36-.985a25.822,25.822,0,0,0-4.109-7.283l-.656-.818,2.1-6.075-4.459-3.494-5.4,3.49-.953-.442a25.779,25.779,0,0,0-8.053-2.25l-1.042-.115-2.81-5.777-5.624.682-1.348,6.28-.985.361a25.779,25.779,0,0,0-7.282,4.109l-.818.657-6.075-2.1-3.5,4.459,3.49,5.4-.442.952a25.746,25.746,0,0,0-2.249,8.054l-.116,1.042-5.776,2.809.682,5.625,6.279,1.347.36.986a25.8,25.8,0,0,0,4.11,7.282l.657.819-2.1,6.074,4.459,3.494Zm-6.221,4.022,0,0Zm-3.954-3.1v0Zm-.456-1.531,0,0Zm-.02-45.014,0,0Zm22.34,42.722a20.313,20.313,0,1,1,20.2-22.759,20.368,20.368,0,0,1,.063,4.323,1.9,1.9,0,1,1-3.784-.349,16.638,16.638,0,0,0-.052-3.515,16.5,16.5,0,1,0-6.269,15.034,1.9,1.9,0,1,1,2.333,3,20.284,20.284,0,0,1-10.008,4.115A20.708,20.708,0,0,1,357.8,500.765Z" transform="translate(-322.361 -444.92)" fill="#6481c0"/>
        <path id="Trazado_102990" data-name="Trazado 102990" d="M357.822,489.064a8.678,8.678,0,1,1,8.1-11.8h0a8.686,8.686,0,0,1-8.1,11.8Zm0-13.557a4.876,4.876,0,1,0,4.546,3.123h0a4.884,4.884,0,0,0-4.546-3.123Z" transform="translate(-322.205 -444.763)" fill="#6481c0"/>
      </g>
      <g id="Grupo_54958" data-name="Grupo 54958">
        <path id="Trazado_102991" data-name="Trazado 102991" d="M303.9,466.906a1.673,1.673,0,0,1-.606-.114l-3.422-1.327a1.679,1.679,0,0,1-1.069-1.622l.086-2.3a14.7,14.7,0,0,1-2.309-2.2l-2.287.191a1.669,1.669,0,0,1-1.673-.989l-1.483-3.364a1.673,1.673,0,0,1,.4-1.907l1.683-1.559a14.665,14.665,0,0,1-.071-3.193l-1.755-1.484a1.681,1.681,0,0,1-.48-1.888l1.327-3.42a1.7,1.7,0,0,1,1.628-1.069l2.3.087a14.693,14.693,0,0,1,2.2-2.308l-.192-2.288a1.681,1.681,0,0,1,1-1.675l3.354-1.481a1.678,1.678,0,0,1,1.911.4l1.557,1.679a14.644,14.644,0,0,1,3.191-.071l1.484-1.754a1.68,1.68,0,0,1,1.889-.48l3.42,1.326a1.676,1.676,0,0,1,1.069,1.622l-.086,2.3a14.742,14.742,0,0,1,2.308,2.2l2.285-.191a1.677,1.677,0,0,1,1.68,1l1.478,3.349a1.674,1.674,0,0,1-.389,1.9l-1.689,1.566a14.6,14.6,0,0,1,.07,3.192l1.755,1.485a1.678,1.678,0,0,1,.48,1.889l-1.326,3.418a1.685,1.685,0,0,1-1.622,1.07l-2.3-.087a14.652,14.652,0,0,1-2.2,2.308l.191,2.289a1.675,1.675,0,0,1-.991,1.672l-3.361,1.483a1.674,1.674,0,0,1-1.911-.4l-1.557-1.679a14.724,14.724,0,0,1-3.192.071l-1.485,1.755A1.672,1.672,0,0,1,303.9,466.906Zm-.9-2.436-.005.005Zm10.495-.245.008.008Zm-1.325-.269-.005,0Zm-10.492-.846,1.861.722,1.943-2.3.779.111a11.836,11.836,0,0,0,3.855-.086l.773-.145,2.044,2.206,1.826-.8-.249-3,.628-.474a11.9,11.9,0,0,0,2.664-2.789l.444-.648,3.006.114.722-1.861-2.3-1.943.109-.78a11.857,11.857,0,0,0-.085-3.854l-.145-.773,2.206-2.044-.806-1.827-3,.25-.474-.629A11.871,11.871,0,0,0,314.7,439.9l-.649-.445.115-3.006-1.862-.722-1.943,2.3-.779-.11a11.913,11.913,0,0,0-3.854.086l-.773.145-2.044-2.206-1.827.806.25,3-.628.474A11.881,11.881,0,0,0,298.04,443l-.444.649-3.006-.115-.722,1.862,2.3,1.942-.11.78a11.914,11.914,0,0,0,.086,3.854l.145.773-2.206,2.044.806,1.827,3-.251.473.63a11.871,11.871,0,0,0,2.789,2.662l.65.445Zm13.15.534v0Zm-21.361-8.285,0,0Zm.273-1.338,0,.008Zm28.537-.643,0,0Zm-.179-7.85v0Zm-.3-2.66h0Zm-1.177-.7.006.013Zm1.053-.724h0Zm-21.352-4.369,0,0Zm14.621-.331.006,0Zm-3.419-1.327h0Zm-9.183-.1.008.008Zm5.51,24.716a10.277,10.277,0,1,1,10.07-12.35,1.426,1.426,0,0,1-2.793.573,7.424,7.424,0,1,0-1.216,5.788,1.425,1.425,0,0,1,2.327,1.645,10.306,10.306,0,0,1-8.389,4.344Z" transform="translate(-290.794 -432.65)" fill="#6481c0"/>
      </g>
    </g>
    <g id="Grupo_54971" data-name="Grupo 54971" transform="translate(102.763 450.722)">
      <g id="Grupo_54970" data-name="Grupo 54970" transform="translate(13.75)">
        <g id="Grupo_54964" data-name="Grupo 54964">
          <g id="Grupo_54960" data-name="Grupo 54960" transform="translate(19.703 1.972)">
            <path id="Trazado_102992" data-name="Trazado 102992" d="M138.971,455.475,135.942,503.9h18.15V456.827a3.163,3.163,0,0,0-2.144-2.991,21.993,21.993,0,0,0-10.5-1.133A3.008,3.008,0,0,0,138.971,455.475Z" transform="translate(-135.942 -452.464)" fill="#6481c0"/>
          </g>
          <g id="Grupo_54962" data-name="Grupo 54962">
            <path id="Trazado_102993" data-name="Trazado 102993" d="M116.356,455.253l2.014,48.612h17.194l1.3-49.156a3,3,0,0,0-2.121-2.962c-5.591-1.678-11.145-1.843-16.632.664A2.992,2.992,0,0,0,116.356,455.253Z" transform="translate(-116.353 -450.503)" fill="#7ca1d6"/>
            <g id="Grupo_54961" data-name="Grupo 54961" transform="translate(3.316 4.386)">
              <path id="Trazado_102994" data-name="Trazado 102994" d="M120.94,488.087l.131,1.695a.945.945,0,0,0,1,.871l9.007-.524a.945.945,0,0,0,.887-.873l.089-1.171a.946.946,0,0,0-.943-1.016h-9.226A.945.945,0,0,0,120.94,488.087Z" transform="translate(-119.643 -454.676)" fill="#adc4e7"/>
              <path id="Trazado_102995" data-name="Trazado 102995" d="M121.309,492.115v.619a.84.84,0,0,0,.875.839l8.628-.36a.839.839,0,0,0,.8-.839v-.656a.839.839,0,0,0-.878-.839l-8.628.4A.84.84,0,0,0,121.309,492.115Z" transform="translate(-119.641 -454.654)" fill="#adc4e7"/>
              <path id="Trazado_102996" data-name="Trazado 102996" d="M133.136,455.421a1.655,1.655,0,0,0-1.3-.555l-10.52.485a1.855,1.855,0,0,0-1.668,1.971l.54,24.139a1.848,1.848,0,0,0,1.639,1.875l9.266.6a1.641,1.641,0,0,0,1.275-.5,2.012,2.012,0,0,0,.565-1.361l.715-25.22A2.044,2.044,0,0,0,133.136,455.421Z" transform="translate(-119.65 -454.864)" fill="#adc4e7"/>
            </g>
          </g>
          <g id="Grupo_54963" data-name="Grupo 54963" transform="translate(24.303 5.456)">
            <path id="Trazado_102997" data-name="Trazado 102997" d="M141.277,489.912l.112,1.695a.862.862,0,0,0,.851.871l7.681-.524a.881.881,0,0,0,.756-.873l.074-1.171a.9.9,0,0,0-.8-1.016h-7.867A.9.9,0,0,0,141.277,489.912Z" transform="translate(-140.51 -455.735)" fill="#7ca1d6"/>
            <path id="Trazado_102998" data-name="Trazado 102998" d="M141.592,493.94v.619a.779.779,0,0,0,.746.839l7.358-.36a.791.791,0,0,0,.686-.839v-.656a.778.778,0,0,0-.749-.839l-7.357.4A.793.793,0,0,0,141.592,493.94Z" transform="translate(-140.509 -455.713)" fill="#7ca1d6"/>
            <path id="Trazado_102999" data-name="Trazado 102999" d="M149.823,456.629l-5.993-.686a2.335,2.335,0,0,0-2.6,2.249l-.713,23.263a2.337,2.337,0,0,0,2.4,2.408l5.7-.156a2.337,2.337,0,0,0,2.27-2.231l1.008-22.421A2.336,2.336,0,0,0,149.823,456.629Z" transform="translate(-140.515 -455.928)" fill="#7ca1d6"/>
          </g>
        </g>
        <g id="Grupo_54969" data-name="Grupo 54969" transform="translate(39.467)">
          <g id="Grupo_54965" data-name="Grupo 54965" transform="translate(19.703 1.972)">
            <path id="Trazado_103000" data-name="Trazado 103000" d="M178.209,455.475,175.18,503.9h18.15V456.827a3.163,3.163,0,0,0-2.144-2.991,21.993,21.993,0,0,0-10.5-1.133A3.008,3.008,0,0,0,178.209,455.475Z" transform="translate(-175.18 -452.464)" fill="#6481c0"/>
          </g>
          <g id="Grupo_54967" data-name="Grupo 54967">
            <path id="Trazado_103001" data-name="Trazado 103001" d="M155.594,455.253l2.014,48.612H174.8l1.3-49.156a3,3,0,0,0-2.121-2.962c-5.591-1.678-11.145-1.843-16.632.664A2.994,2.994,0,0,0,155.594,455.253Z" transform="translate(-155.591 -450.503)" fill="#7ca1d6"/>
            <g id="Grupo_54966" data-name="Grupo 54966" transform="translate(3.316 4.386)">
              <path id="Trazado_103002" data-name="Trazado 103002" d="M160.178,488.087l.131,1.695a.945.945,0,0,0,1,.871l9.006-.524a.945.945,0,0,0,.887-.873l.089-1.171a.946.946,0,0,0-.942-1.016h-9.227A.945.945,0,0,0,160.178,488.087Z" transform="translate(-158.881 -454.676)" fill="#adc4e7"/>
              <path id="Trazado_103003" data-name="Trazado 103003" d="M160.547,492.115v.619a.84.84,0,0,0,.875.839l8.628-.36a.839.839,0,0,0,.8-.839v-.656a.839.839,0,0,0-.878-.839l-8.628.4A.84.84,0,0,0,160.547,492.115Z" transform="translate(-158.879 -454.654)" fill="#adc4e7"/>
              <path id="Trazado_103004" data-name="Trazado 103004" d="M172.374,455.421a1.654,1.654,0,0,0-1.3-.555l-10.521.485a1.855,1.855,0,0,0-1.668,1.971l.54,24.139a1.848,1.848,0,0,0,1.639,1.875l9.266.6a1.642,1.642,0,0,0,1.275-.5,2.012,2.012,0,0,0,.565-1.361l.715-25.22A2.043,2.043,0,0,0,172.374,455.421Z" transform="translate(-158.888 -454.864)" fill="#adc4e7"/>
            </g>
          </g>
          <g id="Grupo_54968" data-name="Grupo 54968" transform="translate(24.302 5.456)">
            <path id="Trazado_103005" data-name="Trazado 103005" d="M180.515,489.912l.113,1.695a.86.86,0,0,0,.85.871l7.681-.524a.881.881,0,0,0,.756-.873l.074-1.171a.9.9,0,0,0-.8-1.016h-7.867A.9.9,0,0,0,180.515,489.912Z" transform="translate(-179.748 -455.735)" fill="#7ca1d6"/>
            <path id="Trazado_103006" data-name="Trazado 103006" d="M180.831,493.94v.619a.778.778,0,0,0,.745.839l7.358-.36a.791.791,0,0,0,.686-.839v-.656a.778.778,0,0,0-.749-.839l-7.357.4A.792.792,0,0,0,180.831,493.94Z" transform="translate(-179.747 -455.713)" fill="#7ca1d6"/>
            <path id="Trazado_103007" data-name="Trazado 103007" d="M189.061,456.629l-5.993-.686a2.335,2.335,0,0,0-2.6,2.249l-.713,23.263a2.337,2.337,0,0,0,2.4,2.408l5.7-.156a2.337,2.337,0,0,0,2.27-2.231l1.008-22.421A2.336,2.336,0,0,0,189.061,456.629Z" transform="translate(-179.753 -455.928)" fill="#7ca1d6"/>
          </g>
        </g>
      </g>
      <rect id="Rectángulo_5332" data-name="Rectángulo 5332" width="106.364" height="7.236" rx="2.558" transform="translate(0 50.784)" fill="#6481c0"/>
    </g>
  </g>
</svg>
