<svg xmlns="http://www.w3.org/2000/svg" width="81.318" height="81.318" viewBox="0 0 81.318 81.318">
  <g id="Grupo_55007" data-name="Grupo 55007" transform="translate(-810 -1405.144)">
    <g id="Grupo_54919" data-name="Grupo 54919" transform="translate(517.318 -1402)">
      <g id="Grupo_54538" data-name="Grupo 54538" transform="translate(-1983.395 668.347)">
        <circle id="Elipse_4024" data-name="Elipse 4024" cx="40.659" cy="40.659" r="40.659" transform="translate(2276.077 2138.797)" fill="#ca195d"/>
        <path id="Trazado_102131" data-name="Trazado 102131" d="M2316.736,2138.8a40.659,40.659,0,0,0-40.659,40.659c0,1.124.058,2.234.147,3.335,9.091,10.656,27.667,17.963,49.123,17.963a84.648,84.648,0,0,0,28.518-4.732,40.655,40.655,0,0,0-37.129-57.225Z" fill="#ff0062"/>
      </g>
    </g>
    <g id="Grupo_54927" data-name="Grupo 54927" transform="translate(395.969 1128.297)">
      <path id="Trazado_102905" data-name="Trazado 102905" d="M478.11,305.4a8.3,8.3,0,0,1-1.126,1.85q-4.737,4.866-9.6,9.615c-.681.668-.739,1.064-.024,1.763q4.889,4.783,9.679,9.668a2.994,2.994,0,0,1-1.179,5.152,3.057,3.057,0,0,1-3.213-1q-5.2-5.225-10.418-10.428c-.7-.705-1.424-1.394-2.105-2.118a2.949,2.949,0,0,1-.019-4.249q6.4-6.474,12.877-12.875a2.762,2.762,0,0,1,3.292-.546C477.454,302.775,477.975,303.736,478.11,305.4Z" fill="#fff"/>
      <path id="Trazado_102906" data-name="Trazado 102906" d="M454.909,313.643a8.72,8.72,0,0,1-2.123-1.124q-6.423-6.309-12.746-12.721a2.983,2.983,0,0,1-.02-4.31,2.948,2.948,0,0,1,4.307.072c3.24,3.206,6.45,6.442,9.674,9.664.911.911.919.913,1.806.026,3.225-3.222,6.431-6.462,9.675-9.665a3,3,0,0,1,5.153,1.358,2.744,2.744,0,0,1-.756,2.748q-6.444,6.493-12.948,12.927A7.975,7.975,0,0,1,454.909,313.643Z" fill="#fff"/>
      <path id="Trazado_102907" data-name="Trazado 102907" d="M450.808,317.747a9.447,9.447,0,0,1-1.194,2.2c-4.18,4.262-8.411,8.475-12.644,12.685a2.982,2.982,0,0,1-4.311.072,3.027,3.027,0,0,1,.043-4.319c3.228-3.262,6.465-6.517,9.742-9.731.7-.682.694-1.087,0-1.77-3.255-3.19-6.458-6.433-9.678-9.659a2.97,2.97,0,0,1-.825-3.167,2.913,2.913,0,0,1,2.432-2.07A3.1,3.1,0,0,1,437.2,303.1q5.442,5.451,10.891,10.9a15.585,15.585,0,0,1,1.61,1.653A16.179,16.179,0,0,1,450.808,317.747Z" fill="#fff"/>
      <path id="Trazado_102908" data-name="Trazado 102908" d="M454.992,321.833a10.985,10.985,0,0,1,2.186,1.3q6.316,6.213,12.541,12.52a3.025,3.025,0,1,1-4.278,4.268c-3.237-3.21-6.469-6.425-9.656-9.684-.685-.7-1.08-.69-1.761.006-3.188,3.259-6.435,6.459-9.651,9.69a2.964,2.964,0,0,1-3.075.858,2.819,2.819,0,0,1-2.136-2.467,2.788,2.788,0,0,1,.781-2.47c4.252-4.283,8.5-8.568,12.8-12.8A9.7,9.7,0,0,1,454.992,321.833Z" fill="#fff"/>
    </g>
  </g>
</svg>
