<?xml version="1.0" encoding="utf-8"?>
<!-- Generator: Adobe Illustrator 25.2.3, SVG Export Plug-In . SVG Version: 6.00 Build 0)  -->
<svg version="1.1" id="Layer_1" xmlns="http://www.w3.org/2000/svg" xmlns:xlink="http://www.w3.org/1999/xlink" x="0px" y="0px"
	 viewBox="0 0 260 220" style="enable-background:new 0 0 260 220;" xml:space="preserve">
<style type="text/css">
	.st0{fill:#3E5E7A;}
	.st1{fill:#F4C0B2;}
	.st2{fill:#E2A797;}
	.st3{fill:#B50042;}
	.st4{fill:#1B8D9C;}
	.st5{fill:#F6F4F5;}
	.st6{fill:#DC0052;}
	.st7{fill:#2C4D68;}
</style>
<g id="Grupo_53838" transform="translate(22.148 -26.871)">
	<g id="Grupo_54534" transform="translate(0 0)">
		<g id="Grupo_53273" transform="translate(11 200.768)">
			<path id="Trazado_99166" class="st0" d="M96.6,11.1H48.5c-1.3,0-2.3-1-2.3-2.3s1-2.3,2.3-2.3h48.1c1.3,0,2.3,1,2.3,2.3
				S97.8,11.1,96.6,11.1L96.6,11.1z"/>
			<path id="Trazado_99167" class="st0" d="M108,11.1h-2.3c-1.3,0-2.3-1-2.3-2.3s1-2.3,2.3-2.3h2.3c1.3,0,2.3,1,2.3,2.3
				S109.3,11.1,108,11.1z"/>
		</g>
		<g id="Grupo_55005" transform="translate(-1062.956 611.384)">
			<g id="Grupo_53838-2">
				<g id="Grupo_54534-2">
					<path id="Trazado_99165" class="st1" d="M1217.1-489.8v-32.1h-9.2l-6-9c-7.7-11.6-20.7-18.5-34.6-18.5c0,0-18.2-0.8-24.2,1.7
						c-6.9,2.8-22.7,19.3-22.7,19.3c-2.5,2.6-2.4,6.7,0.1,9.2c0,0,0,0,0,0c2.5,2.4,6.5,2.4,9,0l5-5l13.7-3.5
						c6.9-0.4,5.3-1.3,18.7-1.3l31.7,32.2L1217.1-489.8z"/>
					<path id="Trazado_99168" class="st2" d="M1179.5-526.5c-4.1-3-10.2-4.6-16.6-4.6l-16.7-0.3l-11.4,6.9l-3.1,3.4
						c3.8,7.8,11.8-2.3,28.4-2.1l27.4,15.3v-10.5C1187.4-521.4,1182.7-524.1,1179.5-526.5z"/>
					<g id="Grupo_54929">
						<circle id="Elipse_4025" class="st3" cx="1149.4" cy="-469.7" r="38.5"/>
					</g>
					<path id="Trazado_99173" class="st1" d="M1219.4-489.8v-32.1h-25.2l-9.2-2.3h-22.3c-3.8,0-6.9,3-6.9,6.8c0,3.8,3,6.9,6.8,6.9
						c0,0,0.1,0,0.1,0h15.5l3.9,6.9l2.4,4.2c3.4,5.9,9.7,9.6,16.5,9.6L1219.4-489.8z"/>
					<path id="Trazado_99174" class="st4" d="M1217.1-531.1h32.1v45.8h-32.1L1217.1-531.1z"/>
					<path id="Trazado_99175" class="st5" d="M1233.2-492.1c-2.5,0-4.6-2.1-4.6-4.6v0c0-2.5,2-4.6,4.6-4.6c0,0,0,0,0,0
						c2.5,0,4.6,2.1,4.6,4.6v0C1237.8-494.2,1235.7-492.1,1233.2-492.1L1233.2-492.1z"/>
					<path id="Trazado_103109" class="st6" d="M1144.5-496.7c-13.2,0-25.4,6.7-32.5,17.8c-0.7,3-1.1,6.1-1.1,9.2
						c0,21.2,17.2,38.5,38.5,38.5c13.2,0,25.4-6.7,32.5-17.8c0.7-3,1.1-6.1,1.1-9.2C1183-479.5,1165.8-496.7,1144.5-496.7z"/>
				</g>
			</g>
			<path id="Trazado_103110" class="st7" d="M1107.3-433.4c-1-1-2.6-1-3.6,0l-1,1v-31.4h-5l0,31l-1-1c-1-1-2.6-1-3.6,0c0,0,0,0,0,0
				c-1,1-1,2.6,0,3.6c0,0,0,0,0,0l5.5,5.5c1,1,2.6,1,3.6,0l5.1-5.1C1108.3-430.9,1108.3-432.5,1107.3-433.4L1107.3-433.4z"/>
		</g>
	</g>
</g>
</svg>
