<svg xmlns="http://www.w3.org/2000/svg" width="393.907" height="242.195" viewBox="0 0 393.907 242.195">
  <g id="Grupo_55003" data-name="Grupo 55003" transform="translate(-205.046 520.665)">
    <g id="Grupo_54987" data-name="Grupo 54987">
      <g id="Grupo_54984" data-name="Grupo 54984">
        <path id="Trazado_103028" data-name="Trazado 103028" d="M263.674-368.094l1.644,1.335s4.5-1.612,5.512,3.731c0,0,.27,2.277-1.173,2.281s-.847-.249-2.89-.189-3.736-1.017-4.035-2.674l-.977-1.405Z" fill="#ef763d"/>
        <path id="Trazado_103029" data-name="Trazado 103029" d="M263.488-365.229a3.359,3.359,0,0,0,1.206-2.382s-15.186-12.433-16.726-13.446a187.311,187.311,0,0,1-17.461-16.649c-2.593-3-5.805-1.835-9.481-.781l-3.026.869c-3.654,1.048-4.6,6.159-1.606,8.643,8.444,6.994,22.492,14.862,25.121,16.515,6.525,4.1,19.3,8.983,19.3,8.983A8.1,8.1,0,0,0,263.488-365.229Z" fill="#002f59"/>
      </g>
      <path id="Trazado_103030" data-name="Trazado 103030" d="M280.819-288.842a11.447,11.447,0,0,0,9.332,1.3s4.553-1.037,5.552,1.234c0,0-6.983,3.547-8.75,4.517a21.134,21.134,0,0,0-3.7,2.778,1.832,1.832,0,0,1-2.652-.205c-.307-.378-.658-.827-1.044-1.349-1.076-1.46-3.585-6.173-3.585-6.173Z" fill="#0a2a4e"/>
      <path id="Trazado_103031" data-name="Trazado 103031" d="M282.982-290.245s-2.244,5.175-7.424,4.223c0,0-10.571-8.729-17.821-17.8a40.253,40.253,0,0,1-5.538-8.655c-4.809-11.132-17.786-27.735-26.037-36.15l20.643-7.468s6.613,13.3,15.41,29.639C268.556-314.681,276.029-301.332,282.982-290.245Z" fill="#00377c"/>
      <g id="Grupo_54985" data-name="Grupo 54985">
        <path id="Trazado_103032" data-name="Trazado 103032" d="M284.185-388.492a24.987,24.987,0,0,0,.12-3.8,1.422,1.422,0,0,1,.818-1.356l6.1-2.829a1.392,1.392,0,0,0,.722-1.738l-2.1-5.786a1.354,1.354,0,0,0-1.6-.852l-6.013,1.475a1.394,1.394,0,0,1-1.52-.63,24.76,24.76,0,0,0-5.106-5.955,1.4,1.4,0,0,1-.346-1.691l1.662-3.383a1.409,1.409,0,0,0-.51-1.811l-5.156-3.268a1.4,1.4,0,0,0-1.859.334l-3.618,4.754a24.814,24.814,0,0,0-3.43-.617,24.8,24.8,0,0,0-4.633-.069,1.377,1.377,0,0,1-1.36-.79l-2.281-4.917a1.426,1.426,0,0,0-1.781-.739l-5.682,2.067a1.444,1.444,0,0,0-.908,1.7l1.233,5.025a1.4,1.4,0,0,1-.594,1.508,24.754,24.754,0,0,0-4.418,3.639,1.418,1.418,0,0,1-1.647.286l-5.489-2.7a1.415,1.415,0,0,0-1.818.513l-3.254,5.134a1.419,1.419,0,0,0,.339,1.888l5.344,4.067a1.394,1.394,0,0,1,.5,1.47,24.809,24.809,0,0,0-.7,3.754q-.111,1.024-.137,2.036a1.452,1.452,0,0,1-.838,1.282l-5.855,2.718a1.381,1.381,0,0,0-.718,1.727l2.079,5.716a1.445,1.445,0,0,0,1.7.91l4.766-1.169a1.41,1.41,0,0,1,1.589.718,24.743,24.743,0,0,0,4.513,6.17,1.426,1.426,0,0,1,.278,1.639l-2.432,4.949a1.449,1.449,0,0,0,.525,1.863L245.789-362a1.4,1.4,0,0,0,1.862-.334l3.549-4.663a1.441,1.441,0,0,1,1.553-.506,24.775,24.775,0,0,0,4.28.849q1.187.129,2.358.143a1.408,1.408,0,0,1,1.26.816l2.315,4.989a1.441,1.441,0,0,0,1.8.747l5.691-2.07a1.418,1.418,0,0,0,.892-1.67l-.984-4.01a1.414,1.414,0,0,1,.716-1.59,24.759,24.759,0,0,0,7.592-6.14,1.4,1.4,0,0,1,1.7-.36l4.44,2.181a1.409,1.409,0,0,0,1.813-.51l3.252-5.131a1.428,1.428,0,0,0-.341-1.9l-5.127-3.9a1.411,1.411,0,0,1-.528-1.389Q284.071-387.454,284.185-388.492ZM264.9-378.778c-12.8,4.578-23.445-8.733-16.086-20.245a13.016,13.016,0,0,1,5.519-4.439c12.822-4.721,23.542,8.526,16.326,20.052A13.173,13.173,0,0,1,264.9-378.778Z" fill="#91c1ea"/>
      </g>
      <path id="Trazado_103033" data-name="Trazado 103033" d="M262.215-326.453l-4.478,22.634a40.253,40.253,0,0,1-5.538-8.655c-4.809-11.132-17.786-27.735-26.037-36.15l20.643-7.468S253.418-342.791,262.215-326.453Z" fill="#0a2a4e"/>
      <path id="Trazado_103034" data-name="Trazado 103034" d="M245.342-285.839s-.225,4.129,4.78,4.68c0,0,3.021.061,3.029,2.689H238.443a11.287,11.287,0,0,1-.525-3.331c-.079-1.743,1.69-6.3,1.69-6.3Z" fill="#0a2a4e"/>
      <path id="Trazado_103035" data-name="Trazado 103035" d="M240.034-356.092s9.2,10.105,15.035,28.311c3.176,9.9-5.822,34.809-7.576,43.462,0,0-6.036.512-10.163-1.083,0,0-.314-17.872,2.1-31.647,1.351-7.709-12.109-16.487-17.99-30.416-4-9.477.866-9.316,6.848-9.543Z" fill="#00377c"/>
      <path id="Trazado_103036" data-name="Trazado 103036" d="M229.418-401.176c-5.116,2.889-15.591.224-15.591.224s4.253-4.863,2.32-12.7l4.018,2.04,4.315,2.192a35.779,35.779,0,0,1,.473,3.867c.05.64.094,1.355.124,2.136A13.4,13.4,0,0,1,229.418-401.176Z" fill="#f5986b"/>
      <path id="Trazado_103037" data-name="Trazado 103037" d="M248.18-356.614c0,.9-1.036,1.329-1.256,1.373-2.064.377-7.826,2.619-13.017,3.133a41.623,41.623,0,0,1-12.887-.872c-.59-.119-1.976-.492-2.075-1.058-.123-.618-17.2-34.806-3.923-49.491.311-.345,2.931.276,5.327.844a9.828,9.828,0,0,0,6.055-.495L228.651-402c2.759,1.537,7.98,7,8.591,11.286.31,2.18,1.557,3.794,1.918,5.712q.2,1.063.41,2.077.408,1.988.84,3.784c.781,3.241,1.6,6.032,2.414,8.443.861,2.56,1.706,4.69,2.46,6.471.979,2.31,1.806,4.035,2.322,5.357A6.6,6.6,0,0,1,248.18-356.614Z" fill="#4d72b6"/>
      <path id="Trazado_103038" data-name="Trazado 103038" d="M247.606-358.867a67.083,67.083,0,0,1-32.448-33.158s19.582,7.223,24.412,9.1q.408,1.988.84,3.784c.781,3.241,1.6,6.032,2.414,8.443.861,2.56,1.706,4.69,2.46,6.471C246.263-361.914,247.09-360.189,247.606-358.867Z" fill="#2e5289"/>
      <g id="Grupo_54986" data-name="Grupo 54986">
        <path id="Trazado_103039" data-name="Trazado 103039" d="M261.707-365.447l2.083.764a4.454,4.454,0,0,1,6.767,1.847s.939,2.1-.547,2.55-.946.027-3.036.723-4.149.194-4.938-1.3L260.62-361.9Z" fill="#f5986b"/>
        <path id="Trazado_103040" data-name="Trazado 103040" d="M263.421-362.5c.77-2.009,1.122-2.919,1.122-2.919s-15.737-12.827-17.341-13.927c-1.092-.75-11.97-8.881-17.274-15.218a11.1,11.1,0,0,0-10.79-3.739l-3.3.693a4.913,4.913,0,0,0-2.191,8.538c8.715,7.471,23.414,16.136,26.155,17.939,6.8,4.474,21.852,10.744,21.852,10.744A3.872,3.872,0,0,0,263.421-362.5Z" fill="#4d72b6"/>
      </g>
      <path id="Trazado_103041" data-name="Trazado 103041" d="M224.953-405.548c-5.031.283-8.3-3.871-8.3-3.871a40.142,40.142,0,0,0,3.516-2.188l4.315,2.192A35.779,35.779,0,0,1,224.953-405.548Z" fill="#ef763d"/>
      <path id="Trazado_103042" data-name="Trazado 103042" d="M227.1-410.714s-7.624,5.472-10.958.671-6.563-7.326-1.836-11.022,6.954-2.529,8.457-1.2S228.994-412.26,227.1-410.714Z" fill="#f5986b"/>
      <path id="Trazado_103043" data-name="Trazado 103043" d="M223.565-426.6a12.261,12.261,0,0,0-.888-3.143s-.479,1.982-4.1,1.708-9.362.357-11.275,4.484a8.659,8.659,0,0,0-.327.809,9.575,9.575,0,0,1-.43-2.286,7.052,7.052,0,0,0,0,4h0c-.011.064-.019.129-.029.194a8.068,8.068,0,0,0-1.47,2.777,2.512,2.512,0,0,1,1.353-1.2c-.016,3.211,1.287,6.351,3.573,7.286,3.343,1.366,3.316.324,6.677,2.554,0,0,.9-1.119.287-1.871s-2.938-1.845-1.64-2.939,1.777.137,2.255-.614-1.913-2.939,1.162-4.989S223.838-424.752,223.565-426.6Z" fill="#0a2a4e"/>
    </g>
    <g id="Grupo_54989" data-name="Grupo 54989">
      <path id="Trazado_103044" data-name="Trazado 103044" d="M578.961-285.2s.411,6.624,1.692,6.719c.171.013,6.5.013,6.5.013h8.089a2.666,2.666,0,0,0-2.424-2.4c-2.362-.412-6.315-2.072-7.745-5.193C583.567-289.352,578.961-285.2,578.961-285.2Z" fill="#0b2949"/>
      <path id="Trazado_103045" data-name="Trazado 103045" d="M546.96-339.645a55.529,55.529,0,0,0,3.863,6.163c4.25,5.983,8.876,10.916,9.682,15.579a23.058,23.058,0,0,0,.747,2.985c.337,1.068.753,2.191,1.233,3.352a106.518,106.518,0,0,0,7.193,13.713c4.655,7.692,9.032,14.111,9.032,14.111l8.027-.382c-.321-.9-3.822-11.518-8.506-24.5-1.9-5.269-3.924-10.873-5.875-16.278q-.39-1.083-.777-2.153c-.6-1.654-1.184-3.282-1.757-4.867-4.4-12.188-7.9-21.892-7.9-21.892s-17.577-7.426-19.4-2.614C541.014-352.458,542.24-348.571,546.96-339.645Z" fill="#263568"/>
      <path id="Trazado_103046" data-name="Trazado 103046" d="M561.726-292.381s-2.94,2.725-2.367,4.661,3.227,3.226,3.586,5.593,1.792,3.657,3.083,3.657h6.154s.95-1.665-1.345-2.167-3.16-3.283-3.016-5.864a46.216,46.216,0,0,0-.216-6.024l-4.876-1.147Z" fill="#0a2a4e"/>
      <path id="Trazado_103047" data-name="Trazado 103047" d="M564.325-354.725s18.5,30,18.5,32.388c0,5.28-13.975,35.678-13.975,35.678s-7.418-3.919-7.121-6.67c0,0,4.451-21.339,5.745-24.769s-23.376-16.353-24.669-31.966Z" fill="#334794"/>
      <path id="Trazado_103048" data-name="Trazado 103048" d="M573.393-370.153s3.814,2.169,4.882,2.169,5.26-.81,6.428-.213a13.677,13.677,0,0,1,3.68,3.783c.714,1.411-2.873.788-4.567-.414a1.069,1.069,0,0,0-.847-.174,8.392,8.392,0,0,1-3.583.2,63.774,63.774,0,0,0-7.422-.925Z" fill="#f2844d"/>
      <path id="Trazado_103049" data-name="Trazado 103049" d="M544.372-399.694s3.954,28.1,10.5,30.621c3.231,1.242,17.509,4.058,21.732,4.341,0,0,1.035-.839.783-4.256,0,0-14.959-5.492-17.084-8.479-3.163-4.445,1.963-18.159-2.006-22.334S547.646-405.77,544.372-399.694Z" fill="#b30044"/>
      <path id="Trazado_103050" data-name="Trazado 103050" d="M559.831-401.465c-5.286,1.367-14.048-3.53-14.048-3.53a12.973,12.973,0,0,0,4.663-7.31c.064-.254.121-.513.173-.779l2.715-.576,4.037,3.617a34.763,34.763,0,0,1-.6,4.084c-.088.45-.188.933-.3,1.448A12.446,12.446,0,0,1,559.831-401.465Z" fill="#f2844d"/>
      <path id="Trazado_103051" data-name="Trazado 103051" d="M540.186-379.556c.757,10.183-.238,25.669.621,28.351.741,2.314,9.186.939,12.557.166,1.248-.286,2.759-.694,4.32-1.177,4.354-1.348,9.1-3.274,9.607-4.7a1.077,1.077,0,0,0,.047-.164,1.3,1.3,0,0,0-.009-.6,10.163,10.163,0,0,1-.9-3.32c-.086-2.014-.074-4.385-.149-6.936,0-.287-.008-.6-.039-.886l0-.1,0-.163c-.074-2.844-.222-5.834-.4-8.8-.109-1.862-.236-3.706-.382-5.473a73.233,73.233,0,0,0-1.569-11.182,17.949,17.949,0,0,0-5.769-8.9l-1.606-1.378a9.29,9.29,0,0,1-5.83-.777c-2.075-.985-2.792-1.691-3.153-1.425C542.739-403.334,539.293-392,540.186-379.556Z" fill="#dc0052"/>
      <path id="Trazado_103052" data-name="Trazado 103052" d="M557.684-352.216c4.354-1.348,9.1-3.274,9.607-4.7a1.077,1.077,0,0,0,.047-.164c0-.2-.005-.4-.009-.6a10.163,10.163,0,0,1-.9-3.32c-.086-2.014-.074-4.385-.149-6.936,0-.287-.008-.6-.039-.886l0-.1,0-.163-17.6-22.425S536.8-366.878,557.684-352.216Z" fill="#b30044"/>
      <path id="Trazado_103053" data-name="Trazado 103053" d="M557.371-410.043a34.763,34.763,0,0,1-.6,4.084,10.71,10.71,0,0,1-6.328-6.346c.064-.254.121-.513.173-.779l2.715-.576Z" fill="#e97946"/>
      <path id="Trazado_103054" data-name="Trazado 103054" d="M557.9-407.766s-8.6-1.435-7.621-6.776.523-9.121,6.054-8.431,6.221,2.922,6.329,4.784S560.163-407.531,557.9-407.766Z" fill="#f2844d"/>
      <g id="Grupo_54988" data-name="Grupo 54988">
        <rect id="Rectángulo_5338" data-name="Rectángulo 5338" width="0.797" height="20.874" transform="matrix(-0.951, -0.309, 0.309, -0.951, 592.499, -361.828)" fill="#0b60ab"/>
        <rect id="Rectángulo_5339" data-name="Rectángulo 5339" width="21.905" height="1.311" transform="matrix(-1, -0.021, 0.021, -1, 592.501, -361.828)" fill="#0b60ab"/>
      </g>
      <path id="Trazado_103055" data-name="Trazado 103055" d="M571.04-361.249s7.036,1.855,9.675,1.66,4.833-1.45,5.165-2.105,1.03-1.817-.767-1.6-4.249.6-4.325.252,1.465-.313,1.465-.313.465-.677-.121-.7-2.3-.489-2.932-.171-1.222,1.49-1.686,1.441-5.888-2.443-5.888-2.443Z" fill="#f2844d"/>
      <path id="Trazado_103056" data-name="Trazado 103056" d="M546.117-398.54s.832,28.368,7.062,31.592c3.074,1.59,16.955,5.963,21.121,6.71,0,0,1.121-.721,1.248-4.144,0,0-14.263-7.108-16.046-10.31-2.654-4.767,3.953-17.832.469-22.419S550.041-404.218,546.117-398.54Z" fill="#dc0052"/>
      <path id="Trazado_103057" data-name="Trazado 103057" d="M550.446-412.3a4.071,4.071,0,0,1,1.032-2.882s-.394-1.837.333-2.14.878,1.242,1.211,1a7.425,7.425,0,0,0,2.453-3.088c.636-1.7,6.456.358,7.134.663s2.859-.815,3.283-1.723a12.738,12.738,0,0,1-1.757-1.7c-.545-.727-4.36-5.632-9.689-4.239s-6.057,3.936-5.754,6.116S548.264-413.037,550.446-412.3Z" fill="#00377c"/>
    </g>
    <g id="Grupo_54990" data-name="Grupo 54990">
      <path id="Trazado_103058" data-name="Trazado 103058" d="M541.935-350.748l-16.656-10.036a4.311,4.311,0,0,1-2.037-4.01q.255-3.087.255-6.238a72.369,72.369,0,0,0-.87-11.436,4.251,4.251,0,0,1,2.016-4.35l17.4-10.5a4.174,4.174,0,0,0,1.591-5.452l-8.19-16.677a4.128,4.128,0,0,0-5.092-2.058l-17.589,6.386a4.145,4.145,0,0,1-4.774-1.4,75.121,75.121,0,0,0-17.271-16.21,4.28,4.28,0,0,1-1.592-4.965l3.9-10.694a4.322,4.322,0,0,0-2.122-5.3l-16.571-8.1a3.783,3.783,0,0,0-1.04-.361,4.147,4.147,0,0,0-4.413,1.952l-7.511,12.434-1.824,3.034a74.335,74.335,0,0,0-10.482-.743,75.487,75.487,0,0,0-13.961,1.294,4.144,4.144,0,0,1-4.35-1.93l-8.444-14.025a4.3,4.3,0,0,0-5.58-1.634l-12.752,6.259-3.649,1.8a4.35,4.35,0,0,0-2.185,5.389l5.325,14.7a4.14,4.14,0,0,1-1.273,4.71,74.539,74.539,0,0,0-11.224,11.33,12.95,12.95,0,0,0-.849,1.04,2.287,2.287,0,0,1-.3.339,4.24,4.24,0,0,1-4.583,1.061l-17.377-6.3a3.158,3.158,0,0,0-.594-.169,4.313,4.313,0,0,0-4.689,2.291l-8.105,16.507a4.29,4.29,0,0,0,1.634,5.559L373.49-386.8a4.147,4.147,0,0,1,1.973,4.264,75.8,75.8,0,0,0-.87,11.5q0,3.119.255,6.174a4.37,4.37,0,0,1-2.1,4.1l-16.719,10.1a4.172,4.172,0,0,0-1.592,5.41l8.127,16.486a4.36,4.36,0,0,0,5.41,2.186l13.919-5.05A4.282,4.282,0,0,1,386.92-330a74.953,74.953,0,0,0,15.553,17.08,4.256,4.256,0,0,1,1.358,4.816l-5.686,15.658a4.4,4.4,0,0,0,2.185,5.432l16.444,8.084a4.207,4.207,0,0,0,5.473-1.613l.446-.721,8.72-14.449a4.3,4.3,0,0,1,4.477-2.016h.021a74.523,74.523,0,0,0,13.155,1.167c2.4,0,4.753-.127,7.108-.339a4.22,4.22,0,0,1,4.053,2.015l8.571,14.237a4.366,4.366,0,0,0,5.665,1.676l16.423-8.083a4.71,4.71,0,0,0,1.209-.892,4.349,4.349,0,0,0,.934-4.413l-4.286-11.733a4.345,4.345,0,0,1,.742-4.2,4.63,4.63,0,0,1,.892-.806,74.665,74.665,0,0,0,20.835-20.921,4.2,4.2,0,0,1,4.244-1.824,4.227,4.227,0,0,1,.7.191l14.068,5.113a4.274,4.274,0,0,0,5.283-2.122l.191-.382,7.914-16.082A4.352,4.352,0,0,0,541.935-350.748ZM410.45-382.468a49.984,49.984,0,0,1,3.353-8.678c2.758-5.538,9.569-12.391,15.128-15.128.594-.3,1.188-.573,1.782-.849,36.367-16.337,71.439,19.372,53.807,55.76-2.312,4.752-7.426,10.332-12.412,13.791a26.492,26.492,0,0,1-3.394,1.994,46.179,46.179,0,0,1-15.044,4.456C425.621-328,402.536-353.782,410.45-382.468Z" fill="#91c1ea"/>
    </g>
    <g id="Grupo_54991" data-name="Grupo 54991">
      <path id="Trazado_103059" data-name="Trazado 103059" d="M543.595-294.6l-3.717-2.24a.962.962,0,0,1-.455-.895q.057-.689.057-1.392a16.094,16.094,0,0,0-.194-2.552.947.947,0,0,1,.45-.971l3.883-2.344a.932.932,0,0,0,.355-1.217l-1.828-3.722a.92.92,0,0,0-1.137-.459l-3.925,1.425a.923.923,0,0,1-1.065-.313,16.783,16.783,0,0,0-3.855-3.617.955.955,0,0,1-.355-1.108l.871-2.387a.965.965,0,0,0-.473-1.184l-3.7-1.809a.82.82,0,0,0-.232-.08.926.926,0,0,0-.985.435l-1.676,2.775-.407.678a16.574,16.574,0,0,0-2.339-.166,16.782,16.782,0,0,0-3.116.289.925.925,0,0,1-.971-.431l-1.885-3.13a.958.958,0,0,0-1.245-.365l-2.846,1.4-.814.4a.97.97,0,0,0-.488,1.2l1.188,3.282a.923.923,0,0,1-.284,1.051,16.681,16.681,0,0,0-2.505,2.529,2.772,2.772,0,0,0-.189.232.53.53,0,0,1-.066.075.945.945,0,0,1-1.023.237l-3.878-1.406a.736.736,0,0,0-.133-.038.962.962,0,0,0-1.046.511l-1.809,3.684a.957.957,0,0,0,.364,1.241L506-302.641a.925.925,0,0,1,.441.952,16.89,16.89,0,0,0-.194,2.566c0,.464.018.923.057,1.378a.978.978,0,0,1-.469.914l-3.732,2.254a.931.931,0,0,0-.355,1.207l1.814,3.68a.972.972,0,0,0,1.207.487l3.107-1.127a.956.956,0,0,1,1.122.365,16.745,16.745,0,0,0,3.471,3.812.95.95,0,0,1,.3,1.075l-1.269,3.494a.983.983,0,0,0,.488,1.213l3.67,1.8a.938.938,0,0,0,1.221-.36l.1-.161,1.946-3.225a.961.961,0,0,1,1-.45h.005a16.588,16.588,0,0,0,2.936.261c.535,0,1.06-.029,1.586-.076a.94.94,0,0,1,.9.45l1.913,3.177a.975.975,0,0,0,1.265.374l3.665-1.8a1.05,1.05,0,0,0,.27-.2.968.968,0,0,0,.208-.984l-.956-2.619a.969.969,0,0,1,.165-.938,1.109,1.109,0,0,1,.2-.18,16.645,16.645,0,0,0,4.65-4.669.941.941,0,0,1,.948-.407,1.042,1.042,0,0,1,.156.043l3.139,1.141a.953.953,0,0,0,1.179-.474l.043-.085,1.766-3.589A.971.971,0,0,0,543.595-294.6Zm-29.345-7.079a11.144,11.144,0,0,1,.749-1.937,8.749,8.749,0,0,1,3.376-3.376c.133-.067.265-.128.4-.19a9.077,9.077,0,0,1,12.008,12.445,9.078,9.078,0,0,1-2.77,3.077,5.882,5.882,0,0,1-.757.446,10.307,10.307,0,0,1-3.358.994A8.99,8.99,0,0,1,514.25-301.675Z" fill="#7a2379"/>
    </g>
    <g id="Grupo_54992" data-name="Grupo 54992">
      <path id="Trazado_103060" data-name="Trazado 103060" d="M406.664-483.265l-6.3-2.922a1.54,1.54,0,0,1-.878-1.345q-.029-1.105-.149-2.224a25.8,25.8,0,0,0-.749-4.026,1.516,1.516,0,0,1,.548-1.621l5.772-4.4a1.489,1.489,0,0,0,.354-2l-3.549-5.605a1.472,1.472,0,0,0-1.886-.534l-6,2.943a1.479,1.479,0,0,1-1.748-.313,26.806,26.806,0,0,0-6.755-5.089,1.53,1.53,0,0,1-.756-1.7l.975-3.946a1.543,1.543,0,0,0-.958-1.8l-6.193-2.24a1.373,1.373,0,0,0-.383-.088,1.482,1.482,0,0,0-1.492.863l-2.187,4.7-.531,1.148a26.545,26.545,0,0,0-3.749.139,26.977,26.977,0,0,0-4.906,1,1.48,1.48,0,0,1-1.618-.518l-3.537-4.653a1.534,1.534,0,0,0-2.044-.365l-4.285,2.712-1.226.781a1.553,1.553,0,0,0-.569,2l2.457,5.014a1.478,1.478,0,0,1-.271,1.721,26.614,26.614,0,0,0-3.548,4.454,4.581,4.581,0,0,0-.261.4.824.824,0,0,1-.093.132,1.514,1.514,0,0,1-1.586.553l-6.41-1.568a1.048,1.048,0,0,0-.218-.037,1.539,1.539,0,0,0-1.576.994l-2.242,6.171a1.533,1.533,0,0,0,.794,1.91l6.571,3.044a1.48,1.48,0,0,1,.864,1.438,27.161,27.161,0,0,0,.134,4.116q.12,1.107.328,2.181a1.561,1.561,0,0,1-.588,1.535l-5.546,4.228a1.49,1.49,0,0,0-.357,1.982l3.52,5.539a1.556,1.556,0,0,0,2,.567l4.746-2.328a1.529,1.529,0,0,1,1.848.387,26.761,26.761,0,0,0,6.178,5.464,1.52,1.52,0,0,1,.667,1.657l-1.416,5.777a1.573,1.573,0,0,0,.985,1.844L365-452.955a1.5,1.5,0,0,0,1.881-.783l.13-.274,2.539-5.464a1.537,1.537,0,0,1,1.512-.888h.008a26.524,26.524,0,0,0,4.714-.092c.851-.092,1.682-.228,2.51-.394a1.506,1.506,0,0,1,1.516.56l3.59,4.723a1.559,1.559,0,0,0,2.076.377l5.518-3.5a1.68,1.68,0,0,0,.4-.363,1.553,1.553,0,0,0,.162-1.6l-1.973-4a1.548,1.548,0,0,1,.1-1.52,1.589,1.589,0,0,1,.285-.32,26.658,26.658,0,0,0,6.59-8.228,1.5,1.5,0,0,1,1.437-.811,1.538,1.538,0,0,1,.255.041l5.19,1.274a1.526,1.526,0,0,0,1.794-.957l.053-.143,2.19-6.013A1.553,1.553,0,0,0,406.664-483.265Zm-47.892-6.2a17.846,17.846,0,0,1,.856-3.209,14.015,14.015,0,0,1,4.788-5.952c.2-.128.4-.249.6-.37,12.279-7.2,26.1,4.127,21.245,17.722a14.541,14.541,0,0,1-3.876,5.373,9.436,9.436,0,0,1-1.128.838,16.49,16.49,0,0,1-5.168,2.161A14.382,14.382,0,0,1,358.772-489.465Z" fill="#e3f0f9"/>
    </g>
    <g id="Grupo_54996" data-name="Grupo 54996">
      <g id="Grupo_54993" data-name="Grupo 54993">
        <path id="Trazado_103061" data-name="Trazado 103061" d="M438.3-302.35a1.221,1.221,0,0,1,.217,1.3l0,.006a8.109,8.109,0,0,1-2.561,2.809c-.154.124-.291.237-.41.342-.032.028-.063.055-.093.083l-.071.064c-1.125,1.038-.7,1.275-2.724,3.38-2.3,2.4-3.892,2.442-4.344,2.224-.382-.187.394-1.459,1.254-2.889.042-.069.083-.138.126-.208.114-.19.228-.383.342-.574,1.008-1.721.749-2.529.51-5.09-.194-2.081-3.238-11.627-3.238-11.627l4.418-.761s1.331,7.6,2.8,8.772c.784.624,1.662.632,2.415,1.094.053.032.106.065.157.1A5.818,5.818,0,0,1,438.3-302.35Z" fill="#f2844d"/>
        <path id="Trazado_103062" data-name="Trazado 103062" d="M438.3-302.35a1.221,1.221,0,0,1,.217,1.3l0,.006a9.383,9.383,0,0,1-2.565,2.8q-.228.189-.406.351c-.032.028-.063.055-.093.083l-.071.064c-1.125,1.038-.7,1.275-2.724,3.38-2.3,2.4-3.892,2.442-4.344,2.224-.382-.187.394-1.459,1.254-2.889a9.817,9.817,0,0,0,4.11-3.028c1.388-1.771,2.314-4.047,3.259-5.366.053.032.106.065.157.1A5.818,5.818,0,0,1,438.3-302.35Z" fill="#db3b34"/>
        <path id="Trazado_103063" data-name="Trazado 103063" d="M402.677-305.109c-.273,1.363-2.217,1.136-4.389.605s-1.656.1-4.746-.242-4.028-1.495-4.122-1.954c-.084-.408,1.443-.552,3.081-.74l.62-.075c1.85-.232,3.2-1.425,4.884-2.4,1.591-.929,3.966-4.711,3.966-4.711l4.239.336s-2.224,3.378-3.085,4.847a5.123,5.123,0,0,0-.416,2.889A5.463,5.463,0,0,1,402.677-305.109Z" fill="#f2844d"/>
        <path id="Trazado_103064" data-name="Trazado 103064" d="M398.288-304.5c-2.172-.531-1.656.1-4.746-.242s-4.028-1.495-4.122-1.954c-.084-.408,1.443-.552,3.081-.74l.015.031a8.72,8.72,0,0,0,4.427,1.376c2.1.051,4.318-.55,5.766-.526a5.463,5.463,0,0,1-.032,1.45C402.4-303.746,400.46-303.973,398.288-304.5Z" fill="#db3b34"/>
        <path id="Trazado_103065" data-name="Trazado 103065" d="M412.108-367.369s-1.009-2.475-2.12-2.576-4.646-.656-4.9-.151a3.493,3.493,0,0,0,.757,2.979c.757.657,5.453,1.717,5.453,1.717Z" fill="#f2844d"/>
        <path id="Trazado_103066" data-name="Trazado 103066" d="M418.921-332.214l9.136,24.585a8.374,8.374,0,0,0,2.749-.251,11.852,11.852,0,0,0,2.657-1.294s-2.266-23.607-6.421-28.517S418.921-332.214,418.921-332.214Z" fill="#b62b2d"/>
        <path id="Trazado_103067" data-name="Trazado 103067" d="M455.055-342.161s-26.25-8.876-32.1-6.987-23.433,36.861-23.433,36.861a3.4,3.4,0,0,0,1.48.934,13.988,13.988,0,0,0,3.445.353s15.864-13.6,17.753-17.563,2.644-7.743,4.532-7.366,24.362,9.254,29.461,3.967a14.722,14.722,0,0,0,3.766-12.159Z" fill="#db3b34"/>
        <path id="Trazado_103068" data-name="Trazado 103068" d="M439.014-383.453A14.913,14.913,0,0,1,437.9-388.6a15.775,15.775,0,0,0,1.837,5.685c5.459,3.584,15.923,15.552,15.716,17.82,0,0,3.686-6.251,3.749-6.288,0,0,6.8-8.646-1.259-13.6-4.1-2.517-4.074-5.747-3.9-8.553s-1.117-14.887-9.321-11.725a5.356,5.356,0,0,0-1.906-.5,1.609,1.609,0,0,1,.726.345,6.365,6.365,0,0,0-3.445.659C437.082-403.042,434.391-387.708,439.014-383.453Z" fill="#c52d2a"/>
        <path id="Trazado_103069" data-name="Trazado 103069" d="M440.056-382.733c-.027.012,2.636,1.395,4.639.847,1.885-.514,3.116-2.957,3.09-2.963-.8-.158-1.028-1.255-1.011-5.967l-.361.071-6.066,1.2s.138,1.909.142,3.707C440.493-384.327,440.4-382.895,440.056-382.733Z" fill="#f2844d"/>
        <path id="Trazado_103070" data-name="Trazado 103070" d="M440.347-389.544s.138,1.909.142,3.707c3.395-.1,5.189-3.192,5.924-4.908Z" fill="#e97946"/>
        <path id="Trazado_103071" data-name="Trazado 103071" d="M447.039-391.406a17.828,17.828,0,0,0,2.206-5.214c.3-1.715-.569-8.075-6.96-7.16a8.7,8.7,0,0,0-3.6,1.362c-1.388.937-3.39,2.961-1.151,8.51l.581,1.875Z" fill="#c52d2a"/>
        <path id="Trazado_103072" data-name="Trazado 103072" d="M439.214-387.841s8.031.132,8.036-4.87,1.046-8.355-4.082-8.651-6.125,1.612-6.533,3.281S437.125-388.005,439.214-387.841Z" fill="#f2844d"/>
        <path id="Trazado_103073" data-name="Trazado 103073" d="M439.511-401.485s2.2,5.869,5.573,6.737,4.838-.036,4.838-.036a9.56,9.56,0,0,1-3.125-5.646S441.17-404.278,439.511-401.485Z" fill="#c52d2a"/>
        <path id="Trazado_103074" data-name="Trazado 103074" d="M440.056-401.008a7.1,7.1,0,0,0-2.043,2.584c-.4,1.274-.58,3.9-1.344,3.807,0,0-1.657-3.989.2-6.246C438.848-403.255,440.056-401.008,440.056-401.008Z" fill="#c52d2a"/>
        <path id="Trazado_103075" data-name="Trazado 103075" d="M457.939-361.128c.792-3.321-1.9-9.766-4.715-15.1-2.552-4.837-5.2-8.76-5.439-8.619-6.731,3.995-7.339.674-7.339.674s-6.114.812-7.846,3.792c-2.4,4.121-5,16.488-7.565,16.3-1.175-.084-13.011-4.532-13.011-4.532s-1.972,1.847-1.594,4.113a123.7,123.7,0,0,0,10.786,6.41c2.614,1.321,4.975,2.245,6.086,1.983,2.251-.53,5.768-5.749,7.668-8.821l.013-.021c2.425,13.728-.873,16.854.8,18.3,1.763,1.528,4.281-.728,9.821,1.673,3.634,1.576,8.677,3.855,12.071,4.252,1.78.209,3.109-.1,3.542-1.3C462.472-345.516,456.429-354.8,457.939-361.128Z" fill="#3889cb"/>
        <path id="Trazado_103076" data-name="Trazado 103076" d="M441-390.874s-.15.636-1.731.538c0,0-1.327-.082-1.287-.781A4.272,4.272,0,0,1,441-390.874Z" fill="#fff"/>
        <path id="Trazado_103077" data-name="Trazado 103077" d="M461.213-342.022c-.433,1.2-1.762,1.512-3.542,1.3-2.349-1.024-12.5-4.956-12.385-7.62.168-3.945,1.951-4.071.692-8.94-1.011-3.909,8.367-11.178,9.863-12.758,2.813,5.336,2.89,5.588,2.1,8.909C456.429-354.8,462.472-345.516,461.213-342.022Z" fill="#0b60ab"/>
        <path id="Trazado_103078" data-name="Trazado 103078" d="M434.97-364.925c-1.9,3.072-5.417,8.291-7.668,8.821-1.111.262-3.472-.662-6.086-1.983a15.826,15.826,0,0,0,5.561.3c1.952-.189,2.518-2.581,5.6-6.17C434.381-366.279,434.872-365.693,434.97-364.925Z" fill="#0b60ab"/>
        <path id="Trazado_103079" data-name="Trazado 103079" d="M444.373-357.373a4.84,4.84,0,0,0-3.3-1.007c-1.606.315-2.393,1.416-2.33,1.92a2.865,2.865,0,0,0,2.141,2.046,23.157,23.157,0,0,0,4.721-.756Z" fill="#f2844d"/>
        <path id="Trazado_103080" data-name="Trazado 103080" d="M447.785-384.849s6.546.4,8.811,3.564c3.19,4.448,8.73,22.611,7.219,26.766L443.9-354.6s-.483-2.256.188-3.347,11.584-2.854,12.088-3.358-6.3-9.82-6.3-11.331S447.785-384.849,447.785-384.849Z" fill="#3889cb"/>
      </g>
      <g id="Grupo_54995" data-name="Grupo 54995">
        <g id="Grupo_54994" data-name="Grupo 54994">
          <path id="Trazado_103081" data-name="Trazado 103081" d="M438.281-363.638H414.208l4.347,15.157h24.109Z" fill="#003875"/>
          <rect id="Rectángulo_5340" data-name="Rectángulo 5340" width="31.519" height="0.591" transform="translate(418.637 -349.072)" fill="#0b2949"/>
        </g>
        <path id="Trazado_103082" data-name="Trazado 103082" d="M428.14-356.306a1.384,1.384,0,0,0-1.242-.964.7.7,0,0,0-.688.964,1.383,1.383,0,0,0,1.242.965A.7.7,0,0,0,428.14-356.306Z" fill="#0b2949"/>
      </g>
    </g>
    <g id="Grupo_55001" data-name="Grupo 55001">
      <g id="Grupo_54999" data-name="Grupo 54999">
        <rect id="Rectángulo_5341" data-name="Rectángulo 5341" width="42.798" height="11.246" rx="2.411" transform="translate(306.459 -323.189)" fill="#f17c36"/>
        <path id="Trazado_103083" data-name="Trazado 103083" d="M349.257-315.524v1.17a2.418,2.418,0,0,1-2.411,2.411H308.87a2.418,2.418,0,0,1-2.411-2.411v-1.266h42.107A2.54,2.54,0,0,1,349.257-315.524Z" fill="#eb631e"/>
        <g id="Grupo_54997" data-name="Grupo 54997">
          <path id="Trazado_103084" data-name="Trazado 103084" d="M315.6-311.943l-1.712,6.484,0,0L306.76-278.47h-.749l4.119-22.39c0-.022.01-.044.014-.068L312.181-312Z" fill="#f3ba95"/>
        </g>
        <path id="Trazado_103085" data-name="Trazado 103085" d="M315.6-311.943l-1.712,6.484,0,0c-.1.048-3.215,1.66-3.743,4.529L312.181-312Z" fill="#cc8b65"/>
        <g id="Grupo_54998" data-name="Grupo 54998">
          <path id="Trazado_103086" data-name="Trazado 103086" d="M349.257-278.47h-.749L342.7-300.454v0l-1.32-5,0,0-1.712-6.484,3.42-.058,1.165,6.331.872,4.742c0,.024.01.046.014.068Z" fill="#f3ba95"/>
        </g>
        <path id="Trazado_103087" data-name="Trazado 103087" d="M337.681-303.452s-.008,0-.012-.008C337.653-303.488,337.657-303.482,337.681-303.452Z" fill="#f3ba95"/>
        <path id="Trazado_103088" data-name="Trazado 103088" d="M344.252-305.67a9.435,9.435,0,0,0-1.551,5.212l-1.32-5,0,0-1.712-6.484,3.42-.058Z" fill="#cc8b65"/>
      </g>
      <g id="man">
        <path id="Trazado_103089" data-name="Trazado 103089" d="M301.248-449.658c.883-.92,1.482-.575,1.482-.575s10.422,8,11.417,8.584,14.55.975,14.55.975,5.429-.061,6.746,2.726a5.543,5.543,0,0,1-.844,6.04,5.612,5.612,0,0,1-6.017,1.94c-4.969-1.45-14.853-4.41-16.7-5.541-4.116-2.518-11.549-12.571-11.549-12.571A4.007,4.007,0,0,1,301.248-449.658Z" fill="#098fa0"/>
        <g id="Grupo_55000" data-name="Grupo 55000">
          <path id="Trazado_103090" data-name="Trazado 103090" d="M312.482-457.434l-5.2-3.135a1.345,1.345,0,0,1-.636-1.253q.08-.965.08-1.949a22.677,22.677,0,0,0-.272-3.573,1.33,1.33,0,0,1,.629-1.359l5.436-3.281a1.3,1.3,0,0,0,.5-1.7l-2.558-5.21a1.29,1.29,0,0,0-1.591-.643l-5.5,1.995a1.293,1.293,0,0,1-1.491-.437,23.5,23.5,0,0,0-5.4-5.065,1.337,1.337,0,0,1-.5-1.551l1.22-3.341a1.349,1.349,0,0,0-.663-1.657l-5.177-2.533a1.151,1.151,0,0,0-.325-.112,1.3,1.3,0,0,0-1.378.609l-2.347,3.885-.57.948a23.3,23.3,0,0,0-3.275-.232,23.59,23.59,0,0,0-4.362.4,1.294,1.294,0,0,1-1.359-.6l-2.638-4.382a1.342,1.342,0,0,0-1.743-.51l-3.985,1.955-1.14.564a1.361,1.361,0,0,0-.683,1.684l1.664,4.594a1.292,1.292,0,0,1-.4,1.471,23.29,23.29,0,0,0-3.507,3.54,3.842,3.842,0,0,0-.265.325.729.729,0,0,1-.093.106,1.325,1.325,0,0,1-1.432.331l-5.429-1.968a.928.928,0,0,0-.186-.053,1.346,1.346,0,0,0-1.465.716l-2.532,5.157a1.341,1.341,0,0,0,.511,1.737l5.428,3.268a1.3,1.3,0,0,1,.617,1.332,23.687,23.687,0,0,0-.272,3.593q0,.975.08,1.929a1.367,1.367,0,0,1-.656,1.28l-5.224,3.155a1.3,1.3,0,0,0-.5,1.69l2.539,5.151a1.363,1.363,0,0,0,1.69.683l4.349-1.578a1.338,1.338,0,0,1,1.571.511,23.389,23.389,0,0,0,4.859,5.336,1.329,1.329,0,0,1,.424,1.505l-1.777,4.892a1.377,1.377,0,0,0,.683,1.7l5.138,2.526a1.316,1.316,0,0,0,1.71-.5l.139-.226,2.725-4.514a1.343,1.343,0,0,1,1.4-.63h.007a23.26,23.26,0,0,0,4.11.365c.749,0,1.485-.04,2.221-.106a1.318,1.318,0,0,1,1.266.63l2.678,4.448a1.364,1.364,0,0,0,1.77.523l5.131-2.525a1.472,1.472,0,0,0,.378-.279,1.357,1.357,0,0,0,.291-1.379l-1.339-3.665a1.358,1.358,0,0,1,.232-1.313,1.466,1.466,0,0,1,.279-.252,23.322,23.322,0,0,0,6.509-6.536,1.314,1.314,0,0,1,1.326-.57,1.277,1.277,0,0,1,.219.06l4.395,1.6a1.336,1.336,0,0,0,1.651-.663l.059-.119,2.473-5.025A1.36,1.36,0,0,0,312.482-457.434Zm-41.08-9.91a15.662,15.662,0,0,1,1.047-2.711,12.284,12.284,0,0,1,4.727-4.727c.186-.092.371-.179.557-.265,11.362-5.1,22.32,6.053,16.811,17.421a12.708,12.708,0,0,1-3.878,4.309,8.33,8.33,0,0,1-1.06.623,14.415,14.415,0,0,1-4.7,1.392A12.585,12.585,0,0,1,271.4-467.344Z" fill="#7a2379"/>
        </g>
        <path id="Trazado_103091" data-name="Trazado 103091" d="M289.73-447.037s.015-3.848-.592-4.967-2-2.519-2.794-2.071-1.036,4.2-.793,4.869a29.761,29.761,0,0,0,2.045,3.191Z" fill="#f59a6c"/>
        <path id="Trazado_103092" data-name="Trazado 103092" d="M337.439-323.189c.857-.734.343-4.848.343-4.848s-4.417-3.534-5.025-.828-4.2,3.921-6.24,4.252a2.21,2.21,0,0,0-1.967,1.424Z" fill="#0e2b53"/>
        <path id="Trazado_103093" data-name="Trazado 103093" d="M337.932-327.845c-4.09.634-5.585-.339-5.585-.339.053-4.029-1.189-13.112-2.892-23.541-2.245-13.751-5.29-29.842-7.214-39.762-1.107-5.706-1.844-9.369-1.844-9.369l3.343-.066,16.671-.33s-1.248,18.451-.907,27.563a17.051,17.051,0,0,0,.557,4.553C342.9-362.232,337.932-327.845,337.932-327.845Z" fill="#00387e"/>
        <path id="Trazado_103094" data-name="Trazado 103094" d="M339.5-373.689c-2.264,4.238-7.937,15.153-10.049,21.964-2.245-13.751-5.29-29.842-7.214-39.762a28.637,28.637,0,0,1,1.5-9.435l16.671-.33S339.163-382.8,339.5-373.689Z" fill="#0e2b53"/>
        <path id="Trazado_103095" data-name="Trazado 103095" d="M323.4-323.189c.858-.734.344-4.848.344-4.848s-4.418-3.534-5.025-.828-4.2,3.921-6.24,4.252a2.209,2.209,0,0,0-1.967,1.424Z" fill="#0e2b53"/>
        <path id="Trazado_103096" data-name="Trazado 103096" d="M313.15-401.258s6.549,60.6,5.252,72.817c0,0,1.4,1.1,5.53.845,0,0,7.481-34.909,5.9-40.559-1.1-3.928,3.286-31.666,3.286-31.666Z" fill="#00387e"/>
        <path id="Trazado_103097" data-name="Trazado 103097" d="M329.273-444.591s-8.327,4.159-12.459,2.262a12.639,12.639,0,0,1,3.679-3.179c-.042-.741-.065-1.41-.077-2-.037-1.971.062-3.08.062-3.08l3.591-2.612,2.437-1.773a15.711,15.711,0,0,0-.1,3.041A12.02,12.02,0,0,0,329.273-444.591Z" fill="#f59a6c"/>
        <path id="Trazado_103098" data-name="Trazado 103098" d="M326.407-451.933s-1.943,3.871-5.991,4.424c-.037-1.971.062-3.08.062-3.08l3.591-2.612A8.075,8.075,0,0,1,326.407-451.933Z" fill="#f1804a"/>
        <path id="Trazado_103099" data-name="Trazado 103099" d="M319.549-450.84s7.454,2.655,9.036-2.013,3.609-7.468-1.084-9.36-6.225-.426-7.132,1S317.65-451.65,319.549-450.84Z" fill="#f59a6c"/>
        <path id="Trazado_103100" data-name="Trazado 103100" d="M340.938-401.258c-1.167,2.431-27,2.324-28.276.61-.52-.7-1.114-7.67-1.455-15.778-.188-4.491-.3-9.331-.278-13.644.039-7.037.433-12.669,1.425-13.1,5.536-2.4,8.959-3.929,16.191-3.709a6,6,0,0,1,5.221,3.365,43.651,43.651,0,0,1,4.391,17.493C338.449-414.425,342.408-404.321,340.938-401.258Z" fill="#22a9b2"/>
        <path id="Trazado_103101" data-name="Trazado 103101" d="M319.287-434.845s-.841,12.126-8.08,18.419c-.188-4.491-.3-9.331-.278-13.644C313.092-432.962,315.946-435.044,319.287-434.845Z" fill="#098fa0"/>
        <path id="Trazado_103102" data-name="Trazado 103102" d="M322.848-446.621s-7.945.049-10.438,2.365c-1.787,1.66-13.267,10.708-14,10.587s-8.121-14.877-8.121-14.877-3.644.308-4.252,1.886c0,0,3.437,18.423,10.853,22.428,0,0,18.747-3.556,24.308-9.756C324.066-437.182,322.848-446.621,322.848-446.621Z" fill="#22a9b2"/>
        <path id="Trazado_103103" data-name="Trazado 103103" d="M319.879-464.852s.441,4.453,1.778,5.669.985,2.888,1.131,3.131,1.53-.472,1.774-.062c.56.942-.316,1.629-.869,1.857s1.412,4.05,2.855,4.191c2.495.243,6.348-6.655,6.674-8.677.425-2.644-1.072-6.768-5.365-6.565C321.11-464.989,319.743-466.452,319.879-464.852Z" fill="#00377c"/>
      </g>
    </g>
    <g id="Grupo_55002" data-name="Grupo 55002">
      <rect id="Rectángulo_5342" data-name="Rectángulo 5342" width="7.964" height="49.612" transform="translate(513.265 -497.349)" fill="#91c1ea"/>
      <rect id="Rectángulo_5343" data-name="Rectángulo 5343" width="7.964" height="63.441" transform="translate(526.672 -511.178)" fill="#91c1ea"/>
      <rect id="Rectángulo_5344" data-name="Rectángulo 5344" width="7.964" height="37.614" transform="translate(540.909 -485.351)" fill="#91c1ea"/>
      <path id="Trazado_103104" data-name="Trazado 103104" d="M534.2-520.665h-6.745a.7.7,0,0,0-.7.7.7.7,0,0,0,.7.7H534.2a.7.7,0,0,0,.7-.7A.7.7,0,0,0,534.2-520.665Z" fill="#91c1ea"/>
      <path id="Trazado_103105" data-name="Trazado 103105" d="M528.988-516.731a.7.7,0,0,0,.7-.7.7.7,0,0,0-.7-.7h-1.536a.7.7,0,0,0-.7.7.7.7,0,0,0,.7.7Z" fill="#91c1ea"/>
      <path id="Trazado_103106" data-name="Trazado 103106" d="M548.263-492.756h-6.744a.7.7,0,0,0-.7.7h0a.7.7,0,0,0,.7.7h6.744a.7.7,0,0,0,.7-.7h0A.7.7,0,0,0,548.263-492.756Z" fill="#91c1ea"/>
      <path id="Trazado_103107" data-name="Trazado 103107" d="M541.519-488.821h1.536a.7.7,0,0,0,.7-.7.7.7,0,0,0-.7-.7h-1.536a.7.7,0,0,0-.7.7A.7.7,0,0,0,541.519-488.821Z" fill="#91c1ea"/>
    </g>
  </g>
</svg>
