<?xml version="1.0" encoding="utf-8"?>
<!-- Generator: Adobe Illustrator 25.2.3, SVG Export Plug-In . SVG Version: 6.00 Build 0)  -->
<svg version="1.1" id="Capa_1" xmlns="http://www.w3.org/2000/svg" xmlns:xlink="http://www.w3.org/1999/xlink" x="0px" y="0px"
	 viewBox="0 0 1020 351.7" style="enable-background:new 0 0 1020 351.7;" xml:space="preserve">
<style type="text/css">
	.st0{opacity:0.2;fill:url(#Trazado_103017_1_);enable-background:new    ;}
	.st1{fill:#334794;}
	.st2{opacity:0.11;fill:url(#Trazado_103020_1_);enable-background:new    ;}
	.st3{enable-background:new    ;}
	.st4{fill:#161615;}
	.st5{fill:#123884;}
	.st6{opacity:0.2;fill:url(#Trazado_103013_1_);enable-background:new    ;}
	.st7{opacity:0.11;fill:url(#Trazado_103014_1_);enable-background:new    ;}
	.st8{fill:#098091;}
	.st9{opacity:0.2;fill:url(#Trazado_103009_1_);enable-background:new    ;}
	.st10{opacity:0.11;fill:url(#Trazado_103010_1_);enable-background:new    ;}
	.st11{fill:#7A2379;}
	.st12{opacity:0.2;fill:url(#Trazado_103021_1_);enable-background:new    ;}
	.st13{opacity:0.11;fill:url(#Trazado_103022_1_);enable-background:new    ;}
	.st14{fill:#DC0052;}
</style>
<g>
	<g id="Grupo_54977" transform="translate(119.317 1629.183)">
		<g id="Grupo_54976">
			
				<linearGradient id="Trazado_103017_1_" gradientUnits="userSpaceOnUse" x1="88.5479" y1="-1030.7412" x2="88.5479" y2="-1029.7412" gradientTransform="matrix(45.738 0 0 -98.031 -4144.6602 -102572.1562)">
				<stop  offset="0" style="stop-color:#FFFFFF"/>
				<stop  offset="1" style="stop-color:#3AA9DA"/>
			</linearGradient>
			<path id="Trazado_103017" class="st0" d="M-94.4-1605.2h-0.3l-19,8.9l-3.8-17.2l26.4-12.1h19.3v98h-22.6V-1605.2z"/>
			<path id="Trazado_103018" class="st1" d="M-71.8-1525.8c-1,0-1.8-0.8-1.8-1.8v-96.3h-17.2l-24.7,11.3l3,13.7l17-7.9
				c0.2-0.1,0.5-0.2,0.8-0.2h0.3c1,0,1.8,0.8,1.8,1.8c0,0,0,0,0,0v77.7c0,1-0.8,1.8-1.8,1.8c-1,0-1.8-0.8-1.8-1.8l0,0v-75l-16.8,7.8
				c-0.5,0.2-1.1,0.2-1.6,0c-0.5-0.2-0.8-0.7-1-1.2l-3.8-17.2c-0.2-0.8,0.2-1.6,1-2l26.4-12.1c0.2-0.1,0.5-0.2,0.8-0.2h19.3
				c1,0,1.8,0.8,1.8,1.8v98C-70-1526.6-70.8-1525.8-71.8-1525.8C-71.8-1525.8-71.8-1525.8-71.8-1525.8z"/>
			<path id="Trazado_103019" class="st1" d="M121-1525.8H-71.8c-1,0-1.8-0.8-1.8-1.8c0-1,0.8-1.8,1.8-1.8l0,0H121
				c26.5,0,48.1-21.2,48.1-47.3c0-26.1-21.6-47.3-48.1-47.3H-56.8c-1,0-1.8-0.8-1.8-1.8c0-1,0.8-1.8,1.8-1.8H121
				c28.5,0,51.7,22.8,51.7,50.8C172.7-1548.6,149.5-1525.8,121-1525.8z"/>
		</g>
		
			<linearGradient id="Trazado_103020_1_" gradientUnits="userSpaceOnUse" x1="91.7981" y1="-1030.2372" x2="92.7981" y2="-1030.2372" gradientTransform="matrix(239.581 0 0 -98.192 -22063.084 -102737.5781)">
			<stop  offset="0" style="stop-color:#FFFFFF"/>
			<stop  offset="1" style="stop-color:#717170"/>
		</linearGradient>
		<path id="Trazado_103020" class="st2" d="M117.5-1527.4H-70l14.4-98.2h173.1c28.7,0,52,22,52,49.1l0,0
			C169.6-1549.4,146.3-1527.4,117.5-1527.4z"/>
	</g>
	<g class="st3">
		<path class="st4" d="M115.7,36.2V24.2h3.7c1.1,0,2,0.2,2.9,0.7c0.8,0.5,1.5,1.2,2,2s0.7,1.9,0.7,3v0.6c0,1.1-0.2,2.1-0.7,3
			c-0.5,0.9-1.1,1.6-2,2s-1.8,0.7-2.8,0.7H115.7z M118.2,26.2v8.1h1.2c1,0,1.7-0.3,2.2-1s0.8-1.5,0.8-2.7v-0.6
			c0-1.2-0.3-2.2-0.8-2.8s-1.3-1-2.2-1H118.2z"/>
		<path class="st4" d="M130.7,36.4c-1.3,0-2.4-0.4-3.2-1.2c-0.8-0.8-1.2-1.9-1.2-3.2v-0.2c0-0.9,0.2-1.7,0.5-2.4s0.8-1.3,1.5-1.6
			c0.6-0.4,1.4-0.6,2.2-0.6c1.2,0,2.2,0.4,2.9,1.2c0.7,0.8,1.1,1.9,1.1,3.3v1h-5.7c0.1,0.6,0.3,1.1,0.7,1.4c0.4,0.4,0.9,0.5,1.5,0.5
			c0.9,0,1.6-0.3,2.2-1l1.2,1.3c-0.4,0.5-0.8,0.9-1.5,1.2S131.5,36.4,130.7,36.4z M130.4,29c-0.5,0-0.9,0.2-1.2,0.5
			c-0.3,0.3-0.5,0.8-0.6,1.4h3.3v-0.2c0-0.5-0.2-0.9-0.4-1.2S130.9,29,130.4,29z"/>
		<path class="st4" d="M140.6,33.8c0-0.3-0.1-0.5-0.4-0.7c-0.3-0.2-0.8-0.3-1.4-0.5c-2.1-0.4-3.2-1.4-3.2-2.7c0-0.8,0.3-1.5,1-2
			c0.7-0.5,1.5-0.8,2.6-0.8c1.1,0,2.1,0.3,2.7,0.8c0.7,0.5,1,1.2,1,2.1h-2.4c0-0.3-0.1-0.6-0.3-0.9c-0.2-0.2-0.6-0.3-1-0.3
			c-0.4,0-0.7,0.1-0.9,0.3c-0.2,0.2-0.3,0.4-0.3,0.7c0,0.3,0.1,0.5,0.4,0.6c0.3,0.2,0.7,0.3,1.3,0.4s1.1,0.3,1.5,0.4
			c1.3,0.5,1.9,1.3,1.9,2.4c0,0.8-0.4,1.5-1.1,2c-0.7,0.5-1.6,0.8-2.7,0.8c-0.8,0-1.4-0.1-2-0.4c-0.6-0.3-1-0.6-1.4-1.1
			s-0.5-1-0.5-1.5h2.3c0,0.4,0.2,0.8,0.5,1s0.7,0.3,1.2,0.3c0.5,0,0.8-0.1,1-0.3C140.5,34.3,140.6,34,140.6,33.8z"/>
		<path class="st4" d="M148.2,34.5c0.4,0,0.8-0.1,1.1-0.4c0.3-0.2,0.4-0.6,0.4-1h2.2c0,0.6-0.2,1.2-0.5,1.7
			c-0.3,0.5-0.8,0.9-1.3,1.2c-0.6,0.3-1.2,0.4-1.9,0.4c-1.3,0-2.3-0.4-3-1.2s-1.1-1.9-1.1-3.4v-0.2c0-1.4,0.4-2.5,1.1-3.3
			c0.7-0.8,1.7-1.2,3-1.2c1.1,0,2,0.3,2.7,1c0.7,0.6,1,1.5,1,2.6h-2.2c0-0.5-0.2-0.8-0.4-1.1s-0.6-0.4-1.1-0.4c-0.6,0-1,0.2-1.3,0.6
			c-0.3,0.4-0.4,1.1-0.4,2v0.2c0,0.9,0.1,1.6,0.4,2S147.7,34.5,148.2,34.5z"/>
		<path class="st4" d="M158.4,29.5c-0.3,0-0.6-0.1-0.9-0.1c-0.9,0-1.5,0.3-1.8,0.9v5.9h-2.4v-9h2.3l0.1,1.1c0.5-0.8,1.1-1.2,2-1.2
			c0.3,0,0.5,0,0.7,0.1L158.4,29.5z"/>
		<path class="st4" d="M159.6,24.9c0-0.4,0.1-0.7,0.4-0.9c0.2-0.2,0.6-0.3,1-0.3c0.4,0,0.7,0.1,1,0.3s0.4,0.5,0.4,0.9
			c0,0.4-0.1,0.7-0.4,0.9c-0.2,0.2-0.6,0.3-1,0.3s-0.7-0.1-1-0.3C159.7,25.6,159.6,25.3,159.6,24.9z M162.1,36.2h-2.4v-9h2.4V36.2z"
			/>
		<path class="st4" d="M172.2,31.8c0,1.4-0.3,2.5-0.9,3.3c-0.6,0.8-1.5,1.2-2.5,1.2c-0.9,0-1.6-0.3-2.2-0.9v4.2h-2.4V27.3h2.2
			l0.1,0.9c0.6-0.7,1.3-1,2.3-1c1.1,0,2,0.4,2.6,1.2s0.9,1.9,0.9,3.4V31.8z M169.8,31.7c0-0.8-0.1-1.5-0.4-1.9
			c-0.3-0.5-0.7-0.7-1.3-0.7c-0.8,0-1.3,0.3-1.6,0.9v3.7c0.3,0.6,0.8,0.9,1.6,0.9C169.2,34.5,169.8,33.5,169.8,31.7z"/>
		<path class="st4" d="M177.4,34.5c0.4,0,0.8-0.1,1.1-0.4c0.3-0.2,0.4-0.6,0.4-1h2.2c0,0.6-0.2,1.2-0.5,1.7
			c-0.3,0.5-0.8,0.9-1.3,1.2c-0.6,0.3-1.2,0.4-1.9,0.4c-1.3,0-2.3-0.4-3-1.2s-1.1-1.9-1.1-3.4v-0.2c0-1.4,0.4-2.5,1.1-3.3
			c0.7-0.8,1.7-1.2,3-1.2c1.1,0,2,0.3,2.7,1c0.7,0.6,1,1.5,1,2.6h-2.2c0-0.5-0.2-0.8-0.4-1.1s-0.6-0.4-1.1-0.4c-0.6,0-1,0.2-1.3,0.6
			c-0.3,0.4-0.4,1.1-0.4,2v0.2c0,0.9,0.1,1.6,0.4,2S176.8,34.5,177.4,34.5z"/>
		<path class="st4" d="M182.5,24.9c0-0.4,0.1-0.7,0.4-0.9c0.2-0.2,0.6-0.3,1-0.3c0.4,0,0.7,0.1,1,0.3s0.4,0.5,0.4,0.9
			c0,0.4-0.1,0.7-0.4,0.9c-0.2,0.2-0.6,0.3-1,0.3s-0.7-0.1-1-0.3C182.6,25.6,182.5,25.3,182.5,24.9z M185,36.2h-2.4v-9h2.4V36.2z"/>
		<path class="st4" d="M186.6,31.7c0-0.9,0.2-1.7,0.5-2.4s0.8-1.2,1.5-1.6c0.6-0.4,1.4-0.6,2.2-0.6c1.2,0,2.2,0.4,3,1.1
			c0.8,0.7,1.2,1.7,1.3,3l0,0.6c0,1.4-0.4,2.5-1.2,3.3s-1.8,1.2-3.1,1.2s-2.3-0.4-3.1-1.2c-0.8-0.8-1.2-2-1.2-3.4V31.7z M189,31.8
			c0,0.9,0.2,1.5,0.5,2c0.3,0.5,0.8,0.7,1.4,0.7c0.6,0,1-0.2,1.4-0.7s0.5-1.2,0.5-2.1c0-0.8-0.2-1.5-0.5-1.9s-0.8-0.7-1.4-0.7
			c-0.6,0-1,0.2-1.4,0.7S189,30.9,189,31.8z M191.4,23.5h2.6l-2.3,2.6h-2L191.4,23.5z"/>
		<path class="st4" d="M198.8,27.3l0.1,1c0.6-0.8,1.5-1.2,2.6-1.2c1,0,1.7,0.3,2.1,0.8c0.5,0.6,0.7,1.4,0.7,2.5v5.8h-2.4v-5.8
			c0-0.5-0.1-0.9-0.3-1.1S201,29,200.5,29c-0.7,0-1.2,0.3-1.5,0.9v6.3h-2.4v-9H198.8z"/>
	</g>
	<g class="st3">
		<path class="st4" d="M111.3,56.6V44.6h3.7c1.1,0,2,0.2,2.9,0.7c0.8,0.5,1.5,1.2,2,2s0.7,1.9,0.7,3v0.6c0,1.1-0.2,2.1-0.7,3
			c-0.5,0.9-1.1,1.6-2,2s-1.8,0.7-2.8,0.7H111.3z M113.8,46.6v8.1h1.2c1,0,1.7-0.3,2.2-1s0.8-1.5,0.8-2.7v-0.6
			c0-1.2-0.3-2.2-0.8-2.8s-1.3-1-2.2-1H113.8z"/>
		<path class="st4" d="M126.3,56.8c-1.3,0-2.4-0.4-3.2-1.2c-0.8-0.8-1.2-1.9-1.2-3.2v-0.2c0-0.9,0.2-1.7,0.5-2.4s0.8-1.3,1.5-1.6
			c0.6-0.4,1.4-0.6,2.2-0.6c1.2,0,2.2,0.4,2.9,1.2c0.7,0.8,1.1,1.9,1.1,3.3v1h-5.7c0.1,0.6,0.3,1.1,0.7,1.4c0.4,0.4,0.9,0.5,1.5,0.5
			c0.9,0,1.6-0.3,2.2-1l1.2,1.3c-0.4,0.5-0.8,0.9-1.5,1.2S127.1,56.8,126.3,56.8z M126,49.4c-0.5,0-0.9,0.2-1.2,0.5
			c-0.3,0.3-0.5,0.8-0.6,1.4h3.3v-0.2c0-0.5-0.2-0.9-0.4-1.2S126.5,49.4,126,49.4z"/>
		<path class="st4" d="M134.2,45.5v2.2h1.5v1.8h-1.5v4.5c0,0.3,0.1,0.6,0.2,0.7s0.4,0.2,0.7,0.2c0.3,0,0.5,0,0.7-0.1v1.8
			c-0.5,0.1-1,0.2-1.5,0.2c-1.7,0-2.5-0.8-2.6-2.5v-4.8h-1.3v-1.8h1.3v-2.2H134.2z"/>
		<path class="st4" d="M142.3,56.6c-0.1-0.2-0.2-0.5-0.2-0.8c-0.6,0.6-1.3,1-2.3,1c-0.9,0-1.6-0.3-2.2-0.8c-0.6-0.5-0.9-1.2-0.9-1.9
			c0-1,0.4-1.7,1.1-2.2c0.7-0.5,1.7-0.8,3.1-0.8h1.1v-0.5c0-0.4-0.1-0.7-0.3-1c-0.2-0.2-0.5-0.4-1-0.4c-0.4,0-0.7,0.1-1,0.3
			c-0.2,0.2-0.3,0.5-0.3,0.8H137c0-0.5,0.2-1,0.5-1.4c0.3-0.4,0.8-0.8,1.4-1s1.2-0.4,2-0.4c1.1,0,2,0.3,2.6,0.8c0.6,0.6,1,1.3,1,2.3
			v3.9c0,0.9,0.1,1.5,0.4,1.9v0.1H142.3z M140.3,55c0.4,0,0.7-0.1,1-0.2c0.3-0.2,0.5-0.4,0.7-0.6v-1.5h-0.9c-1.2,0-1.8,0.4-1.9,1.2
			l0,0.1c0,0.3,0.1,0.5,0.3,0.7S140,55,140.3,55z"/>
		<path class="st4" d="M148.8,56.6h-2.4V43.9h2.4V56.6z"/>
		<path class="st4" d="M153.3,56.6h-2.4V43.9h2.4V56.6z"/>
		<path class="st4" d="M160.4,56.6c-0.1-0.2-0.2-0.5-0.2-0.8c-0.6,0.6-1.3,1-2.3,1c-0.9,0-1.6-0.3-2.2-0.8c-0.6-0.5-0.9-1.2-0.9-1.9
			c0-1,0.4-1.7,1.1-2.2c0.7-0.5,1.7-0.8,3.1-0.8h1.1v-0.5c0-0.4-0.1-0.7-0.3-1c-0.2-0.2-0.5-0.4-1-0.4c-0.4,0-0.7,0.1-1,0.3
			c-0.2,0.2-0.3,0.5-0.3,0.8h-2.4c0-0.5,0.2-1,0.5-1.4c0.3-0.4,0.8-0.8,1.4-1s1.2-0.4,2-0.4c1.1,0,2,0.3,2.6,0.8
			c0.6,0.6,1,1.3,1,2.3v3.9c0,0.9,0.1,1.5,0.4,1.9v0.1H160.4z M158.5,55c0.4,0,0.7-0.1,1-0.2c0.3-0.2,0.5-0.4,0.7-0.6v-1.5h-0.9
			c-1.2,0-1.8,0.4-1.9,1.2l0,0.1c0,0.3,0.1,0.5,0.3,0.7S158.1,55,158.5,55z"/>
		<path class="st4" d="M164,52.1c0-1.4,0.3-2.5,0.9-3.3c0.6-0.8,1.5-1.2,2.6-1.2c0.9,0,1.6,0.3,2.2,1v-4.6h2.4v12.8h-2.2l-0.1-1
			c-0.6,0.7-1.4,1.1-2.3,1.1c-1.1,0-1.9-0.4-2.5-1.2C164.3,54.7,164,53.6,164,52.1z M166.4,52.3c0,0.8,0.1,1.5,0.4,1.9
			s0.7,0.7,1.3,0.7c0.7,0,1.3-0.3,1.6-0.9v-3.6c-0.3-0.6-0.8-0.9-1.6-0.9C167,49.4,166.4,50.4,166.4,52.3z"/>
		<path class="st4" d="M179.1,56.6c-0.1-0.2-0.2-0.5-0.2-0.8c-0.6,0.6-1.3,1-2.3,1c-0.9,0-1.6-0.3-2.2-0.8c-0.6-0.5-0.9-1.2-0.9-1.9
			c0-1,0.4-1.7,1.1-2.2c0.7-0.5,1.7-0.8,3.1-0.8h1.1v-0.5c0-0.4-0.1-0.7-0.3-1c-0.2-0.2-0.5-0.4-1-0.4c-0.4,0-0.7,0.1-1,0.3
			c-0.2,0.2-0.3,0.5-0.3,0.8h-2.4c0-0.5,0.2-1,0.5-1.4c0.3-0.4,0.8-0.8,1.4-1s1.2-0.4,2-0.4c1.1,0,2,0.3,2.6,0.8
			c0.6,0.6,1,1.3,1,2.3v3.9c0,0.9,0.1,1.5,0.4,1.9v0.1H179.1z M177.2,55c0.4,0,0.7-0.1,1-0.2c0.3-0.2,0.5-0.4,0.7-0.6v-1.5h-0.9
			c-1.2,0-1.8,0.4-1.9,1.2l0,0.1c0,0.3,0.1,0.5,0.3,0.7S176.8,55,177.2,55z"/>
		<path class="st4" d="M186.9,52.1c0-1.4,0.3-2.5,0.9-3.3c0.6-0.8,1.5-1.2,2.6-1.2c0.9,0,1.6,0.3,2.2,1v-4.6h2.4v12.8h-2.2l-0.1-1
			c-0.6,0.7-1.4,1.1-2.3,1.1c-1.1,0-1.9-0.4-2.5-1.2C187.2,54.7,186.9,53.6,186.9,52.1z M189.3,52.3c0,0.8,0.1,1.5,0.4,1.9
			s0.7,0.7,1.3,0.7c0.7,0,1.3-0.3,1.6-0.9v-3.6c-0.3-0.6-0.8-0.9-1.6-0.9C189.9,49.4,189.3,50.4,189.3,52.3z"/>
		<path class="st4" d="M201,56.8c-1.3,0-2.4-0.4-3.2-1.2c-0.8-0.8-1.2-1.9-1.2-3.2v-0.2c0-0.9,0.2-1.7,0.5-2.4s0.8-1.3,1.5-1.6
			c0.6-0.4,1.4-0.6,2.2-0.6c1.2,0,2.2,0.4,2.9,1.2c0.7,0.8,1.1,1.9,1.1,3.3v1H199c0.1,0.6,0.3,1.1,0.7,1.4c0.4,0.4,0.9,0.5,1.5,0.5
			c0.9,0,1.6-0.3,2.2-1l1.2,1.3c-0.4,0.5-0.8,0.9-1.5,1.2S201.7,56.8,201,56.8z M200.7,49.4c-0.5,0-0.9,0.2-1.2,0.5
			c-0.3,0.3-0.5,0.8-0.6,1.4h3.3v-0.2c0-0.5-0.2-0.9-0.4-1.2S201.2,49.4,200.7,49.4z"/>
		<path class="st4" d="M208.6,56.6h-2.4V43.9h2.4V56.6z"/>
	</g>
	<g class="st3">
		<path class="st4" d="M130.6,71.8h-4.8V75h5.6v2h-8.1V65h8.1v2h-5.6v2.9h4.8V71.8z"/>
		<path class="st4" d="M137.6,74.6c0-0.3-0.1-0.5-0.4-0.7c-0.3-0.2-0.8-0.3-1.4-0.5c-2.1-0.4-3.2-1.4-3.2-2.7c0-0.8,0.3-1.5,1-2
			c0.7-0.5,1.5-0.8,2.6-0.8c1.1,0,2.1,0.3,2.7,0.8c0.7,0.5,1,1.2,1,2.1h-2.4c0-0.3-0.1-0.6-0.3-0.9c-0.2-0.2-0.6-0.3-1-0.3
			c-0.4,0-0.7,0.1-0.9,0.3c-0.2,0.2-0.3,0.4-0.3,0.7c0,0.3,0.1,0.5,0.4,0.6c0.3,0.2,0.7,0.3,1.3,0.4s1.1,0.3,1.5,0.4
			c1.3,0.5,1.9,1.3,1.9,2.4c0,0.8-0.4,1.5-1.1,2c-0.7,0.5-1.6,0.8-2.7,0.8c-0.8,0-1.4-0.1-2-0.4c-0.6-0.3-1-0.6-1.4-1.1
			s-0.5-1-0.5-1.5h2.3c0,0.4,0.2,0.8,0.5,1s0.7,0.3,1.2,0.3c0.5,0,0.8-0.1,1-0.3C137.5,75.1,137.6,74.8,137.6,74.6z"/>
		<path class="st4" d="M145.2,75.3c0.4,0,0.8-0.1,1.1-0.4c0.3-0.2,0.4-0.6,0.4-1h2.2c0,0.6-0.2,1.2-0.5,1.7
			c-0.3,0.5-0.8,0.9-1.3,1.2c-0.6,0.3-1.2,0.4-1.9,0.4c-1.3,0-2.3-0.4-3-1.2s-1.1-1.9-1.1-3.4v-0.2c0-1.4,0.4-2.5,1.1-3.3
			c0.7-0.8,1.7-1.2,3-1.2c1.1,0,2,0.3,2.7,1c0.7,0.6,1,1.5,1,2.6h-2.2c0-0.5-0.2-0.8-0.4-1.1s-0.6-0.4-1.1-0.4c-0.6,0-1,0.2-1.3,0.6
			c-0.3,0.4-0.4,1.1-0.4,2v0.2c0,0.9,0.1,1.6,0.4,2S144.6,75.3,145.2,75.3z"/>
		<path class="st4" d="M154.5,77.2c-1.3,0-2.4-0.4-3.2-1.2c-0.8-0.8-1.2-1.9-1.2-3.2v-0.2c0-0.9,0.2-1.7,0.5-2.4s0.8-1.3,1.5-1.6
			c0.6-0.4,1.4-0.6,2.2-0.6c1.2,0,2.2,0.4,2.9,1.2c0.7,0.8,1.1,1.9,1.1,3.3v1h-5.7c0.1,0.6,0.3,1.1,0.7,1.4c0.4,0.4,0.9,0.5,1.5,0.5
			c0.9,0,1.6-0.3,2.2-1l1.2,1.3c-0.4,0.5-0.8,0.9-1.5,1.2S155.2,77.2,154.5,77.2z M154.2,69.8c-0.5,0-0.9,0.2-1.2,0.5
			c-0.3,0.3-0.5,0.8-0.6,1.4h3.3v-0.2c0-0.5-0.2-0.9-0.4-1.2S154.7,69.8,154.2,69.8z"/>
		<path class="st4" d="M161.7,68.1l0.1,1c0.6-0.8,1.5-1.2,2.6-1.2c1,0,1.7,0.3,2.1,0.8c0.5,0.6,0.7,1.4,0.7,2.5V77h-2.4v-5.8
			c0-0.5-0.1-0.9-0.3-1.1s-0.6-0.3-1.1-0.3c-0.7,0-1.2,0.3-1.5,0.9V77h-2.4v-9H161.7z"/>
		<path class="st4" d="M174.3,77c-0.1-0.2-0.2-0.5-0.2-0.8c-0.6,0.6-1.3,1-2.3,1c-0.9,0-1.6-0.3-2.2-0.8c-0.6-0.5-0.9-1.2-0.9-1.9
			c0-1,0.4-1.7,1.1-2.2c0.7-0.5,1.7-0.8,3.1-0.8h1.1V71c0-0.4-0.1-0.7-0.3-1c-0.2-0.2-0.5-0.4-1-0.4c-0.4,0-0.7,0.1-1,0.3
			c-0.2,0.2-0.3,0.5-0.3,0.8h-2.4c0-0.5,0.2-1,0.5-1.4c0.3-0.4,0.8-0.8,1.4-1s1.2-0.4,2-0.4c1.1,0,2,0.3,2.6,0.8
			c0.6,0.6,1,1.3,1,2.3V75c0,0.9,0.1,1.5,0.4,1.9V77H174.3z M172.3,75.4c0.4,0,0.7-0.1,1-0.2c0.3-0.2,0.5-0.4,0.7-0.6V73H173
			c-1.2,0-1.8,0.4-1.9,1.2l0,0.1c0,0.3,0.1,0.5,0.3,0.7S171.9,75.4,172.3,75.4z"/>
		<path class="st4" d="M183.2,70.3c-0.3,0-0.6-0.1-0.9-0.1c-0.9,0-1.5,0.3-1.8,0.9V77h-2.4v-9h2.3l0.1,1.1c0.5-0.8,1.1-1.2,2-1.2
			c0.3,0,0.5,0,0.7,0.1L183.2,70.3z"/>
		<path class="st4" d="M184.4,65.7c0-0.4,0.1-0.7,0.4-0.9c0.2-0.2,0.6-0.3,1-0.3c0.4,0,0.7,0.1,1,0.3s0.4,0.5,0.4,0.9
			c0,0.4-0.1,0.7-0.4,0.9c-0.2,0.2-0.6,0.3-1,0.3s-0.7-0.1-1-0.3C184.5,66.4,184.4,66.1,184.4,65.7z M186.9,77h-2.4v-9h2.4V77z"/>
		<path class="st4" d="M188.5,72.5c0-0.9,0.2-1.7,0.5-2.4s0.8-1.2,1.5-1.6c0.6-0.4,1.4-0.6,2.2-0.6c1.2,0,2.2,0.4,3,1.1
			c0.8,0.7,1.2,1.7,1.3,3l0,0.6c0,1.4-0.4,2.5-1.2,3.3s-1.8,1.2-3.1,1.2s-2.3-0.4-3.1-1.2c-0.8-0.8-1.2-2-1.2-3.4V72.5z M190.9,72.6
			c0,0.9,0.2,1.5,0.5,2c0.3,0.5,0.8,0.7,1.4,0.7c0.6,0,1-0.2,1.4-0.7s0.5-1.2,0.5-2.1c0-0.8-0.2-1.5-0.5-1.9s-0.8-0.7-1.4-0.7
			c-0.6,0-1,0.2-1.4,0.7S190.9,71.7,190.9,72.6z"/>
	</g>
</g>
<rect id="Rectángulo_5336" x="291" y="50.4" class="st1" width="229" height="4.5"/>
<g id="Grupo_54983" transform="translate(204.584 1644.45)">
	<path id="Trazado_103025" class="st5" d="M463.6-1541.5l2.5-2.7l209,149.7c0,0,2.4,1.3,1.8,1.9c-0.6,0.7-4.3,0.8-4.3,0.8
		L463.6-1541.5z"/>
	<path id="Trazado_103026" class="st5" d="M255.4-1394.8l209-149.5l2.5,2.7l-207.1,148.2L255.4-1394.8z"/>
</g>
<g id="Grupo_54982" transform="translate(5.656 31)">
	<g id="Grupo_54975" transform="translate(221.909 1655.183)">
		
			<linearGradient id="Trazado_103013_1_" gradientUnits="userSpaceOnUse" x1="-18.078" y1="-1087.6324" x2="-18.078" y2="-1086.6324" gradientTransform="matrix(70.362 0 0 -103.0129 1393.4124 -113376.5156)">
			<stop  offset="0" style="stop-color:#FFFFFF"/>
			<stop  offset="1" style="stop-color:#3AA9DA"/>
		</linearGradient>
		<path id="Trazado_103013" class="st6" d="M91-1360.8c4.1,2.1,13.6,6.1,23.1,6.1c12.1,0,18.2-5.8,18.2-13.3
			c0-9.8-9.8-14.3-20.1-14.3h-9.5v-16.7h9c7.8-0.2,17.8-3.1,17.8-11.5c0-6-4.9-10.4-14.7-10.4c-8.1,0-16.7,3.5-20.8,6l-4.8-16.9
			c6-3.8,17.9-7.5,30.8-7.5c21.3,0,33.1,11.2,33.1,24.8c0,10.6-6,18.9-18.2,23.1v0.3c12,2.1,21.6,11.2,21.6,24.2
			c0,17.6-15.5,30.5-40.8,30.5c-12.9,0-23.8-3.4-29.6-7.1L91-1360.8z"/>
		
			<linearGradient id="Trazado_103014_1_" gradientUnits="userSpaceOnUse" x1="-16.5233" y1="-1087.2117" x2="-15.5233" y2="-1087.2117" gradientTransform="matrix(221.22 0 0 -99.641 3808.0027 -109716.9609)">
			<stop  offset="0" style="stop-color:#FFFFFF"/>
			<stop  offset="1" style="stop-color:#717170"/>
		</linearGradient>
		<path id="Trazado_103014" class="st7" d="M324.1-1336.3H152.7l4-99.6h167.4c27.5,0,49.8,22.3,49.8,49.8l0,0
			C373.9-1358.6,351.6-1336.3,324.1-1336.3L324.1-1336.3z"/>
		<path id="Trazado_103015" class="st8" d="M115.8-1334.5c-14,0-24.9-3.8-30.5-7.3c-0.7-0.4-1-1.2-0.8-2l4.8-17.5
			c0.3-1,1.2-1.5,2.2-1.3c0.1,0,0.2,0.1,0.4,0.1c1.9,1,12,5.9,22.3,5.9c10.1,0,16.5-4.4,16.5-11.5c0-9.2-9.9-12.5-18.3-12.5h-9.5
			c-1,0-1.8-0.8-1.8-1.8l0,0v-16.7c0-1,0.8-1.8,1.8-1.8c0,0,0,0,0,0h9c1.6,0,16-0.6,16-9.7c0-5.4-4.8-8.6-12.9-8.6
			c-8.1,0-16.6,3.7-19.9,5.7c-0.8,0.5-1.9,0.2-2.4-0.6c-0.1-0.1-0.1-0.3-0.2-0.4l-4.8-16.9c-0.2-0.8,0.1-1.6,0.8-2
			c6.1-3.9,18.2-7.8,31.8-7.8c24.1,0,34.9,13.4,34.9,26.6c0,10.1-5.2,18.1-14.9,22.9c11.1,3.8,18.3,13.3,18.3,24.7
			c0,2.1-0.2,4.3-0.7,6.4c-0.2,1-1.2,1.6-2.2,1.3c-0.9-0.2-1.5-1.1-1.3-2.1c0.4-1.8,0.6-3.7,0.6-5.6c0-13-10.1-20.7-20.1-22.5
			c-0.9-0.2-1.5-0.9-1.5-1.8v-0.3c0-0.8,0.5-1.4,1.2-1.7c11.2-3.9,17-11.3,17-21.5c0-13.8-12.6-23-31.3-23
			c-11.9,0-22.9,3.3-28.7,6.6l3.8,13.4c4.5-2.3,12.2-5.1,19.7-5.1c12.2,0,16.5,6.3,16.5,12.2c0,9.5-10.5,13.1-19.5,13.3h-7.3v13.1
			h7.7c10.9,0,21.9,5,21.9,16c0,9.2-7.9,15.1-20,15.1c-9.1,0-17.9-3.5-22-5.4l-3.8,14.1c5.3,3,15.2,6.1,27.5,6.1
			c1,0,1.8,0.8,1.8,1.8C117.6-1335.3,116.8-1334.5,115.8-1334.5L115.8-1334.5z"/>
		<path id="Trazado_103016" class="st8" d="M324.1-1334.5H115.8c-1,0-1.8-0.8-1.8-1.8c0-1,0.8-1.8,1.8-1.8h208.3
			c26.5-0.1,47.9-21.7,47.8-48.3c-0.1-26.4-21.5-47.7-47.8-47.8H156.7c-1,0-1.8-0.8-1.8-1.8c0-1,0.8-1.8,1.8-1.8c0,0,0,0,0,0h167.4
			c28.5,0.1,51.5,23.3,51.4,51.8C375.4-1357.6,352.4-1334.6,324.1-1334.5z"/>
	</g>
	<g class="st3">
		<path class="st4" d="M413.1,263.6c-0.4,0.5-1.1,1-1.9,1.2s-1.7,0.4-2.7,0.4c-1,0-2-0.2-2.8-0.7c-0.8-0.5-1.4-1.1-1.8-2
			c-0.4-0.9-0.6-1.9-0.7-3.1v-0.8c0-1.2,0.2-2.3,0.6-3.1c0.4-0.9,1-1.6,1.8-2c0.8-0.5,1.7-0.7,2.7-0.7c1.4,0,2.6,0.3,3.4,1
			s1.3,1.7,1.4,3h-2.4c-0.1-0.7-0.4-1.2-0.7-1.5c-0.4-0.3-0.9-0.5-1.6-0.5c-0.8,0-1.5,0.3-1.9,1c-0.4,0.6-0.7,1.6-0.7,2.8v0.8
			c0,1.3,0.2,2.2,0.7,2.9s1.2,1,2.1,1c0.9,0,1.6-0.2,2-0.6v-2.1h-2.3v-1.8h4.8V263.6z"/>
		<path class="st4" d="M420.3,264.3c-0.6,0.7-1.4,1.1-2.5,1.1c-1,0-1.7-0.3-2.2-0.8c-0.5-0.6-0.8-1.4-0.8-2.4v-5.9h2.4v5.8
			c0,0.9,0.4,1.4,1.3,1.4c0.8,0,1.4-0.3,1.7-0.8v-6.4h2.4v9h-2.3L420.3,264.3z"/>
		<path class="st4" d="M427.1,265.2h-2.4v-9h2.4V265.2z M426.4,252.5h2.6l-2.3,2.6h-2L426.4,252.5z"/>
		<path class="st4" d="M434.3,265.2c-0.1-0.2-0.2-0.5-0.2-0.8c-0.6,0.6-1.3,1-2.3,1c-0.9,0-1.6-0.3-2.2-0.8
			c-0.6-0.5-0.9-1.2-0.9-1.9c0-1,0.4-1.7,1.1-2.2c0.7-0.5,1.7-0.8,3.1-0.8h1.1v-0.5c0-0.4-0.1-0.7-0.3-1c-0.2-0.2-0.5-0.4-1-0.4
			c-0.4,0-0.7,0.1-1,0.3c-0.2,0.2-0.3,0.5-0.3,0.8H429c0-0.5,0.2-1,0.5-1.4c0.3-0.4,0.8-0.8,1.4-1s1.2-0.4,2-0.4
			c1.1,0,2,0.3,2.6,0.8c0.6,0.6,1,1.3,1,2.3v3.9c0,0.9,0.1,1.5,0.4,1.9v0.1H434.3z M432.4,263.5c0.4,0,0.7-0.1,1-0.2
			c0.3-0.2,0.5-0.4,0.7-0.6v-1.5h-0.9c-1.2,0-1.8,0.4-1.9,1.2l0,0.1c0,0.3,0.1,0.5,0.3,0.7S432,263.5,432.4,263.5z"/>
		<path class="st4" d="M442.1,260.6c0-1.4,0.3-2.5,0.9-3.3c0.6-0.8,1.5-1.2,2.6-1.2c0.9,0,1.6,0.3,2.2,1v-4.6h2.4v12.8H448l-0.1-1
			c-0.6,0.7-1.4,1.1-2.3,1.1c-1.1,0-1.9-0.4-2.5-1.2C442.4,263.3,442.1,262.1,442.1,260.6z M444.5,260.8c0,0.8,0.1,1.5,0.4,1.9
			s0.7,0.7,1.3,0.7c0.7,0,1.3-0.3,1.6-0.9v-3.6c-0.3-0.6-0.8-0.9-1.6-0.9C445.1,258,444.5,258.9,444.5,260.8z"/>
		<path class="st4" d="M456.2,265.3c-1.3,0-2.4-0.4-3.2-1.2c-0.8-0.8-1.2-1.9-1.2-3.2v-0.2c0-0.9,0.2-1.7,0.5-2.4s0.8-1.3,1.5-1.6
			c0.6-0.4,1.4-0.6,2.2-0.6c1.2,0,2.2,0.4,2.9,1.2c0.7,0.8,1.1,1.9,1.1,3.3v1h-5.7c0.1,0.6,0.3,1.1,0.7,1.4c0.4,0.4,0.9,0.5,1.5,0.5
			c0.9,0,1.6-0.3,2.2-1l1.2,1.3c-0.4,0.5-0.8,0.9-1.5,1.2S456.9,265.3,456.2,265.3z M455.9,258c-0.5,0-0.9,0.2-1.2,0.5
			c-0.3,0.3-0.5,0.8-0.6,1.4h3.3v-0.2c0-0.5-0.2-0.9-0.4-1.2S456.4,258,455.9,258z"/>
		<path class="st4" d="M468.3,265.2h-2.5v-12.1h2.5V265.2z"/>
		<path class="st4" d="M472.6,256.2l0.1,1c0.6-0.8,1.5-1.2,2.6-1.2c1,0,1.7,0.3,2.1,0.8c0.5,0.6,0.7,1.4,0.7,2.5v5.8h-2.4v-5.8
			c0-0.5-0.1-0.9-0.3-1.1s-0.6-0.3-1.1-0.3c-0.7,0-1.2,0.3-1.5,0.9v6.3h-2.4v-9H472.6z"/>
		<path class="st4" d="M484.8,262.7c0-0.3-0.1-0.5-0.4-0.7c-0.3-0.2-0.8-0.3-1.4-0.5c-2.1-0.4-3.2-1.4-3.2-2.7c0-0.8,0.3-1.5,1-2
			c0.7-0.5,1.5-0.8,2.6-0.8c1.1,0,2.1,0.3,2.7,0.8c0.7,0.5,1,1.2,1,2.1h-2.4c0-0.3-0.1-0.6-0.3-0.9c-0.2-0.2-0.6-0.3-1-0.3
			c-0.4,0-0.7,0.1-0.9,0.3c-0.2,0.2-0.3,0.4-0.3,0.7c0,0.3,0.1,0.5,0.4,0.6c0.3,0.2,0.7,0.3,1.3,0.4s1.1,0.3,1.5,0.4
			c1.3,0.5,1.9,1.3,1.9,2.4c0,0.8-0.4,1.5-1.1,2c-0.7,0.5-1.6,0.8-2.7,0.8c-0.8,0-1.4-0.1-2-0.4c-0.6-0.3-1-0.6-1.4-1.1
			s-0.5-1-0.5-1.5h2.3c0,0.4,0.2,0.8,0.5,1s0.7,0.3,1.2,0.3c0.5,0,0.8-0.1,1-0.3C484.7,263.2,484.8,263,484.8,262.7z"/>
		<path class="st4" d="M491.6,254v2.2h1.5v1.8h-1.5v4.5c0,0.3,0.1,0.6,0.2,0.7s0.4,0.2,0.7,0.2c0.3,0,0.5,0,0.7-0.1v1.8
			c-0.5,0.1-1,0.2-1.5,0.2c-1.7,0-2.5-0.8-2.6-2.5V258h-1.3v-1.8h1.3V254H491.6z"/>
		<path class="st4" d="M499.7,265.2c-0.1-0.2-0.2-0.5-0.2-0.8c-0.6,0.6-1.3,1-2.3,1c-0.9,0-1.6-0.3-2.2-0.8
			c-0.6-0.5-0.9-1.2-0.9-1.9c0-1,0.4-1.7,1.1-2.2c0.7-0.5,1.7-0.8,3.1-0.8h1.1v-0.5c0-0.4-0.1-0.7-0.3-1c-0.2-0.2-0.5-0.4-1-0.4
			c-0.4,0-0.7,0.1-1,0.3c-0.2,0.2-0.3,0.5-0.3,0.8h-2.4c0-0.5,0.2-1,0.5-1.4c0.3-0.4,0.8-0.8,1.4-1s1.2-0.4,2-0.4
			c1.1,0,2,0.3,2.6,0.8c0.6,0.6,1,1.3,1,2.3v3.9c0,0.9,0.1,1.5,0.4,1.9v0.1H499.7z M497.7,263.5c0.4,0,0.7-0.1,1-0.2
			c0.3-0.2,0.5-0.4,0.7-0.6v-1.5h-0.9c-1.2,0-1.8,0.4-1.9,1.2l0,0.1c0,0.3,0.1,0.5,0.3,0.7S497.3,263.5,497.7,263.5z"/>
		<path class="st4" d="M506.1,265.2h-2.4v-12.8h2.4V265.2z"/>
		<path class="st4" d="M513.3,265.2c-0.1-0.2-0.2-0.5-0.2-0.8c-0.6,0.6-1.3,1-2.3,1c-0.9,0-1.6-0.3-2.2-0.8
			c-0.6-0.5-0.9-1.2-0.9-1.9c0-1,0.4-1.7,1.1-2.2c0.7-0.5,1.7-0.8,3.1-0.8h1.1v-0.5c0-0.4-0.1-0.7-0.3-1c-0.2-0.2-0.5-0.4-1-0.4
			c-0.4,0-0.7,0.1-1,0.3c-0.2,0.2-0.3,0.5-0.3,0.8h-2.4c0-0.5,0.2-1,0.5-1.4c0.3-0.4,0.8-0.8,1.4-1c0.6-0.3,1.2-0.4,2-0.4
			c1.1,0,2,0.3,2.6,0.8c0.7,0.6,1,1.3,1,2.3v3.9c0,0.9,0.1,1.5,0.4,1.9v0.1H513.3z M511.3,263.5c0.4,0,0.7-0.1,1-0.2
			c0.3-0.2,0.5-0.4,0.7-0.6v-1.5H512c-1.2,0-1.8,0.4-1.9,1.2l0,0.1c0,0.3,0.1,0.5,0.3,0.7C510.6,263.4,510.9,263.5,511.3,263.5z"/>
		<path class="st4" d="M520.9,263.4c0.4,0,0.8-0.1,1.1-0.4c0.3-0.2,0.4-0.6,0.4-1h2.2c0,0.6-0.2,1.2-0.5,1.7
			c-0.3,0.5-0.8,0.9-1.3,1.2c-0.6,0.3-1.2,0.4-1.9,0.4c-1.3,0-2.3-0.4-3-1.2c-0.7-0.8-1.1-1.9-1.1-3.4v-0.2c0-1.4,0.4-2.5,1.1-3.3
			c0.7-0.8,1.7-1.2,3-1.2c1.1,0,2,0.3,2.7,1c0.7,0.6,1,1.5,1,2.6h-2.2c0-0.5-0.2-0.8-0.4-1.1c-0.3-0.3-0.6-0.4-1.1-0.4
			c-0.6,0-1,0.2-1.3,0.6c-0.3,0.4-0.4,1.1-0.4,2v0.2c0,0.9,0.1,1.6,0.4,2S520.3,263.4,520.9,263.4z"/>
		<path class="st4" d="M526,253.9c0-0.4,0.1-0.7,0.4-0.9c0.2-0.2,0.6-0.3,1-0.3c0.4,0,0.7,0.1,1,0.3c0.2,0.2,0.4,0.5,0.4,0.9
			c0,0.4-0.1,0.7-0.4,0.9c-0.2,0.2-0.6,0.3-1,0.3c-0.4,0-0.7-0.1-1-0.3S526,254.2,526,253.9z M528.6,265.2h-2.4v-9h2.4V265.2z"/>
		<path class="st4" d="M530.2,260.6c0-0.9,0.2-1.7,0.5-2.4c0.3-0.7,0.8-1.2,1.5-1.6c0.6-0.4,1.4-0.6,2.2-0.6c1.2,0,2.2,0.4,3,1.1
			s1.2,1.7,1.3,3l0,0.6c0,1.4-0.4,2.5-1.2,3.3c-0.8,0.8-1.8,1.2-3.1,1.2s-2.3-0.4-3.1-1.2c-0.8-0.8-1.2-2-1.2-3.4V260.6z
			 M532.6,260.8c0,0.9,0.2,1.5,0.5,2c0.3,0.5,0.8,0.7,1.4,0.7c0.6,0,1-0.2,1.4-0.7c0.3-0.4,0.5-1.2,0.5-2.1c0-0.8-0.2-1.5-0.5-1.9
			c-0.3-0.5-0.8-0.7-1.4-0.7c-0.6,0-1,0.2-1.4,0.7C532.7,259.1,532.6,259.8,532.6,260.8z M534.9,252.4h2.6l-2.3,2.6h-2L534.9,252.4z
			"/>
		<path class="st4" d="M542.4,256.2l0.1,1c0.6-0.8,1.5-1.2,2.6-1.2c1,0,1.7,0.3,2.1,0.8c0.5,0.6,0.7,1.4,0.7,2.5v5.8h-2.4v-5.8
			c0-0.5-0.1-0.9-0.3-1.1c-0.2-0.2-0.6-0.3-1.1-0.3c-0.7,0-1.2,0.3-1.5,0.9v6.3h-2.4v-9H542.4z"/>
	</g>
	<g class="st3">
		<path class="st4" d="M437.7,281c0-1.4,0.3-2.5,0.9-3.3c0.6-0.8,1.5-1.2,2.6-1.2c0.9,0,1.6,0.3,2.2,1v-4.6h2.4v12.8h-2.2l-0.1-1
			c-0.6,0.7-1.4,1.1-2.3,1.1c-1.1,0-1.9-0.4-2.5-1.2C438.1,283.7,437.7,282.5,437.7,281z M440.1,281.2c0,0.8,0.1,1.5,0.4,1.9
			s0.7,0.7,1.3,0.7c0.7,0,1.3-0.3,1.6-0.9v-3.6c-0.3-0.6-0.8-0.9-1.6-0.9C440.7,278.4,440.1,279.3,440.1,281.2z"/>
		<path class="st4" d="M451.8,285.7c-1.3,0-2.4-0.4-3.2-1.2c-0.8-0.8-1.2-1.9-1.2-3.2v-0.2c0-0.9,0.2-1.7,0.5-2.4s0.8-1.3,1.5-1.6
			c0.6-0.4,1.4-0.6,2.2-0.6c1.2,0,2.2,0.4,2.9,1.2c0.7,0.8,1.1,1.9,1.1,3.3v1h-5.7c0.1,0.6,0.3,1.1,0.7,1.4c0.4,0.4,0.9,0.5,1.5,0.5
			c0.9,0,1.6-0.3,2.2-1l1.2,1.3c-0.4,0.5-0.8,0.9-1.5,1.2S452.6,285.7,451.8,285.7z M451.6,278.4c-0.5,0-0.9,0.2-1.2,0.5
			c-0.3,0.3-0.5,0.8-0.6,1.4h3.3V280c0-0.5-0.2-0.9-0.4-1.2S452.1,278.4,451.6,278.4z"/>
		<path class="st4" d="M461.3,285.6v-12.1h3.7c1.1,0,2,0.2,2.9,0.7c0.8,0.5,1.5,1.2,2,2s0.7,1.9,0.7,3v0.6c0,1.1-0.2,2.1-0.7,3
			c-0.5,0.9-1.1,1.6-2,2s-1.8,0.7-2.8,0.7H461.3z M463.8,275.5v8.1h1.2c1,0,1.7-0.3,2.2-1s0.8-1.5,0.8-2.7v-0.6
			c0-1.2-0.3-2.2-0.8-2.8s-1.3-1-2.2-1H463.8z"/>
		<path class="st4" d="M471.8,281c0-0.9,0.2-1.7,0.5-2.4s0.8-1.2,1.5-1.6c0.6-0.4,1.4-0.6,2.2-0.6c1.2,0,2.2,0.4,3,1.1
			c0.8,0.7,1.2,1.7,1.3,3l0,0.6c0,1.4-0.4,2.5-1.2,3.3s-1.8,1.2-3.1,1.2s-2.3-0.4-3.1-1.2c-0.8-0.8-1.2-2-1.2-3.4V281z M474.2,281.2
			c0,0.9,0.2,1.5,0.5,2c0.3,0.5,0.8,0.7,1.4,0.7c0.6,0,1-0.2,1.4-0.7s0.5-1.2,0.5-2.1c0-0.8-0.2-1.5-0.5-1.9s-0.8-0.7-1.4-0.7
			c-0.6,0-1,0.2-1.4,0.7S474.2,280.2,474.2,281.2z"/>
		<path class="st4" d="M485.5,283.8c0.4,0,0.8-0.1,1.1-0.4c0.3-0.2,0.4-0.6,0.4-1h2.2c0,0.6-0.2,1.2-0.5,1.7
			c-0.3,0.5-0.8,0.9-1.3,1.2c-0.6,0.3-1.2,0.4-1.9,0.4c-1.3,0-2.3-0.4-3-1.2s-1.1-1.9-1.1-3.4V281c0-1.4,0.4-2.5,1.1-3.3
			c0.7-0.8,1.7-1.2,3-1.2c1.1,0,2,0.3,2.7,1c0.7,0.6,1,1.5,1,2.6H487c0-0.5-0.2-0.8-0.4-1.1s-0.6-0.4-1.1-0.4c-0.6,0-1,0.2-1.3,0.6
			c-0.3,0.4-0.4,1.1-0.4,2v0.2c0,0.9,0.1,1.6,0.4,2S484.9,283.8,485.5,283.8z"/>
		<path class="st4" d="M493.9,282l-0.9,0.9v2.7h-2.4v-12.8h2.4v7.1l0.5-0.6l2.3-2.7h2.9l-3.2,3.7l3.5,5.2h-2.8L493.9,282z"/>
		<path class="st4" d="M503.7,285.7c-1.3,0-2.4-0.4-3.2-1.2c-0.8-0.8-1.2-1.9-1.2-3.2v-0.2c0-0.9,0.2-1.7,0.5-2.4s0.8-1.3,1.5-1.6
			c0.6-0.4,1.4-0.6,2.2-0.6c1.2,0,2.2,0.4,2.9,1.2c0.7,0.8,1.1,1.9,1.1,3.3v1h-5.7c0.1,0.6,0.3,1.1,0.7,1.4c0.4,0.4,0.9,0.5,1.5,0.5
			c0.9,0,1.6-0.3,2.2-1l1.2,1.3c-0.4,0.5-0.8,0.9-1.5,1.2S504.4,285.7,503.7,285.7z M503.4,278.4c-0.5,0-0.9,0.2-1.2,0.5
			c-0.3,0.3-0.5,0.8-0.6,1.4h3.3V280c0-0.5-0.2-0.9-0.4-1.2C504.3,278.5,503.9,278.4,503.4,278.4z"/>
		<path class="st4" d="M513.8,278.8c-0.3,0-0.6-0.1-0.9-0.1c-0.9,0-1.5,0.3-1.8,0.9v5.9h-2.4v-9h2.3l0.1,1.1c0.5-0.8,1.1-1.2,2-1.2
			c0.3,0,0.5,0,0.7,0.1L513.8,278.8z"/>
	</g>
</g>
<g id="Grupo_54981" transform="translate(96.592 31)">
	<g id="Grupo_54974" transform="translate(221.909 1655.183)">
		
			<linearGradient id="Trazado_103009_1_" gradientUnits="userSpaceOnUse" x1="-108.7587" y1="-1087.7524" x2="-108.7587" y2="-1086.7524" gradientTransform="matrix(76.876 0 0 -97.989 8811.9932 -107924.0469)">
			<stop  offset="0" style="stop-color:#FFFFFF"/>
			<stop  offset="1" style="stop-color:#3AA9DA"/>
		</linearGradient>
		<path id="Trazado_103009" class="st9" d="M456-1336.3v-23.4h-43.4v-14.9l37.1-59.7h28v57.4h11.8v17.2h-11.8v23.4L456-1336.3z
			 M456-1376.8v-21.7c0-5.9,0.3-11.9,0.8-18.2h-0.6c-3.2,6.3-5.7,12.1-9,18.2l-13.1,21.4v0.3L456-1376.8z"/>
		
			<linearGradient id="Trazado_103010_1_" gradientUnits="userSpaceOnUse" x1="-107.4482" y1="-1087.2526" x2="-106.4482" y2="-1087.2526" gradientTransform="matrix(223.81 0 0 -97.984 24523.9199 -107918.6172)">
			<stop  offset="0" style="stop-color:#FFFFFF"/>
			<stop  offset="1" style="stop-color:#717170"/>
		</linearGradient>
		<path id="Trazado_103010" class="st10" d="M650.8-1336.3H475.9l15.8-98h159c27.1,0,49,21.9,49,49l0,0
			C699.7-1358.2,677.8-1336.3,650.8-1336.3z"/>
		<path id="Trazado_103011" class="st11" d="M477.7-1334.5H456c-1,0-1.8-0.8-1.8-1.8v-21.6h-41.7c-1,0-1.8-0.8-1.8-1.8v-14.9
			c0-0.3,0.1-0.6,0.3-0.9l37.1-59.7c0.3-0.5,0.9-0.8,1.5-0.8h28c1,0,1.8,0.8,1.8,1.8v55.7h10c1,0,1.8,0.8,1.8,1.8c0,0,0,0,0,0v17.2
			c0,1-0.8,1.8-1.8,1.8h-11.8c-1,0-1.7-0.8-1.7-1.8c0-0.9,0.8-1.7,1.7-1.7h10v-13.7h-10c-1,0-1.8-0.8-1.8-1.8v-55.7h-25.3
			l-36.3,58.4v12.7H456c1,0,1.8,0.8,1.8,1.8c0,0,0,0,0,0v21.6h19.9c1,0,1.8,0.8,1.8,1.8C479.5-1335.3,478.7-1334.5,477.7-1334.5
			L477.7-1334.5z M456-1375.1h-22c-1,0-1.8-0.8-1.8-1.8v-0.3c0-0.3,0.1-0.6,0.3-0.9l13.1-21.4c2.1-3.9,3.8-7.5,5.7-11.3
			c1.1-2.2,2.2-4.5,3.3-6.8c0.3-0.6,0.9-1,1.6-1h0.6c1,0,1.8,0.8,1.8,1.8c0,0,0,0.1,0,0.1c-0.5,7.2-0.7,12.9-0.7,18.1v21.7
			C457.8-1375.8,457-1375.1,456-1375.1L456-1375.1z M434-1377.1L434-1377.1z M437-1378.6h17.3v-19.9c0-3.3,0.1-6.9,0.3-10.9
			l-0.1,0.3c-1.9,3.9-3.6,7.6-5.8,11.5c0,0,0,0.1,0,0.1L437-1378.6z"/>
		<path id="Trazado_103012" class="st11" d="M650.8-1334.5H475.9c-1,0-1.8-0.8-1.8-1.8c0-1,0.8-1.8,1.8-1.8c0,0,0,0,0,0h174.8
			c26.1,0,47.2-21.1,47.2-47.2s-21.1-47.2-47.2-47.2l0,0H490.5c-1,0-1.8-0.8-1.8-1.8c0-1,0.8-1.8,1.8-1.8h160.2
			c28,0,50.8,22.7,50.8,50.8S678.8-1334.5,650.8-1334.5L650.8-1334.5L650.8-1334.5z"/>
	</g>
	<g class="st3">
		<path class="st4" d="M747.2,263.6c-0.4,0.5-1.1,1-1.9,1.2s-1.7,0.4-2.7,0.4c-1,0-2-0.2-2.8-0.7c-0.8-0.5-1.4-1.1-1.8-2
			c-0.4-0.9-0.6-1.9-0.7-3.1v-0.8c0-1.2,0.2-2.3,0.6-3.1c0.4-0.9,1-1.6,1.8-2c0.8-0.5,1.7-0.7,2.7-0.7c1.4,0,2.6,0.3,3.4,1
			s1.3,1.7,1.4,3h-2.4c-0.1-0.7-0.4-1.2-0.7-1.5c-0.4-0.3-0.9-0.5-1.6-0.5c-0.8,0-1.5,0.3-1.9,1c-0.4,0.6-0.7,1.6-0.7,2.8v0.8
			c0,1.3,0.2,2.2,0.7,2.9c0.5,0.6,1.2,1,2.1,1c0.9,0,1.6-0.2,2-0.6v-2.1h-2.3v-1.8h4.8V263.6z"/>
		<path class="st4" d="M754.5,264.3c-0.6,0.7-1.4,1.1-2.5,1.1c-1,0-1.7-0.3-2.2-0.8c-0.5-0.6-0.8-1.4-0.8-2.4v-5.9h2.4v5.8
			c0,0.9,0.4,1.4,1.3,1.4c0.8,0,1.4-0.3,1.7-0.8v-6.4h2.4v9h-2.3L754.5,264.3z"/>
		<path class="st4" d="M761.2,265.2h-2.4v-9h2.4V265.2z M760.5,252.5h2.6l-2.3,2.6h-2L760.5,252.5z"/>
		<path class="st4" d="M768.5,265.2c-0.1-0.2-0.2-0.5-0.2-0.8c-0.6,0.6-1.3,1-2.3,1c-0.9,0-1.6-0.3-2.2-0.8s-0.9-1.2-0.9-1.9
			c0-1,0.4-1.7,1.1-2.2c0.7-0.5,1.7-0.8,3.1-0.8h1.1v-0.5c0-0.4-0.1-0.7-0.3-1c-0.2-0.2-0.5-0.4-1-0.4c-0.4,0-0.7,0.1-1,0.3
			c-0.2,0.2-0.3,0.5-0.3,0.8h-2.4c0-0.5,0.2-1,0.5-1.4c0.3-0.4,0.8-0.8,1.4-1c0.6-0.3,1.2-0.4,2-0.4c1.1,0,2,0.3,2.6,0.8
			c0.7,0.6,1,1.3,1,2.3v3.9c0,0.9,0.1,1.5,0.4,1.9v0.1H768.5z M766.5,263.5c0.4,0,0.7-0.1,1-0.2c0.3-0.2,0.5-0.4,0.7-0.6v-1.5h-0.9
			c-1.2,0-1.8,0.4-1.9,1.2l0,0.1c0,0.3,0.1,0.5,0.3,0.7S766.1,263.5,766.5,263.5z"/>
		<path class="st4" d="M776.2,260.6c0-1.4,0.3-2.5,0.9-3.3c0.6-0.8,1.5-1.2,2.6-1.2c0.9,0,1.6,0.3,2.2,1v-4.6h2.4v12.8h-2.2l-0.1-1
			c-0.6,0.7-1.4,1.1-2.3,1.1c-1.1,0-1.9-0.4-2.5-1.2S776.2,262.1,776.2,260.6z M778.6,260.8c0,0.8,0.1,1.5,0.4,1.9
			c0.3,0.5,0.7,0.7,1.3,0.7c0.7,0,1.3-0.3,1.6-0.9v-3.6c-0.3-0.6-0.8-0.9-1.6-0.9C779.2,258,778.6,258.9,778.6,260.8z"/>
		<path class="st4" d="M790.3,265.3c-1.3,0-2.4-0.4-3.2-1.2c-0.8-0.8-1.2-1.9-1.2-3.2v-0.2c0-0.9,0.2-1.7,0.5-2.4s0.8-1.3,1.5-1.6
			c0.6-0.4,1.4-0.6,2.2-0.6c1.2,0,2.2,0.4,2.9,1.2s1.1,1.9,1.1,3.3v1h-5.7c0.1,0.6,0.3,1.1,0.7,1.4c0.4,0.4,0.9,0.5,1.5,0.5
			c0.9,0,1.6-0.3,2.2-1l1.2,1.3c-0.4,0.5-0.8,0.9-1.5,1.2S791.1,265.3,790.3,265.3z M790.1,258c-0.5,0-0.9,0.2-1.2,0.5
			c-0.3,0.3-0.5,0.8-0.6,1.4h3.3v-0.2c0-0.5-0.2-0.9-0.4-1.2C791,258.1,790.6,258,790.1,258z"/>
		<path class="st4" d="M802.4,265.2h-2.5v-12.1h2.5V265.2z"/>
		<path class="st4" d="M806.8,256.2l0.1,1c0.6-0.8,1.5-1.2,2.6-1.2c1,0,1.7,0.3,2.1,0.8c0.5,0.6,0.7,1.4,0.7,2.5v5.8h-2.4v-5.8
			c0-0.5-0.1-0.9-0.3-1.1c-0.2-0.2-0.6-0.3-1.1-0.3c-0.7,0-1.2,0.3-1.5,0.9v6.3h-2.4v-9H806.8z"/>
		<path class="st4" d="M819,262.7c0-0.3-0.1-0.5-0.4-0.7c-0.3-0.2-0.8-0.3-1.4-0.5c-2.1-0.4-3.2-1.4-3.2-2.7c0-0.8,0.3-1.5,1-2
			c0.7-0.5,1.5-0.8,2.6-0.8c1.1,0,2.1,0.3,2.7,0.8c0.7,0.5,1,1.2,1,2.1h-2.4c0-0.3-0.1-0.6-0.3-0.9c-0.2-0.2-0.6-0.3-1-0.3
			c-0.4,0-0.7,0.1-0.9,0.3c-0.2,0.2-0.3,0.4-0.3,0.7c0,0.3,0.1,0.5,0.4,0.6s0.7,0.3,1.3,0.4s1.1,0.3,1.5,0.4
			c1.3,0.5,1.9,1.3,1.9,2.4c0,0.8-0.4,1.5-1.1,2c-0.7,0.5-1.6,0.8-2.7,0.8c-0.8,0-1.4-0.1-2-0.4s-1-0.6-1.4-1.1s-0.5-1-0.5-1.5h2.3
			c0,0.4,0.2,0.8,0.5,1c0.3,0.2,0.7,0.3,1.2,0.3c0.5,0,0.8-0.1,1-0.3C818.8,263.2,819,263,819,262.7z"/>
		<path class="st4" d="M825.7,254v2.2h1.5v1.8h-1.5v4.5c0,0.3,0.1,0.6,0.2,0.7c0.1,0.1,0.4,0.2,0.7,0.2c0.3,0,0.5,0,0.7-0.1v1.8
			c-0.5,0.1-1,0.2-1.5,0.2c-1.7,0-2.5-0.8-2.6-2.5v-4.8H822v-1.8h1.3V254H825.7z"/>
		<path class="st4" d="M833.8,265.2c-0.1-0.2-0.2-0.5-0.2-0.8c-0.6,0.6-1.3,1-2.3,1c-0.9,0-1.6-0.3-2.2-0.8s-0.9-1.2-0.9-1.9
			c0-1,0.4-1.7,1.1-2.2c0.7-0.5,1.7-0.8,3.1-0.8h1.1v-0.5c0-0.4-0.1-0.7-0.3-1c-0.2-0.2-0.5-0.4-1-0.4c-0.4,0-0.7,0.1-1,0.3
			c-0.2,0.2-0.3,0.5-0.3,0.8h-2.4c0-0.5,0.2-1,0.5-1.4c0.3-0.4,0.8-0.8,1.4-1c0.6-0.3,1.2-0.4,2-0.4c1.1,0,2,0.3,2.6,0.8
			c0.7,0.6,1,1.3,1,2.3v3.9c0,0.9,0.1,1.5,0.4,1.9v0.1H833.8z M831.8,263.5c0.4,0,0.7-0.1,1-0.2c0.3-0.2,0.5-0.4,0.7-0.6v-1.5h-0.9
			c-1.2,0-1.8,0.4-1.9,1.2l0,0.1c0,0.3,0.1,0.5,0.3,0.7S831.4,263.5,831.8,263.5z"/>
		<path class="st4" d="M840.2,265.2h-2.4v-12.8h2.4V265.2z"/>
		<path class="st4" d="M847.4,265.2c-0.1-0.2-0.2-0.5-0.2-0.8c-0.6,0.6-1.3,1-2.3,1c-0.9,0-1.6-0.3-2.2-0.8s-0.9-1.2-0.9-1.9
			c0-1,0.4-1.7,1.1-2.2c0.7-0.5,1.7-0.8,3.1-0.8h1.1v-0.5c0-0.4-0.1-0.7-0.3-1c-0.2-0.2-0.5-0.4-1-0.4c-0.4,0-0.7,0.1-1,0.3
			c-0.2,0.2-0.3,0.5-0.3,0.8H842c0-0.5,0.2-1,0.5-1.4c0.3-0.4,0.8-0.8,1.4-1s1.2-0.4,2-0.4c1.1,0,2,0.3,2.6,0.8c0.6,0.6,1,1.3,1,2.3
			v3.9c0,0.9,0.1,1.5,0.4,1.9v0.1H847.4z M845.4,263.5c0.4,0,0.7-0.1,1-0.2c0.3-0.2,0.5-0.4,0.7-0.6v-1.5h-0.9
			c-1.2,0-1.8,0.4-1.9,1.2l0,0.1c0,0.3,0.1,0.5,0.3,0.7C844.8,263.4,845.1,263.5,845.4,263.5z"/>
		<path class="st4" d="M855,263.4c0.4,0,0.8-0.1,1.1-0.4c0.3-0.2,0.4-0.6,0.4-1h2.2c0,0.6-0.2,1.2-0.5,1.7c-0.3,0.5-0.8,0.9-1.3,1.2
			s-1.2,0.4-1.9,0.4c-1.3,0-2.3-0.4-3-1.2s-1.1-1.9-1.1-3.4v-0.2c0-1.4,0.4-2.5,1.1-3.3c0.7-0.8,1.7-1.2,3-1.2c1.1,0,2,0.3,2.7,1
			c0.7,0.6,1,1.5,1,2.6h-2.2c0-0.5-0.2-0.8-0.4-1.1c-0.3-0.3-0.6-0.4-1.1-0.4c-0.6,0-1,0.2-1.3,0.6s-0.4,1.1-0.4,2v0.2
			c0,0.9,0.1,1.6,0.4,2S854.5,263.4,855,263.4z"/>
		<path class="st4" d="M860.2,253.9c0-0.4,0.1-0.7,0.4-0.9c0.2-0.2,0.6-0.3,1-0.3c0.4,0,0.7,0.1,1,0.3c0.2,0.2,0.4,0.5,0.4,0.9
			c0,0.4-0.1,0.7-0.4,0.9c-0.2,0.2-0.6,0.3-1,0.3c-0.4,0-0.7-0.1-1-0.3S860.2,254.2,860.2,253.9z M862.7,265.2h-2.4v-9h2.4V265.2z"
			/>
		<path class="st4" d="M864.3,260.6c0-0.9,0.2-1.7,0.5-2.4c0.3-0.7,0.8-1.2,1.5-1.6c0.6-0.4,1.4-0.6,2.2-0.6c1.2,0,2.2,0.4,3,1.1
			c0.8,0.7,1.2,1.7,1.3,3l0,0.6c0,1.4-0.4,2.5-1.2,3.3c-0.8,0.8-1.8,1.2-3.1,1.2s-2.3-0.4-3.1-1.2c-0.8-0.8-1.2-2-1.2-3.4V260.6z
			 M866.7,260.8c0,0.9,0.2,1.5,0.5,2c0.3,0.5,0.8,0.7,1.4,0.7c0.6,0,1-0.2,1.4-0.7s0.5-1.2,0.5-2.1c0-0.8-0.2-1.5-0.5-1.9
			s-0.8-0.7-1.4-0.7c-0.6,0-1,0.2-1.4,0.7S866.7,259.8,866.7,260.8z M869,252.4h2.6l-2.3,2.6h-2L869,252.4z"/>
		<path class="st4" d="M876.5,256.2l0.1,1c0.6-0.8,1.5-1.2,2.6-1.2c1,0,1.7,0.3,2.1,0.8c0.5,0.6,0.7,1.4,0.7,2.5v5.8h-2.4v-5.8
			c0-0.5-0.1-0.9-0.3-1.1c-0.2-0.2-0.6-0.3-1.1-0.3c-0.7,0-1.2,0.3-1.5,0.9v6.3h-2.4v-9H876.5z"/>
	</g>
	<g class="st3">
		<path class="st4" d="M771.2,281c0-1.4,0.3-2.5,0.9-3.3s1.5-1.2,2.6-1.2c0.9,0,1.6,0.3,2.2,1v-4.6h2.4v12.8h-2.2l-0.1-1
			c-0.6,0.7-1.4,1.1-2.3,1.1c-1.1,0-1.9-0.4-2.5-1.2C771.5,283.7,771.2,282.5,771.2,281z M773.6,281.2c0,0.8,0.1,1.5,0.4,1.9
			c0.3,0.5,0.7,0.7,1.3,0.7c0.7,0,1.3-0.3,1.6-0.9v-3.6c-0.3-0.6-0.8-0.9-1.6-0.9C774.1,278.4,773.6,279.3,773.6,281.2z"/>
		<path class="st4" d="M785.3,285.7c-1.3,0-2.4-0.4-3.2-1.2s-1.2-1.9-1.2-3.2v-0.2c0-0.9,0.2-1.7,0.5-2.4s0.8-1.3,1.5-1.6
			c0.6-0.4,1.4-0.6,2.2-0.6c1.2,0,2.2,0.4,2.9,1.2c0.7,0.8,1.1,1.9,1.1,3.3v1h-5.7c0.1,0.6,0.3,1.1,0.7,1.4c0.4,0.4,0.9,0.5,1.5,0.5
			c0.9,0,1.6-0.3,2.2-1l1.2,1.3c-0.4,0.5-0.8,0.9-1.5,1.2S786,285.7,785.3,285.7z M785,278.4c-0.5,0-0.9,0.2-1.2,0.5
			c-0.3,0.3-0.5,0.8-0.6,1.4h3.3V280c0-0.5-0.2-0.9-0.4-1.2C785.9,278.5,785.5,278.4,785,278.4z"/>
		<path class="st4" d="M799,277.7l2.3-4.2h2.9l-3.5,6l3.6,6.1h-2.9l-2.3-4.2l-2.3,4.2h-2.9l3.6-6.1l-3.5-6h2.9L799,277.7z"/>
		<path class="st4" d="M808.7,281.4H804v-1.9h4.7V281.4z"/>
		<path class="st4" d="M815.3,281.1h-2v4.4h-2.5v-12.1h4.5c1.4,0,2.5,0.3,3.3,1c0.8,0.6,1.2,1.5,1.2,2.7c0,0.8-0.2,1.5-0.5,2.1
			c-0.4,0.6-0.9,1-1.6,1.3l2.6,4.9v0.1h-2.7L815.3,281.1z M813.3,279.1h2c0.6,0,1.1-0.2,1.5-0.5c0.3-0.3,0.5-0.8,0.5-1.3
			c0-0.6-0.2-1-0.5-1.3c-0.3-0.3-0.8-0.5-1.5-0.5h-2V279.1z"/>
		<path class="st4" d="M821.1,281c0-0.9,0.2-1.7,0.5-2.4c0.3-0.7,0.8-1.2,1.5-1.6c0.6-0.4,1.4-0.6,2.2-0.6c1.2,0,2.2,0.4,3,1.1
			s1.2,1.7,1.3,3l0,0.6c0,1.4-0.4,2.5-1.2,3.3c-0.8,0.8-1.8,1.2-3.1,1.2s-2.3-0.4-3.1-1.2c-0.8-0.8-1.2-2-1.2-3.4V281z M823.5,281.2
			c0,0.9,0.2,1.5,0.5,2c0.3,0.5,0.8,0.7,1.4,0.7c0.6,0,1-0.2,1.4-0.7c0.3-0.4,0.5-1.2,0.5-2.1c0-0.8-0.2-1.5-0.5-1.9
			c-0.3-0.5-0.8-0.7-1.4-0.7c-0.6,0-1,0.2-1.4,0.7C823.7,279.5,823.5,280.2,823.5,281.2z"/>
		<path class="st4" d="M836.3,285.6c-0.1-0.2-0.2-0.5-0.2-0.8c-0.6,0.6-1.3,1-2.3,1c-0.9,0-1.6-0.3-2.2-0.8s-0.9-1.2-0.9-1.9
			c0-1,0.4-1.7,1.1-2.2c0.7-0.5,1.7-0.8,3.1-0.8h1.1v-0.5c0-0.4-0.1-0.7-0.3-1c-0.2-0.2-0.5-0.4-1-0.4c-0.4,0-0.7,0.1-1,0.3
			c-0.2,0.2-0.3,0.5-0.3,0.8h-2.4c0-0.5,0.2-1,0.5-1.4c0.3-0.4,0.8-0.8,1.4-1c0.6-0.3,1.2-0.4,2-0.4c1.1,0,2,0.3,2.6,0.8
			c0.6,0.6,1,1.3,1,2.3v3.9c0,0.9,0.1,1.5,0.4,1.9v0.1H836.3z M834.3,283.9c0.4,0,0.7-0.1,1-0.2c0.3-0.2,0.5-0.4,0.7-0.6v-1.5h-0.9
			c-1.2,0-1.8,0.4-1.9,1.2l0,0.1c0,0.3,0.1,0.5,0.3,0.7C833.7,283.8,834,283.9,834.3,283.9z"/>
		<path class="st4" d="M839.8,281c0-1.4,0.3-2.5,0.9-3.3c0.6-0.8,1.5-1.2,2.6-1.2c0.9,0,1.6,0.3,2.2,1v-4.6h2.4v12.8h-2.2l-0.1-1
			c-0.6,0.7-1.4,1.1-2.3,1.1c-1.1,0-1.9-0.4-2.5-1.2C840.2,283.7,839.8,282.5,839.8,281z M842.2,281.2c0,0.8,0.1,1.5,0.4,1.9
			c0.3,0.5,0.7,0.7,1.3,0.7c0.7,0,1.3-0.3,1.6-0.9v-3.6c-0.3-0.6-0.8-0.9-1.6-0.9C842.8,278.4,842.2,279.3,842.2,281.2z"/>
	</g>
</g>
<g id="Grupo_54979" transform="translate(39.421 3)">
	<g id="Grupo_54978" transform="translate(221.909 1626.183)">
		
			<linearGradient id="Trazado_103021_1_" gradientUnits="userSpaceOnUse" x1="-51.8526" y1="-1030.6965" x2="-51.8526" y2="-1029.6965" gradientTransform="matrix(70.138 0 0 -99.854 3932.3523 -104446.7422)">
			<stop  offset="0" style="stop-color:#FFFFFF"/>
			<stop  offset="1" style="stop-color:#3AA9DA"/>
		</linearGradient>
		<path id="Trazado_103021" class="st12" d="M260.4-1527.6v-13.9l12.8-11.5c21.6-19.2,32.1-30.2,32.4-41.7c0-8-4.9-14.4-16.3-14.4
			c-8.5,0-16,4.2-21.1,8.2l-6.5-16.5c7.5-5.6,19-10.1,32.4-10.1c22.4,0,34.7,13,34.7,30.8c0,16.5-12,29.6-26.3,42.3l-9.1,7.6v0.3
			h37.3v18.9H260.4z"/>
		
			<linearGradient id="Trazado_103022_1_" gradientUnits="userSpaceOnUse" x1="-50.2613" y1="-1030.2372" x2="-49.2613" y2="-1030.2372" gradientTransform="matrix(227.6349 0 0 -98.1926 11761.8438 -102738.3594)">
			<stop  offset="0" style="stop-color:#FFFFFF"/>
			<stop  offset="1" style="stop-color:#717170"/>
		</linearGradient>
		<path id="Trazado_103022" class="st13" d="M498.8-1527.6H320.6l13.7-98.2h164.5c27.2-0.1,49.3,21.9,49.4,49.1c0,0,0,0,0,0l0,0
			C548.1-1549.4,526-1527.5,498.8-1527.6z"/>
		<path id="Trazado_103023" class="st14" d="M330.6-1525.8h-70.1c-1,0-1.8-0.8-1.8-1.8v-13.9c0-0.5,0.2-1,0.6-1.3l12.8-11.5
			c21.8-19.3,31.5-29.8,31.8-40.4c0-8.1-5.2-12.5-14.5-12.5c-6.5,0-13.3,2.6-20.1,7.8c-0.4,0.3-1,0.4-1.6,0.3
			c-0.5-0.1-1-0.5-1.2-1.1l-6.5-16.5c-0.3-0.7-0.1-1.6,0.6-2.1c8.9-6.7,21.1-10.5,33.5-10.5c22.2,0,36.5,12.8,36.5,32.6
			c0,17.3-12.9,31.2-26.9,43.6l-5.8,4.8h32.7c1,0,1.8,0.8,1.8,1.8c0,1-0.8,1.8-1.8,1.8c0,0,0,0,0,0h-37.3c-1,0-1.8-0.8-1.8-1.8
			c0,0,0,0,0,0v-0.3c0-0.5,0.2-1,0.6-1.4l9.1-7.6c15.4-13.7,25.7-25.9,25.7-40.9c0-17.9-12.6-29.1-32.9-29.1
			c-11.1,0-22.1,3.3-30.3,9l5.2,13.1c6.8-4.7,13.7-7.1,20.3-7.1c11.3,0,18.1,6,18.1,16.1c-0.3,12-10.4,23-33,43l-12.2,10.9v11.4
			h68.4c1,0,1.8,0.8,1.8,1.8C332.4-1526.6,331.6-1525.8,330.6-1525.8C330.6-1525.8,330.6-1525.8,330.6-1525.8L330.6-1525.8z
			 M293.3-1546.7L293.3-1546.7z"/>
		<path id="Trazado_103024" class="st14" d="M498.8-1525.8H320.6c-1,0-1.8-0.8-1.8-1.8c0-1,0.8-1.8,1.8-1.8c0,0,0,0,0,0h178.2
			c26.1,0.2,47.5-20.8,47.7-47c0.2-26.1-20.8-47.5-47-47.7c-0.3,0-0.5,0-0.8,0H330.4c-1,0-1.8-0.7-1.8-1.7c0-1,0.7-1.8,1.7-1.8
			c0,0,0.1,0,0.1,0h168.4c28.1-0.2,51,22.5,51.2,50.5c0.2,28.1-22.5,51-50.5,51.2C499.2-1525.8,499-1525.8,498.8-1525.8z"/>
	</g>
	<g class="st3">
		<path class="st4" d="M638.3,31.7c-0.4,0.5-1.1,1-1.9,1.2c-0.8,0.3-1.7,0.4-2.7,0.4c-1,0-2-0.2-2.8-0.7c-0.8-0.5-1.4-1.1-1.8-2
			s-0.6-1.9-0.7-3.1v-0.8c0-1.2,0.2-2.3,0.6-3.1c0.4-0.9,1-1.6,1.8-2s1.7-0.7,2.7-0.7c1.4,0,2.6,0.3,3.4,1c0.8,0.7,1.3,1.7,1.4,3
			h-2.4c-0.1-0.7-0.4-1.2-0.7-1.5s-0.9-0.5-1.6-0.5c-0.8,0-1.5,0.3-1.9,1c-0.4,0.6-0.7,1.6-0.7,2.8v0.8c0,1.3,0.2,2.2,0.7,2.9
			s1.2,1,2.1,1c0.9,0,1.6-0.2,2-0.6v-2.1h-2.3v-1.8h4.8V31.7z"/>
		<path class="st4" d="M645.6,32.3c-0.6,0.7-1.4,1.1-2.5,1.1c-1,0-1.7-0.3-2.2-0.8c-0.5-0.6-0.8-1.4-0.8-2.4v-5.9h2.4v5.8
			c0,0.9,0.4,1.4,1.3,1.4c0.8,0,1.4-0.3,1.7-0.8v-6.4h2.4v9h-2.3L645.6,32.3z"/>
		<path class="st4" d="M652.3,33.2h-2.4v-9h2.4V33.2z M651.6,20.6h2.6l-2.3,2.6h-2L651.6,20.6z"/>
		<path class="st4" d="M659.6,33.2c-0.1-0.2-0.2-0.5-0.2-0.8c-0.6,0.6-1.3,1-2.3,1c-0.9,0-1.6-0.3-2.2-0.8c-0.6-0.5-0.9-1.2-0.9-1.9
			c0-1,0.4-1.7,1.1-2.2c0.7-0.5,1.7-0.8,3.1-0.8h1.1v-0.5c0-0.4-0.1-0.7-0.3-1c-0.2-0.2-0.5-0.4-1-0.4c-0.4,0-0.7,0.1-1,0.3
			c-0.2,0.2-0.3,0.5-0.3,0.8h-2.4c0-0.5,0.2-1,0.5-1.4c0.3-0.4,0.8-0.8,1.4-1c0.6-0.3,1.2-0.4,2-0.4c1.1,0,2,0.3,2.6,0.8
			c0.7,0.6,1,1.3,1,2.3v3.9c0,0.9,0.1,1.5,0.4,1.9v0.1H659.6z M657.6,31.6c0.4,0,0.7-0.1,1-0.2c0.3-0.2,0.5-0.4,0.7-0.6v-1.5h-0.9
			c-1.2,0-1.8,0.4-1.9,1.2l0,0.1c0,0.3,0.1,0.5,0.3,0.7C656.9,31.5,657.2,31.6,657.6,31.6z"/>
		<path class="st4" d="M667.3,28.7c0-1.4,0.3-2.5,0.9-3.3s1.5-1.2,2.6-1.2c0.9,0,1.6,0.3,2.2,1v-4.6h2.4v12.8h-2.2l-0.1-1
			c-0.6,0.7-1.4,1.1-2.3,1.1c-1.1,0-1.9-0.4-2.5-1.2C667.6,31.3,667.3,30.2,667.3,28.7z M669.7,28.9c0,0.8,0.1,1.5,0.4,1.9
			c0.3,0.5,0.7,0.7,1.3,0.7c0.7,0,1.3-0.3,1.6-0.9V27c-0.3-0.6-0.8-0.9-1.6-0.9C670.3,26,669.7,27,669.7,28.9z"/>
		<path class="st4" d="M681.4,33.4c-1.3,0-2.4-0.4-3.2-1.2S677,30.3,677,29v-0.2c0-0.9,0.2-1.7,0.5-2.4s0.8-1.3,1.5-1.6
			c0.6-0.4,1.4-0.6,2.2-0.6c1.2,0,2.2,0.4,2.9,1.2c0.7,0.8,1.1,1.9,1.1,3.3v1h-5.7c0.1,0.6,0.3,1.1,0.7,1.4c0.4,0.4,0.9,0.5,1.5,0.5
			c0.9,0,1.6-0.3,2.2-1l1.2,1.3c-0.4,0.5-0.8,0.9-1.5,1.2S682.2,33.4,681.4,33.4z M681.1,26c-0.5,0-0.9,0.2-1.2,0.5
			c-0.3,0.3-0.5,0.8-0.6,1.4h3.3v-0.2c0-0.5-0.2-0.9-0.4-1.2C682,26.2,681.6,26,681.1,26z"/>
	</g>
	<g class="st3">
		<path class="st4" d="M584.7,53.6h-2.5V41.6h2.5V53.6z"/>
		<path class="st4" d="M589.1,44.7l0.1,1c0.6-0.8,1.5-1.2,2.6-1.2c1.2,0,2,0.5,2.4,1.4c0.6-0.9,1.5-1.4,2.7-1.4c1,0,1.7,0.3,2.2,0.9
			c0.5,0.6,0.7,1.4,0.7,2.6v5.7h-2.4v-5.7c0-0.5-0.1-0.9-0.3-1.1c-0.2-0.2-0.6-0.4-1.1-0.4c-0.7,0-1.2,0.3-1.5,1l0,6.2h-2.4v-5.7
			c0-0.5-0.1-0.9-0.3-1.1c-0.2-0.2-0.6-0.3-1-0.3c-0.7,0-1.2,0.3-1.5,0.8v6.4h-2.4v-9H589.1z"/>
		<path class="st4" d="M609.7,49.2c0,1.4-0.3,2.5-0.9,3.3c-0.6,0.8-1.5,1.2-2.5,1.2c-0.9,0-1.6-0.3-2.2-0.9v4.2h-2.4V44.7h2.2
			l0.1,0.9c0.6-0.7,1.3-1,2.3-1c1.1,0,2,0.4,2.6,1.2s0.9,1.9,0.9,3.4V49.2z M607.3,49.1c0-0.8-0.1-1.5-0.4-1.9s-0.7-0.7-1.3-0.7
			c-0.8,0-1.3,0.3-1.6,0.9V51c0.3,0.6,0.8,0.9,1.6,0.9C606.7,51.9,607.3,50.9,607.3,49.1z"/>
		<path class="st4" d="M613.7,53.6h-2.4V40.9h2.4V53.6z"/>
		<path class="st4" d="M619.8,53.8c-1.3,0-2.4-0.4-3.2-1.2c-0.8-0.8-1.2-1.9-1.2-3.2v-0.2c0-0.9,0.2-1.7,0.5-2.4s0.8-1.3,1.5-1.6
			c0.6-0.4,1.4-0.6,2.2-0.6c1.2,0,2.2,0.4,2.9,1.2c0.7,0.8,1.1,1.9,1.1,3.3v1h-5.7c0.1,0.6,0.3,1.1,0.7,1.4c0.4,0.4,0.9,0.5,1.5,0.5
			c0.9,0,1.6-0.3,2.2-1l1.2,1.3c-0.4,0.5-0.8,0.9-1.5,1.2S620.5,53.8,619.8,53.8z M619.5,46.4c-0.5,0-0.9,0.2-1.2,0.5
			s-0.5,0.8-0.6,1.4h3.3v-0.2c0-0.5-0.2-0.9-0.4-1.2C620.4,46.6,620,46.4,619.5,46.4z"/>
		<path class="st4" d="M627.1,44.7l0.1,1c0.6-0.8,1.5-1.2,2.6-1.2c1.2,0,2,0.5,2.4,1.4c0.6-0.9,1.5-1.4,2.7-1.4c1,0,1.7,0.3,2.2,0.9
			c0.5,0.6,0.7,1.4,0.7,2.6v5.7h-2.4v-5.7c0-0.5-0.1-0.9-0.3-1.1c-0.2-0.2-0.6-0.4-1.1-0.4c-0.7,0-1.2,0.3-1.5,1l0,6.2h-2.4v-5.7
			c0-0.5-0.1-0.9-0.3-1.1c-0.2-0.2-0.6-0.3-1-0.3c-0.7,0-1.2,0.3-1.5,0.8v6.4h-2.4v-9H627.1z"/>
		<path class="st4" d="M643.7,53.8c-1.3,0-2.4-0.4-3.2-1.2c-0.8-0.8-1.2-1.9-1.2-3.2v-0.2c0-0.9,0.2-1.7,0.5-2.4s0.8-1.3,1.5-1.6
			c0.6-0.4,1.4-0.6,2.2-0.6c1.2,0,2.2,0.4,2.9,1.2c0.7,0.8,1.1,1.9,1.1,3.3v1h-5.7c0.1,0.6,0.3,1.1,0.7,1.4c0.4,0.4,0.9,0.5,1.5,0.5
			c0.9,0,1.6-0.3,2.2-1l1.2,1.3c-0.4,0.5-0.8,0.9-1.5,1.2S644.5,53.8,643.7,53.8z M643.4,46.4c-0.5,0-0.9,0.2-1.2,0.5
			s-0.5,0.8-0.6,1.4h3.3v-0.2c0-0.5-0.2-0.9-0.4-1.2C644.3,46.6,643.9,46.4,643.4,46.4z"/>
		<path class="st4" d="M651,44.7l0.1,1c0.6-0.8,1.5-1.2,2.6-1.2c1,0,1.7,0.3,2.1,0.8c0.5,0.6,0.7,1.4,0.7,2.5v5.8h-2.4v-5.8
			c0-0.5-0.1-0.9-0.3-1.1c-0.2-0.2-0.6-0.3-1.1-0.3c-0.7,0-1.2,0.3-1.5,0.9v6.3h-2.4v-9H651z"/>
		<path class="st4" d="M661.2,42.5v2.2h1.5v1.8h-1.5v4.5c0,0.3,0.1,0.6,0.2,0.7c0.1,0.1,0.4,0.2,0.7,0.2c0.3,0,0.5,0,0.7-0.1v1.8
			c-0.5,0.1-1,0.2-1.5,0.2c-1.7,0-2.5-0.8-2.6-2.5v-4.8h-1.3v-1.8h1.3v-2.2H661.2z"/>
		<path class="st4" d="M669.2,53.6c-0.1-0.2-0.2-0.5-0.2-0.8c-0.6,0.6-1.3,1-2.3,1c-0.9,0-1.6-0.3-2.2-0.8s-0.9-1.2-0.9-1.9
			c0-1,0.4-1.7,1.1-2.2c0.7-0.5,1.7-0.8,3.1-0.8h1.1v-0.5c0-0.4-0.1-0.7-0.3-1c-0.2-0.2-0.5-0.4-1-0.4c-0.4,0-0.7,0.1-1,0.3
			c-0.2,0.2-0.3,0.5-0.3,0.8h-2.4c0-0.5,0.2-1,0.5-1.4c0.3-0.4,0.8-0.8,1.4-1c0.6-0.3,1.2-0.4,2-0.4c1.1,0,2,0.3,2.6,0.8
			c0.6,0.6,1,1.3,1,2.3v3.9c0,0.9,0.1,1.5,0.4,1.9v0.1H669.2z M667.2,52c0.4,0,0.7-0.1,1-0.2c0.3-0.2,0.5-0.4,0.7-0.6v-1.5H668
			c-1.2,0-1.8,0.4-1.9,1.2l0,0.1c0,0.3,0.1,0.5,0.3,0.7C666.6,51.9,666.9,52,667.2,52z"/>
		<path class="st4" d="M676.9,51.9c0.4,0,0.8-0.1,1.1-0.4c0.3-0.2,0.4-0.6,0.4-1h2.2c0,0.6-0.2,1.2-0.5,1.7
			c-0.3,0.5-0.8,0.9-1.3,1.2s-1.2,0.4-1.9,0.4c-1.3,0-2.3-0.4-3-1.2c-0.7-0.8-1.1-1.9-1.1-3.4v-0.2c0-1.4,0.4-2.5,1.1-3.3
			c0.7-0.8,1.7-1.2,3-1.2c1.1,0,2,0.3,2.7,1c0.7,0.6,1,1.5,1,2.6h-2.2c0-0.5-0.2-0.8-0.4-1.1c-0.3-0.3-0.6-0.4-1.1-0.4
			c-0.6,0-1,0.2-1.3,0.6s-0.4,1.1-0.4,2v0.2c0,0.9,0.1,1.6,0.4,2S676.3,51.9,676.9,51.9z"/>
		<path class="st4" d="M682,42.3c0-0.4,0.1-0.7,0.4-0.9c0.2-0.2,0.6-0.3,1-0.3c0.4,0,0.7,0.1,1,0.3c0.2,0.2,0.4,0.5,0.4,0.9
			c0,0.4-0.1,0.7-0.4,0.9s-0.6,0.3-1,0.3c-0.4,0-0.7-0.1-1-0.3C682.1,43,682,42.7,682,42.3z M684.5,53.6h-2.4v-9h2.4V53.6z"/>
		<path class="st4" d="M686.1,49.1c0-0.9,0.2-1.7,0.5-2.4c0.3-0.7,0.8-1.2,1.5-1.6c0.6-0.4,1.4-0.6,2.2-0.6c1.2,0,2.2,0.4,3,1.1
			c0.8,0.7,1.2,1.7,1.3,3l0,0.6c0,1.4-0.4,2.5-1.2,3.3c-0.8,0.8-1.8,1.2-3.1,1.2s-2.3-0.4-3.1-1.2c-0.8-0.8-1.2-2-1.2-3.4V49.1z
			 M688.5,49.2c0,0.9,0.2,1.5,0.5,2c0.3,0.5,0.8,0.7,1.4,0.7c0.6,0,1-0.2,1.4-0.7c0.3-0.4,0.5-1.2,0.5-2.1c0-0.8-0.2-1.5-0.5-1.9
			c-0.3-0.5-0.8-0.7-1.4-0.7c-0.6,0-1,0.2-1.4,0.7C688.7,47.6,688.5,48.3,688.5,49.2z M690.9,40.9h2.6l-2.3,2.6h-2L690.9,40.9z"/>
		<path class="st4" d="M698.3,44.7l0.1,1c0.6-0.8,1.5-1.2,2.6-1.2c1,0,1.7,0.3,2.1,0.8c0.5,0.6,0.7,1.4,0.7,2.5v5.8h-2.4v-5.8
			c0-0.5-0.1-0.9-0.3-1.1c-0.2-0.2-0.6-0.3-1.1-0.3c-0.7,0-1.2,0.3-1.5,0.9v6.3h-2.4v-9H698.3z"/>
		<path class="st4" d="M709.5,49.1c0-1.4,0.3-2.5,0.9-3.3c0.6-0.8,1.5-1.2,2.6-1.2c0.9,0,1.6,0.3,2.2,1v-4.6h2.4v12.8h-2.2l-0.1-1
			c-0.6,0.7-1.4,1.1-2.3,1.1c-1.1,0-1.9-0.4-2.5-1.2C709.8,51.7,709.5,50.6,709.5,49.1z M711.9,49.3c0,0.8,0.1,1.5,0.4,1.9
			c0.3,0.5,0.7,0.7,1.3,0.7c0.7,0,1.3-0.3,1.6-0.9v-3.6c-0.3-0.6-0.8-0.9-1.6-0.9C712.5,46.4,711.9,47.4,711.9,49.3z"/>
		<path class="st4" d="M723.6,53.8c-1.3,0-2.4-0.4-3.2-1.2c-0.8-0.8-1.2-1.9-1.2-3.2v-0.2c0-0.9,0.2-1.7,0.5-2.4s0.8-1.3,1.5-1.6
			c0.6-0.4,1.4-0.6,2.2-0.6c1.2,0,2.2,0.4,2.9,1.2c0.7,0.8,1.1,1.9,1.1,3.3v1h-5.7c0.1,0.6,0.3,1.1,0.7,1.4c0.4,0.4,0.9,0.5,1.5,0.5
			c0.9,0,1.6-0.3,2.2-1l1.2,1.3c-0.4,0.5-0.8,0.9-1.5,1.2S724.3,53.8,723.6,53.8z M723.3,46.4c-0.5,0-0.9,0.2-1.2,0.5
			s-0.5,0.8-0.6,1.4h3.3v-0.2c0-0.5-0.2-0.9-0.4-1.2C724.2,46.6,723.8,46.4,723.3,46.4z"/>
		<path class="st4" d="M731.2,53.6h-2.4V40.9h2.4V53.6z"/>
	</g>
	<g class="st3">
		<path class="st4" d="M624.2,74.2c-1.3,0-2.4-0.4-3.2-1.2c-0.8-0.8-1.2-1.9-1.2-3.2v-0.2c0-0.9,0.2-1.7,0.5-2.4s0.8-1.3,1.5-1.6
			c0.6-0.4,1.4-0.6,2.2-0.6c1.2,0,2.2,0.4,2.9,1.2c0.7,0.8,1.1,1.9,1.1,3.3v1h-5.7c0.1,0.6,0.3,1.1,0.7,1.4c0.4,0.4,0.9,0.5,1.5,0.5
			c0.9,0,1.6-0.3,2.2-1l1.2,1.3c-0.4,0.5-0.8,0.9-1.5,1.2S624.9,74.2,624.2,74.2z M623.9,66.8c-0.5,0-0.9,0.2-1.2,0.5
			s-0.5,0.8-0.6,1.4h3.3v-0.2c0-0.5-0.2-0.9-0.4-1.2C624.8,67,624.4,66.8,623.9,66.8z"/>
		<path class="st4" d="M634.1,71.6c0-0.3-0.1-0.5-0.4-0.7c-0.3-0.2-0.8-0.3-1.4-0.5c-2.1-0.4-3.2-1.4-3.2-2.7c0-0.8,0.3-1.5,1-2
			s1.5-0.8,2.6-0.8c1.1,0,2.1,0.3,2.7,0.8c0.7,0.5,1,1.2,1,2.1H634c0-0.3-0.1-0.6-0.3-0.9c-0.2-0.2-0.6-0.3-1-0.3
			c-0.4,0-0.7,0.1-0.9,0.3c-0.2,0.2-0.3,0.4-0.3,0.7c0,0.3,0.1,0.5,0.4,0.6s0.7,0.3,1.3,0.4s1.1,0.3,1.5,0.4
			c1.3,0.5,1.9,1.3,1.9,2.4c0,0.8-0.4,1.5-1.1,2c-0.7,0.5-1.6,0.8-2.7,0.8c-0.8,0-1.4-0.1-2-0.4s-1-0.6-1.4-1.1s-0.5-1-0.5-1.5h2.3
			c0,0.4,0.2,0.8,0.5,1c0.3,0.2,0.7,0.3,1.2,0.3c0.5,0,0.8-0.1,1-0.3C634,72.1,634.1,71.8,634.1,71.6z"/>
		<path class="st4" d="M641.7,72.3c0.4,0,0.8-0.1,1.1-0.4c0.3-0.2,0.4-0.6,0.4-1h2.2c0,0.6-0.2,1.2-0.5,1.7
			c-0.3,0.5-0.8,0.9-1.3,1.2s-1.2,0.4-1.9,0.4c-1.3,0-2.3-0.4-3-1.2c-0.7-0.8-1.1-1.9-1.1-3.4v-0.2c0-1.4,0.4-2.5,1.1-3.3
			c0.7-0.8,1.7-1.2,3-1.2c1.1,0,2,0.3,2.7,1c0.7,0.6,1,1.5,1,2.6h-2.2c0-0.5-0.2-0.8-0.4-1.1c-0.3-0.3-0.6-0.4-1.1-0.4
			c-0.6,0-1,0.2-1.3,0.6s-0.4,1.1-0.4,2v0.2c0,0.9,0.1,1.6,0.4,2S641.2,72.3,641.7,72.3z"/>
		<path class="st4" d="M651,74.2c-1.3,0-2.4-0.4-3.2-1.2c-0.8-0.8-1.2-1.9-1.2-3.2v-0.2c0-0.9,0.2-1.7,0.5-2.4s0.8-1.3,1.5-1.6
			c0.6-0.4,1.4-0.6,2.2-0.6c1.2,0,2.2,0.4,2.9,1.2c0.7,0.8,1.1,1.9,1.1,3.3v1H649c0.1,0.6,0.3,1.1,0.7,1.4c0.4,0.4,0.9,0.5,1.5,0.5
			c0.9,0,1.6-0.3,2.2-1l1.2,1.3c-0.4,0.5-0.8,0.9-1.5,1.2S651.7,74.2,651,74.2z M650.7,66.8c-0.5,0-0.9,0.2-1.2,0.5
			s-0.5,0.8-0.6,1.4h3.3v-0.2c0-0.5-0.2-0.9-0.4-1.2C651.6,67,651.2,66.8,650.7,66.8z"/>
		<path class="st4" d="M658.3,65.1l0.1,1c0.6-0.8,1.5-1.2,2.6-1.2c1,0,1.7,0.3,2.1,0.8c0.5,0.6,0.7,1.4,0.7,2.5V74h-2.4v-5.8
			c0-0.5-0.1-0.9-0.3-1.1c-0.2-0.2-0.6-0.3-1.1-0.3c-0.7,0-1.2,0.3-1.5,0.9V74H656v-9H658.3z"/>
		<path class="st4" d="M670.8,74c-0.1-0.2-0.2-0.5-0.2-0.8c-0.6,0.6-1.3,1-2.3,1c-0.9,0-1.6-0.3-2.2-0.8s-0.9-1.2-0.9-1.9
			c0-1,0.4-1.7,1.1-2.2c0.7-0.5,1.7-0.8,3.1-0.8h1.1V68c0-0.4-0.1-0.7-0.3-1c-0.2-0.2-0.5-0.4-1-0.4c-0.4,0-0.7,0.1-1,0.3
			c-0.2,0.2-0.3,0.5-0.3,0.8h-2.4c0-0.5,0.2-1,0.5-1.4c0.3-0.4,0.8-0.8,1.4-1c0.6-0.3,1.2-0.4,2-0.4c1.1,0,2,0.3,2.6,0.8
			c0.6,0.6,1,1.3,1,2.3V72c0,0.9,0.1,1.5,0.4,1.9V74H670.8z M668.8,72.4c0.4,0,0.7-0.1,1-0.2c0.3-0.2,0.5-0.4,0.7-0.6V70h-0.9
			c-1.2,0-1.8,0.4-1.9,1.2l0,0.1c0,0.3,0.1,0.5,0.3,0.7C668.1,72.3,668.4,72.4,668.8,72.4z"/>
		<path class="st4" d="M679.7,67.3c-0.3,0-0.6-0.1-0.9-0.1c-0.9,0-1.5,0.3-1.8,0.9V74h-2.4v-9h2.3l0.1,1.1c0.5-0.8,1.1-1.2,2-1.2
			c0.3,0,0.5,0,0.7,0.1L679.7,67.3z"/>
		<path class="st4" d="M680.9,62.7c0-0.4,0.1-0.7,0.4-0.9c0.2-0.2,0.6-0.3,1-0.3c0.4,0,0.7,0.1,1,0.3c0.2,0.2,0.4,0.5,0.4,0.9
			c0,0.4-0.1,0.7-0.4,0.9c-0.2,0.2-0.6,0.3-1,0.3c-0.4,0-0.7-0.1-1-0.3S680.9,63.1,680.9,62.7z M683.4,74H681v-9h2.4V74z"/>
		<path class="st4" d="M685,69.5c0-0.9,0.2-1.7,0.5-2.4c0.3-0.7,0.8-1.2,1.5-1.6c0.6-0.4,1.4-0.6,2.2-0.6c1.2,0,2.2,0.4,3,1.1
			s1.2,1.7,1.3,3l0,0.6c0,1.4-0.4,2.5-1.2,3.3c-0.8,0.8-1.8,1.2-3.1,1.2s-2.3-0.4-3.1-1.2c-0.8-0.8-1.2-2-1.2-3.4V69.5z M687.4,69.6
			c0,0.9,0.2,1.5,0.5,2c0.3,0.5,0.8,0.7,1.4,0.7c0.6,0,1-0.2,1.4-0.7c0.3-0.4,0.5-1.2,0.5-2.1c0-0.8-0.2-1.5-0.5-1.9
			c-0.3-0.5-0.8-0.7-1.4-0.7c-0.6,0-1,0.2-1.4,0.7C687.6,68,687.4,68.7,687.4,69.6z"/>
	</g>
</g>
</svg>
