<svg xmlns="http://www.w3.org/2000/svg" width="81.318" height="81.318" viewBox="0 0 81.318 81.318">
  <g id="Grupo_55006" data-name="Grupo 55006" transform="translate(-290 -1405)">
    <g id="Grupo_54920" data-name="Grupo 54920" transform="translate(-2.682 -1402.144)">
      <g id="Grupo_54538" data-name="Grupo 54538" transform="translate(-1983.395 668.347)">
        <circle id="Elipse_4024" data-name="Elipse 4024" cx="40.659" cy="40.659" r="40.659" transform="translate(2276.077 2138.797)" fill="#ca195d"/>
        <path id="Trazado_102131" data-name="Trazado 102131" d="M2316.736,2138.8a40.659,40.659,0,0,0-40.659,40.659c0,1.124.058,2.234.147,3.335,9.091,10.656,27.667,17.963,49.123,17.963a84.648,84.648,0,0,0,28.518-4.732,40.655,40.655,0,0,0-37.129-57.225Z" fill="#ff0062"/>
      </g>
    </g>
    <g id="Grupo_54928" data-name="Grupo 54928" transform="translate(-28.332 1128.849)">
      <path id="Trazado_102909" data-name="Trazado 102909" d="M359.229,319.707h.409a11.792,11.792,0,0,0,9.01-3.918c4.771-5.377,4.035-14.416,3.939-15.378-.316-6.732-3.545-9.954-6.2-11.472a14.05,14.05,0,0,0-6.8-1.788h-.219a14.079,14.079,0,0,0-6.812,1.739c-2.686,1.523-5.956,4.757-6.267,11.47-.1,1.013-.836,10.052,3.933,15.428A11.745,11.745,0,0,0,359.229,319.707Zm8.224-18.779c.063.714.584,7.779-2.661,11.432a7.667,7.667,0,0,1-10.706,0c-3.332-3.741-2.7-11.08-2.668-11.472l.019-.182c.334-7.283,5.11-8.371,7.926-8.371v-1l.118,1c3.456.077,7.638,1.591,7.948,8.325A1.306,1.306,0,0,0,367.453,300.928Zm-8.008-12.777Z" fill="#fff"/>
      <path id="Trazado_102910" data-name="Trazado 102910" d="M384.566,333.179l-1,.019,1-.035c0-.065,0-.131-.007-.2l-.005-.146c-.072-2.308-.259-8.44-6-10.4l-.187-.055a22.361,22.361,0,0,1-7.506-3.137,2.585,2.585,0,1,0-2.951,4.245,27.038,27.038,0,0,0,9.029,3.856c1.925.686,2.369,2.676,2.46,5.634,0,.126,0,.24.012.351a23.363,23.363,0,0,1-.156,2.931c-2.414,1.3-9.376,4.456-19.8,4.456a42.808,42.808,0,0,1-19.808-4.47,21.723,21.723,0,0,1-.15-3.063c0-.069.008-.141.008-.186.091-2.989.534-4.979,2.373-5.638a28.9,28.9,0,0,0,9.189-3.886,2.585,2.585,0,1,0-3-4.213,23.108,23.108,0,0,1-7.53,3.107c-.076.019-.134.038-.2.06-5.74,1.969-5.925,8.094-6,10.446a1.326,1.326,0,0,1,0,.169l-.008.14a18.612,18.612,0,0,0,.666,5.7,2.468,2.468,0,0,0,.989,1.213c.087.058,8.847,5.781,23.478,5.781,13.949,0,22.521-5.174,23.468-5.775a2.565,2.565,0,0,0,1-1.226A19.375,19.375,0,0,0,384.566,333.179Z" fill="#fff"/>
    </g>
  </g>
</svg>
